<svg width="270" height="222" viewBox="0 0 270 222" fill="none" xmlns="http://www.w3.org/2000/svg" class="tab" data-tab="7">
	<path d="M90.7906 115.5H59.2071L122.207 52.5H152.806L90.7906 115.5ZM91.5 116.205L153.5 53.2207V83.7975L91.5 147.766V116.205ZM92.1809 148.5L154.212 84.5H185.806L122.791 148.5H92.1809ZM123.5 149.205L186.5 85.2205V115.795L123.5 179.78V149.205ZM122.5 149.5V180.5H58.5V116.5H90.5V149V149.5H91H122.5Z" fill="#F5F3FF" stroke="#A78BFA" />
	<line x1="153.5" y1="25" x2="153.5" y2="47" stroke="#A78BFA" />
	<line x1="123.5" y1="25" x2="123.5" y2="47" stroke="#A78BFA" />
	<path d="M151.354 41.3536C151.549 41.1583 151.549 40.8417 151.354 40.6464L148.172 37.4645C147.976 37.2692 147.66 37.2692 147.464 37.4645C147.269 37.6597 147.269 37.9763 147.464 38.1716L150.293 41L147.464 43.8284C147.269 44.0237 147.269 44.3403 147.464 44.5355C147.66 44.7308 147.976 44.7308 148.172 44.5355L151.354 41.3536ZM125.646 40.6464C125.451 40.8417 125.451 41.1583 125.646 41.3536L128.828 44.5355C129.024 44.7308 129.34 44.7308 129.536 44.5355C129.731 44.3403 129.731 44.0237 129.536 43.8284L126.707 41L129.536 38.1716C129.731 37.9763 129.731 37.6597 129.536 37.4645C129.34 37.2692 129.024 37.2692 128.828 37.4645L125.646 40.6464ZM151 40.5H126V41.5H151V40.5Z" fill="#A78BFA" />
	<path d="M138.392 36.1364C137.847 36.1364 137.365 35.9986 136.947 35.723C136.53 35.4446 136.203 35.0526 135.967 34.5469C135.732 34.0384 135.614 33.4375 135.614 32.7443C135.614 32.0568 135.732 31.4602 135.967 30.9545C136.203 30.4489 136.531 30.0582 136.952 29.7827C137.372 29.5071 137.858 29.3693 138.409 29.3693C138.835 29.3693 139.172 29.4403 139.419 29.5824C139.669 29.7216 139.859 29.8807 139.99 30.0597C140.124 30.2358 140.227 30.3807 140.301 30.4943H140.386V27.2727H141.392V36H140.42V34.9943H140.301C140.227 35.1136 140.122 35.2642 139.986 35.446C139.849 35.625 139.655 35.7855 139.402 35.9276C139.149 36.0668 138.813 36.1364 138.392 36.1364ZM138.528 35.233C138.932 35.233 139.273 35.1278 139.551 34.9176C139.83 34.7045 140.041 34.4105 140.186 34.0355C140.331 33.6577 140.403 33.2216 140.403 32.7273C140.403 32.2386 140.332 31.8111 140.19 31.4446C140.048 31.0753 139.838 30.7884 139.56 30.5838C139.281 30.3764 138.938 30.2727 138.528 30.2727C138.102 30.2727 137.747 30.3821 137.463 30.6009C137.182 30.8168 136.97 31.1108 136.828 31.483C136.689 31.8523 136.619 32.267 136.619 32.7273C136.619 33.1932 136.69 33.6165 136.832 33.9972C136.977 34.375 137.19 34.6761 137.472 34.9006C137.756 35.1222 138.108 35.233 138.528 35.233Z" fill="#7C3AED" />
	<line x1="123.5" y1="184" x2="123.5" y2="198" stroke="#A78BFA" />
	<line x1="187.5" y1="122" x2="187.5" y2="137" stroke="#A78BFA" />
	<path d="M184.5 129.992C184.495 129.715 184.268 129.495 183.992 129.5L179.492 129.576C179.216 129.581 178.996 129.809 179.001 130.085C179.005 130.361 179.233 130.581 179.509 130.576L183.509 130.508L183.576 134.508C183.581 134.784 183.809 135.004 184.085 134.999C184.361 134.995 184.581 134.767 184.576 134.491L184.5 129.992ZM125.5 190.008C125.505 190.285 125.732 190.505 126.008 190.5L130.508 190.424C130.784 190.419 131.004 190.191 130.999 189.915C130.995 189.639 130.767 189.419 130.491 189.424L126.491 189.492L126.424 185.492C126.419 185.216 126.191 184.996 125.915 185.001C125.639 185.005 125.419 185.233 125.424 185.509L125.5 190.008ZM183.641 129.652L125.641 189.652L126.359 190.348L184.359 130.348L183.641 129.652Z" fill="#A78BFA" />
	<path d="M163.403 172L161.409 165.455H162.466L163.881 170.466H163.949L165.347 165.455H166.42L167.801 170.449H167.869L169.284 165.455H170.341L168.347 172H167.358L165.926 166.972H165.824L164.392 172H163.403Z" fill="#7C3AED" />
	<line x1="212" y1="84.5" x2="190" y2="84.5" stroke="#A78BFA" />
	<line x1="178" y1="52.5" x2="166" y2="52.5" stroke="#A78BFA" />
	<line x1="186.5" y1="64" x2="186.5" y2="74" stroke="#A78BFA" />
	<line x1="212" y1="115.5" x2="190" y2="115.5" stroke="#A78BFA" />
	<path d="M205.926 100.062V104H204.92V95.2727H205.926V98.4773H206.011C206.165 98.1392 206.395 97.8707 206.702 97.6719C207.011 97.4702 207.423 97.3693 207.938 97.3693C208.384 97.3693 208.774 97.4588 209.109 97.6378C209.445 97.8139 209.705 98.0852 209.889 98.4517C210.077 98.8153 210.17 99.2784 210.17 99.8409V104H209.165V99.9091C209.165 99.3892 209.03 98.9872 208.76 98.7031C208.493 98.4162 208.122 98.2727 207.648 98.2727C207.318 98.2727 207.023 98.3423 206.761 98.4815C206.503 98.6207 206.298 98.8239 206.148 99.0909C206 99.358 205.926 99.6818 205.926 100.062Z" fill="#7C3AED" />
	<path d="M193.562 73.5909C193.077 73.5909 192.659 73.5284 192.31 73.4034C191.96 73.2812 191.669 73.1193 191.436 72.9176C191.206 72.7188 191.023 72.5057 190.886 72.2784L191.688 71.7159C191.778 71.8352 191.893 71.9716 192.033 72.125C192.172 72.2812 192.362 72.4162 192.604 72.5298C192.848 72.6463 193.168 72.7045 193.562 72.7045C194.091 72.7045 194.527 72.5767 194.871 72.321C195.214 72.0653 195.386 71.6648 195.386 71.1193V69.7898H195.301C195.227 69.9091 195.122 70.0568 194.986 70.233C194.852 70.4062 194.659 70.5611 194.406 70.6974C194.156 70.831 193.818 70.8977 193.392 70.8977C192.864 70.8977 192.389 70.7727 191.969 70.5227C191.551 70.2727 191.22 69.9091 190.976 69.4318C190.734 68.9545 190.614 68.375 190.614 67.6932C190.614 67.0227 190.732 66.4389 190.967 65.9418C191.203 65.4418 191.531 65.0554 191.952 64.7827C192.372 64.5071 192.858 64.3693 193.409 64.3693C193.835 64.3693 194.173 64.4403 194.423 64.5824C194.676 64.7216 194.869 64.8807 195.003 65.0597C195.139 65.2358 195.244 65.3807 195.318 65.4943H195.42V64.4545H196.392V71.1875C196.392 71.75 196.264 72.2074 196.009 72.5597C195.756 72.9148 195.415 73.1747 194.986 73.3395C194.56 73.5071 194.085 73.5909 193.562 73.5909ZM193.528 69.9943C193.932 69.9943 194.273 69.902 194.551 69.7173C194.83 69.5327 195.041 69.267 195.186 68.9205C195.331 68.5739 195.403 68.1591 195.403 67.6761C195.403 67.2045 195.332 66.7884 195.19 66.4276C195.048 66.0668 194.838 65.7841 194.56 65.5795C194.281 65.375 193.938 65.2727 193.528 65.2727C193.102 65.2727 192.747 65.3807 192.463 65.5966C192.182 65.8125 191.97 66.1023 191.828 66.4659C191.689 66.8295 191.619 67.233 191.619 67.6761C191.619 68.1307 191.69 68.5327 191.832 68.8821C191.977 69.2287 192.19 69.5014 192.472 69.7003C192.756 69.8963 193.108 69.9943 193.528 69.9943Z" fill="#7C3AED" />
	<path d="M171.58 47.1364C170.966 47.1364 170.438 46.9915 169.994 46.7017C169.551 46.4119 169.21 46.0128 168.972 45.5043C168.733 44.9957 168.614 44.4148 168.614 43.7614C168.614 43.0966 168.736 42.5099 168.98 42.0014C169.227 41.4901 169.571 41.0909 170.011 40.804C170.455 40.5142 170.972 40.3693 171.562 40.3693C172.023 40.3693 172.438 40.4545 172.807 40.625C173.176 40.7955 173.479 41.0341 173.714 41.3409C173.95 41.6477 174.097 42.0057 174.153 42.4148H173.148C173.071 42.1165 172.901 41.8523 172.636 41.6222C172.375 41.3892 172.023 41.2727 171.58 41.2727C171.188 41.2727 170.844 41.375 170.548 41.5795C170.256 41.7812 170.027 42.0668 169.862 42.4361C169.7 42.8026 169.619 43.233 169.619 43.7273C169.619 44.233 169.699 44.6733 169.858 45.0483C170.02 45.4233 170.247 45.7145 170.54 45.9219C170.835 46.1293 171.182 46.233 171.58 46.233C171.841 46.233 172.078 46.1875 172.291 46.0966C172.504 46.0057 172.685 45.875 172.832 45.7045C172.98 45.5341 173.085 45.3295 173.148 45.0909H174.153C174.097 45.4773 173.956 45.8253 173.732 46.1349C173.51 46.4418 173.216 46.6861 172.849 46.8679C172.486 47.0469 172.063 47.1364 171.58 47.1364Z" fill="#7C3AED" />
	<path d="M197.646 114.354C197.842 114.549 198.158 114.549 198.354 114.354L201.536 111.172C201.731 110.976 201.731 110.66 201.536 110.464C201.34 110.269 201.024 110.269 200.828 110.464L198 113.293L195.172 110.464C194.976 110.269 194.66 110.269 194.464 110.464C194.269 110.66 194.269 110.976 194.464 111.172L197.646 114.354ZM198.354 85.6464C198.158 85.4512 197.842 85.4512 197.646 85.6464L194.464 88.8284C194.269 89.0237 194.269 89.3403 194.464 89.5355C194.66 89.7308 194.976 89.7308 195.172 89.5355L198 86.7071L200.828 89.5355C201.024 89.7308 201.34 89.7308 201.536 89.5355C201.731 89.3403 201.731 89.0237 201.536 88.8284L198.354 85.6464ZM198.5 114L198.5 86L197.5 86L197.5 114L198.5 114Z" fill="#A78BFA" />
	<path d="M171.646 83.3536C171.842 83.5488 172.158 83.5488 172.354 83.3536L175.536 80.1716C175.731 79.9763 175.731 79.6597 175.536 79.4645C175.34 79.2692 175.024 79.2692 174.828 79.4645L172 82.2929L169.172 79.4645C168.976 79.2692 168.66 79.2692 168.464 79.4645C168.269 79.6597 168.269 79.9763 168.464 80.1716L171.646 83.3536ZM172.354 54.6464C172.158 54.4512 171.842 54.4512 171.646 54.6464L168.464 57.8284C168.269 58.0237 168.269 58.3403 168.464 58.5355C168.66 58.7308 168.976 58.7308 169.172 58.5355L172 55.7071L174.828 58.5355C175.024 58.7308 175.34 58.7308 175.536 58.5355C175.731 58.3403 175.731 58.0237 175.536 57.8284L172.354 54.6464ZM172.5 83L172.5 55L171.5 55L171.5 83L172.5 83Z" fill="#A78BFA" />
	<path d="M155.646 68.6464C155.451 68.8417 155.451 69.1583 155.646 69.3536L158.828 72.5355C159.024 72.7308 159.34 72.7308 159.536 72.5355C159.731 72.3403 159.731 72.0237 159.536 71.8284L156.707 69L159.536 66.1716C159.731 65.9763 159.731 65.6597 159.536 65.4645C159.34 65.2692 159.024 65.2692 158.828 65.4645L155.646 68.6464ZM184.354 69.3536C184.549 69.1583 184.549 68.8417 184.354 68.6464L181.172 65.4645C180.976 65.2692 180.66 65.2692 180.464 65.4645C180.269 65.6597 180.269 65.9763 180.464 66.1716L183.293 69L180.464 71.8284C180.269 72.0237 180.269 72.3403 180.464 72.5355C180.66 72.7308 180.976 72.7308 181.172 72.5355L184.354 69.3536ZM156 69.5H184V68.5H156V69.5Z" fill="#A78BFA" />
</svg>