<svg width="270" height="222" viewBox="0 0 270 222" fill="none" xmlns="http://www.w3.org/2000/svg" class="tab" data-tab="3">

	<mask id="path-1-inside-1_5994_68732" fill="white">
		<path fill-rule="evenodd" clip-rule="evenodd" d="M181 3H138L64 94V194H107L181 103V3Z" />
	</mask>
	<path fill-rule="evenodd" clip-rule="evenodd" d="M181 3H138L64 94V194H107L181 103V3Z" fill="#F5F3FF" />
	<path d="M138 3V2H137.524L137.224 2.36909L138 3ZM181 3H182V2H181V3ZM64 94L63.2241 93.3691L63 93.6447V94H64ZM64 194H63V195H64V194ZM107 194V195H107.476L107.776 194.631L107 194ZM181 103L181.776 103.631L182 103.355V103H181ZM138 4H181V2H138V4ZM64.7759 94.6309L138.776 3.63091L137.224 2.36909L63.2241 93.3691L64.7759 94.6309ZM65 194V94H63V194H65ZM107 193H64V195H107V193ZM107.776 194.631L181.776 103.631L180.224 102.369L106.224 193.369L107.776 194.631ZM182 103V3H180V103H182Z" fill="#A78BFA" mask="url(#path-1-inside-1_5994_68732)" />
	<path d="M65 94.5H106.5M180 4L106.5 94.5M106.5 193V94.5" stroke="#A78BFA" />
	<line x1="106.5" y1="198" x2="106.5" y2="212" stroke="#A78BFA" />
	<line x1="64.5" y1="197" x2="64.5" y2="211" stroke="#A78BFA" />
	<path d="M104.354 204.354C104.549 204.158 104.549 203.842 104.354 203.646L101.172 200.464C100.976 200.269 100.66 200.269 100.464 200.464C100.269 200.66 100.269 200.976 100.464 201.172L103.293 204L100.464 206.828C100.269 207.024 100.269 207.34 100.464 207.536C100.66 207.731 100.976 207.731 101.172 207.536L104.354 204.354ZM65.6464 203.646C65.4512 203.842 65.4512 204.158 65.6464 204.354L68.8284 207.536C69.0237 207.731 69.3403 207.731 69.5355 207.536C69.7308 207.34 69.7308 207.024 69.5355 206.828L66.7071 204L69.5355 201.172C69.7308 200.976 69.7308 200.66 69.5355 200.464C69.3403 200.269 69.0237 200.269 68.8284 200.464L65.6464 203.646ZM104 203.5H66V204.5H104V203.5Z" fill="#A78BFA" />
	<path d="M82.4034 216L80.4091 209.455H81.4659L82.8807 214.466H82.9489L84.3466 209.455H85.4205L86.8011 214.449H86.8693L88.2841 209.455H89.3409L87.3466 216H86.358L84.9261 210.972H84.8239L83.392 216H82.4034Z" fill="#7C3AED" />
	<line x1="181.5" y1="106" x2="181.5" y2="121" stroke="#A78BFA" />
	<path d="M177.497 118.947C177.468 118.672 177.222 118.474 176.947 118.503L172.472 118.98C172.198 119.009 171.999 119.256 172.028 119.53C172.057 119.805 172.304 120.004 172.578 119.974L176.556 119.55L176.98 123.528C177.009 123.802 177.256 124.001 177.53 123.972C177.805 123.943 178.004 123.696 177.974 123.422L177.497 118.947ZM109.503 202.053C109.532 202.328 109.778 202.526 110.053 202.497L114.528 202.02C114.802 201.991 115.001 201.744 114.972 201.47C114.943 201.195 114.696 200.996 114.422 201.026L110.444 201.45L110.02 197.472C109.991 197.198 109.744 196.999 109.47 197.028C109.195 197.057 108.996 197.304 109.026 197.578L109.503 202.053ZM176.611 118.686L109.611 201.686L110.389 202.314L177.389 119.314L176.611 118.686Z" fill="#A78BFA" />
	<path d="M151.926 163.273V172H150.92V163.273H151.926Z" fill="#7C3AED" />
	<line x1="199" y1="3.5" x2="184" y2="3.5" stroke="#A78BFA" />
	<line x1="199" y1="102.5" x2="184" y2="102.5" stroke="#A78BFA" />
	<path d="M191.646 101.354C191.842 101.549 192.158 101.549 192.354 101.354L195.536 98.1716C195.731 97.9763 195.731 97.6597 195.536 97.4645C195.34 97.2692 195.024 97.2692 194.828 97.4645L192 100.293L189.172 97.4645C188.976 97.2692 188.66 97.2692 188.464 97.4645C188.269 97.6597 188.269 97.9763 188.464 98.1716L191.646 101.354ZM192.354 5.64645C192.158 5.45119 191.842 5.45119 191.646 5.64645L188.464 8.82843C188.269 9.02369 188.269 9.34027 188.464 9.53554C188.66 9.7308 188.976 9.7308 189.172 9.53554L192 6.70711L194.828 9.53553C195.024 9.7308 195.34 9.7308 195.536 9.53553C195.731 9.34027 195.731 9.02369 195.536 8.82843L192.354 5.64645ZM192.5 101L192.5 6L191.5 6L191.5 101L192.5 101Z" fill="#A78BFA" />
	<path d="M199.926 67.0625V71H198.92V62.2727H199.926V65.4773H200.011C200.165 65.1392 200.395 64.8707 200.702 64.6719C201.011 64.4702 201.423 64.3693 201.938 64.3693C202.384 64.3693 202.774 64.4588 203.109 64.6378C203.445 64.8139 203.705 65.0852 203.889 65.4517C204.077 65.8153 204.17 66.2784 204.17 66.8409V71H203.165V66.9091C203.165 66.3892 203.03 65.9872 202.76 65.7031C202.493 65.4162 202.122 65.2727 201.648 65.2727C201.318 65.2727 201.023 65.3423 200.761 65.4815C200.503 65.6207 200.298 65.8239 200.148 66.0909C200 66.358 199.926 66.6818 199.926 67.0625Z" fill="#7C3AED" />
</svg>