<svg id="Layer_1" data-name="Layer 1" xmlns="http://www.w3.org/2000/svg" xmlns:xlink="http://www.w3.org/1999/xlink" viewBox="0 0 4500 2500"><defs><style>.cls-1{fill:none;}.cls-2{fill:#aed3f0;}.cls-3{fill:#c3dcf3;}.cls-10,.cls-100,.cls-101,.cls-102,.cls-103,.cls-104,.cls-105,.cls-106,.cls-107,.cls-108,.cls-11,.cls-110,.cls-113,.cls-114,.cls-115,.cls-116,.cls-119,.cls-12,.cls-121,.cls-122,.cls-123,.cls-126,.cls-127,.cls-128,.cls-129,.cls-13,.cls-130,.cls-14,.cls-15,.cls-16,.cls-17,.cls-18,.cls-19,.cls-20,.cls-21,.cls-22,.cls-23,.cls-24,.cls-25,.cls-26,.cls-27,.cls-28,.cls-29,.cls-3,.cls-30,.cls-31,.cls-32,.cls-33,.cls-34,.cls-35,.cls-36,.cls-37,.cls-38,.cls-39,.cls-40,.cls-41,.cls-42,.cls-43,.cls-44,.cls-45,.cls-46,.cls-47,.cls-48,.cls-49,.cls-5,.cls-50,.cls-51,.cls-52,.cls-53,.cls-54,.cls-55,.cls-56,.cls-57,.cls-58,.cls-59,.cls-6,.cls-60,.cls-61,.cls-62,.cls-63,.cls-64,.cls-65,.cls-66,.cls-67,.cls-68,.cls-69,.cls-7,.cls-70,.cls-71,.cls-72,.cls-73,.cls-74,.cls-75,.cls-76,.cls-77,.cls-78,.cls-79,.cls-8,.cls-80,.cls-81,.cls-82,.cls-83,.cls-84,.cls-85,.cls-86,.cls-87,.cls-88,.cls-89,.cls-9,.cls-90,.cls-91,.cls-92,.cls-93,.cls-94,.cls-95,.cls-96,.cls-97,.cls-98,.cls-99{fill-rule:evenodd;}.cls-4{clip-path:url(#clip-path);}.cls-5{fill:#5ea8e1;}.cls-6{fill:url(#linear-gradient);}.cls-7{fill:#8dc1ea;}.cls-8{fill:url(#linear-gradient-2);}.cls-9{fill:url(#linear-gradient-3);}.cls-10{fill:url(#linear-gradient-4);}.cls-11{fill:url(#linear-gradient-5);}.cls-12{fill:url(#linear-gradient-6);}.cls-13{fill:url(#linear-gradient-7);}.cls-14{fill:url(#linear-gradient-8);}.cls-15{fill:url(#linear-gradient-9);}.cls-16{fill:url(#linear-gradient-10);}.cls-17{fill:url(#linear-gradient-11);}.cls-18{fill:url(#linear-gradient-12);}.cls-19{fill:url(#linear-gradient-13);}.cls-20{fill:url(#linear-gradient-14);}.cls-21{fill:url(#linear-gradient-15);}.cls-22{fill:url(#linear-gradient-16);}.cls-23{fill:url(#linear-gradient-17);}.cls-24{fill:url(#linear-gradient-18);}.cls-25{fill:url(#linear-gradient-19);}.cls-26{fill:url(#linear-gradient-20);}.cls-27{fill:url(#linear-gradient-21);}.cls-28{fill:url(#linear-gradient-22);}.cls-29{fill:url(#linear-gradient-23);}.cls-30{fill:url(#linear-gradient-24);}.cls-31{fill:url(#linear-gradient-25);}.cls-32{fill:url(#linear-gradient-26);}.cls-33{fill:url(#linear-gradient-27);}.cls-34{fill:url(#linear-gradient-28);}.cls-35{fill:url(#linear-gradient-29);}.cls-36{fill:url(#linear-gradient-30);}.cls-37{fill:url(#linear-gradient-31);}.cls-38{fill:url(#linear-gradient-32);}.cls-39{fill:url(#linear-gradient-33);}.cls-40{fill:url(#linear-gradient-34);}.cls-41{fill:url(#linear-gradient-35);}.cls-42{fill:url(#linear-gradient-36);}.cls-43{fill:url(#linear-gradient-37);}.cls-44{fill:url(#linear-gradient-38);}.cls-45{fill:url(#linear-gradient-39);}.cls-46{fill:url(#linear-gradient-40);}.cls-47{fill:url(#linear-gradient-41);}.cls-48{fill:url(#linear-gradient-42);}.cls-49{fill:url(#linear-gradient-43);}.cls-50{fill:url(#linear-gradient-44);}.cls-51{fill:url(#linear-gradient-45);}.cls-52{fill:url(#linear-gradient-46);}.cls-53{fill:url(#linear-gradient-47);}.cls-54{fill:url(#linear-gradient-48);}.cls-55{fill:url(#linear-gradient-49);}.cls-56{fill:url(#linear-gradient-50);}.cls-57{fill:url(#linear-gradient-51);}.cls-58{fill:url(#linear-gradient-52);}.cls-59{fill:url(#linear-gradient-53);}.cls-60{fill:url(#linear-gradient-54);}.cls-61{fill:url(#linear-gradient-55);}.cls-62{fill:url(#linear-gradient-56);}.cls-63{fill:url(#linear-gradient-57);}.cls-64{fill:url(#linear-gradient-58);}.cls-65{fill:url(#linear-gradient-59);}.cls-66{fill:url(#linear-gradient-60);}.cls-67{fill:url(#linear-gradient-61);}.cls-68{fill:url(#linear-gradient-62);}.cls-69{fill:url(#linear-gradient-63);}.cls-70{fill:url(#linear-gradient-64);}.cls-71{fill:url(#linear-gradient-65);}.cls-72{fill:url(#linear-gradient-66);}.cls-73{fill:url(#linear-gradient-67);}.cls-74{fill:url(#linear-gradient-68);}.cls-75{fill:url(#linear-gradient-69);}.cls-76{fill:url(#linear-gradient-70);}.cls-77{fill:url(#linear-gradient-71);}.cls-78{fill:url(#linear-gradient-72);}.cls-79{fill:url(#linear-gradient-73);}.cls-80{fill:url(#linear-gradient-74);}.cls-81{fill:url(#linear-gradient-75);}.cls-82{fill:url(#linear-gradient-76);}.cls-83{fill:url(#linear-gradient-77);}.cls-84{fill:url(#linear-gradient-78);}.cls-85{fill:url(#linear-gradient-79);}.cls-86{fill:url(#linear-gradient-80);}.cls-87{fill:url(#linear-gradient-81);}.cls-88{fill-opacity:0.19;}.cls-89{fill:#f189b2;}.cls-90{fill:#9f3660;}.cls-91{fill:#d9417d;}.cls-92{fill:#67a9e6;}.cls-93{fill:#afd2f2;}.cls-94{fill:#2c79c0;}.cls-95{fill:#1f5587;}.cls-96{fill:#c09f18;}.cls-97{fill:#e6c53d;}.cls-98{fill:#ec6198;}.cls-99{fill:#304886;}.cls-100{fill:#8ebbe5;}.cls-101{fill:#6fa8de;}.cls-102{fill:#bedffd;}.cls-103{fill:#c6ddf2;}.cls-104{fill-opacity:0.28;}.cls-105{fill:#44ae9e;}.cls-106{fill:#05837c;}.cls-107{fill:#045d58;}.cls-108{fill:#7cccc0;}.cls-109{fill-opacity:0.11;}.cls-110{fill:#d6b21c;}.cls-111{fill:#daebf8;}.cls-112{fill:#318eda;}.cls-113{fill:#195a8f;}.cls-114{fill-opacity:0.22;}.cls-115{fill:#917b1d;}.cls-116{fill:url(#linear-gradient-82);}.cls-117{fill:#93790e;}.cls-118{fill:#f8ebb6;}.cls-119{fill:url(#linear-gradient-83);}.cls-120{fill:url(#linear-gradient-84);}.cls-121{fill:url(#linear-gradient-85);}.cls-122{fill:#348478;}.cls-123,.cls-124{fill:#116b5e;}.cls-125{fill:#78cabe;}.cls-126{fill:#637091;}.cls-126,.cls-127,.cls-128,.cls-129{fill-opacity:0.98;}.cls-127{fill:#4c5670;}.cls-128{fill:#828da9;}.cls-129{fill:#4c556f;}.cls-130{fill:url(#linear-gradient-86);}</style><clipPath id="clip-path"><rect class="cls-1" width="4500" height="2500"/></clipPath><linearGradient id="linear-gradient" x1="1292.85" y1="1793.19" x2="1294.03" y2="1793.33" gradientTransform="matrix(-49.22, -426.75, -426.26, 101.34, 827814.07, 370064.44)" gradientUnits="userSpaceOnUse"><stop offset="0" stop-color="#002953" stop-opacity="0"/><stop offset="1" stop-color="#002953"/></linearGradient><linearGradient id="linear-gradient-2" x1="1288.07" y1="1788.23" x2="1289.26" y2="1788.37" gradientTransform="matrix(77.61, 674.07, 673.28, -159.94, -1304231.05, -582573.04)" xlink:href="#linear-gradient"/><linearGradient id="linear-gradient-3" x1="1292.73" y1="1793.06" x2="1293.91" y2="1793.2" gradientTransform="matrix(-49.22, -426.75, -426.26, 101.34, 828161.35, 370274.22)" xlink:href="#linear-gradient"/><linearGradient id="linear-gradient-4" x1="1293.49" y1="1793.5" x2="1294.68" y2="1793.7" gradientTransform="matrix(-77.98, -373.18, -339.01, 128.67, 708964.75, 252143.59)" gradientUnits="userSpaceOnUse"><stop offset="0" stop-color="#fff" stop-opacity="0"/><stop offset="1" stop-color="#fff"/></linearGradient><linearGradient id="linear-gradient-5" x1="1288.15" y1="1788.32" x2="1289.33" y2="1788.45" gradientTransform="matrix(77.61, 674.07, 673.28, -159.94, -1303883.77, -582363.26)" xlink:href="#linear-gradient"/><linearGradient id="linear-gradient-6" x1="1292.69" y1="1792.77" x2="1293.88" y2="1792.91" gradientTransform="matrix(-49.22, -426.75, -426.26, 101.34, 828845.38, 370190.23)" xlink:href="#linear-gradient"/><linearGradient id="linear-gradient-7" x1="1293.42" y1="1793.16" x2="1294.6" y2="1793.35" gradientTransform="matrix(-77.98, -373.18, -339.01, 128.67, 709648.79, 252059.6)" xlink:href="#linear-gradient-4"/><linearGradient id="linear-gradient-8" x1="1288.17" y1="1788.5" x2="1289.35" y2="1788.64" gradientTransform="matrix(77.61, 674.07, 673.28, -159.94, -1303199.74, -582447.25)" xlink:href="#linear-gradient"/><linearGradient id="linear-gradient-9" x1="1292.66" y1="1792.48" x2="1293.84" y2="1792.62" gradientTransform="matrix(-49.22, -426.75, -426.26, 101.34, 829529.41, 370106.24)" xlink:href="#linear-gradient"/><linearGradient id="linear-gradient-10" x1="1293.34" y1="1792.81" x2="1294.53" y2="1793" gradientTransform="matrix(-77.98, -373.18, -339.01, 128.67, 710332.82, 251975.61)" xlink:href="#linear-gradient-4"/><linearGradient id="linear-gradient-11" x1="1288.19" y1="1788.68" x2="1289.37" y2="1788.82" gradientTransform="matrix(77.61, 674.07, 673.28, -159.94, -1302515.7, -582531.24)" xlink:href="#linear-gradient"/><linearGradient id="linear-gradient-12" x1="1292.63" y1="1793.22" x2="1293.82" y2="1793.35" gradientTransform="matrix(-49.22, -426.75, -426.26, 101.34, 827815.18, 370572.07)" xlink:href="#linear-gradient"/><linearGradient id="linear-gradient-13" x1="1288.21" y1="1788.22" x2="1289.39" y2="1788.35" gradientTransform="matrix(77.61, 674.07, 673.28, -159.94, -1304229.94, -582065.41)" xlink:href="#linear-gradient"/><linearGradient id="linear-gradient-14" x1="1292.51" y1="1793.08" x2="1293.69" y2="1793.22" gradientTransform="matrix(-49.22, -426.75, -426.26, 101.34, 828162.46, 370781.85)" xlink:href="#linear-gradient"/><linearGradient id="linear-gradient-15" x1="1293.26" y1="1793.56" x2="1294.45" y2="1793.75" gradientTransform="matrix(-77.98, -373.18, -339.01, 128.67, 708965.86, 252651.22)" xlink:href="#linear-gradient-4"/><linearGradient id="linear-gradient-16" x1="1288.28" y1="1788.3" x2="1289.47" y2="1788.44" gradientTransform="matrix(77.61, 674.07, 673.28, -159.94, -1303882.66, -581855.63)" xlink:href="#linear-gradient"/><linearGradient id="linear-gradient-17" x1="1292.6" y1="1792.93" x2="1293.78" y2="1793.07" gradientTransform="matrix(-49.22, -426.75, -426.26, 101.34, 828499.21, 370488.08)" xlink:href="#linear-gradient"/><linearGradient id="linear-gradient-18" x1="1293.34" y1="1793.36" x2="1294.53" y2="1793.55" gradientTransform="matrix(-77.98, -373.18, -339.01, 128.67, 709302.62, 252357.45)" xlink:href="#linear-gradient-4"/><linearGradient id="linear-gradient-19" x1="1288.23" y1="1788.4" x2="1289.41" y2="1788.54" gradientTransform="matrix(77.61, 674.07, 673.28, -159.94, -1303545.91, -582149.4)" xlink:href="#linear-gradient"/><linearGradient id="linear-gradient-20" x1="1292.48" y1="1792.8" x2="1293.66" y2="1792.93" gradientTransform="matrix(-49.22, -426.75, -426.26, 101.34, 828846.49, 370697.86)" xlink:href="#linear-gradient"/><linearGradient id="linear-gradient-21" x1="1293.18" y1="1793.21" x2="1294.37" y2="1793.4" gradientTransform="matrix(-77.98, -373.18, -339.01, 128.67, 709649.9, 252567.23)" xlink:href="#linear-gradient-4"/><linearGradient id="linear-gradient-22" x1="1288.3" y1="1788.48" x2="1289.49" y2="1788.62" gradientTransform="matrix(77.61, 674.07, 673.28, -159.94, -1303198.63, -581939.62)" xlink:href="#linear-gradient"/><linearGradient id="linear-gradient-23" x1="1292.57" y1="1792.64" x2="1293.75" y2="1792.78" gradientTransform="matrix(-49.22, -426.75, -426.26, 101.34, 829183.25, 370404.09)" xlink:href="#linear-gradient"/><linearGradient id="linear-gradient-24" x1="1293.26" y1="1793.01" x2="1294.45" y2="1793.21" gradientTransform="matrix(-77.98, -373.18, -339.01, 128.67, 709986.65, 252273.46)" xlink:href="#linear-gradient-4"/><linearGradient id="linear-gradient-25" x1="1288.25" y1="1788.58" x2="1289.43" y2="1788.72" gradientTransform="matrix(77.61, 674.07, 673.28, -159.94, -1302861.87, -582233.39)" xlink:href="#linear-gradient"/><linearGradient id="linear-gradient-26" x1="1292.45" y1="1792.51" x2="1293.63" y2="1792.65" gradientTransform="matrix(-49.22, -426.75, -426.26, 101.34, 829530.52, 370613.87)" xlink:href="#linear-gradient"/><linearGradient id="linear-gradient-27" x1="1293.1" y1="1792.86" x2="1294.29" y2="1793.06" gradientTransform="matrix(-77.98, -373.18, -339.01, 128.67, 710333.93, 252483.24)" xlink:href="#linear-gradient-4"/><linearGradient id="linear-gradient-28" x1="1288.32" y1="1788.67" x2="1289.51" y2="1788.8" gradientTransform="matrix(77.61, 674.07, 673.28, -159.94, -1302514.6, -582023.61)" xlink:href="#linear-gradient"/><linearGradient id="linear-gradient-29" x1="1292.54" y1="1792.35" x2="1293.72" y2="1792.49" gradientTransform="matrix(-49.22, -426.75, -426.26, 101.34, 829867.29, 370320.1)" xlink:href="#linear-gradient"/><linearGradient id="linear-gradient-30" x1="1293.18" y1="1792.66" x2="1294.37" y2="1792.86" gradientTransform="matrix(-77.98, -373.18, -339.01, 128.67, 710670.69, 252189.47)" xlink:href="#linear-gradient-4"/><linearGradient id="linear-gradient-31" x1="1288.27" y1="1788.76" x2="1289.45" y2="1788.9" gradientTransform="matrix(77.61, 674.07, 673.28, -159.94, -1302177.83, -582317.38)" xlink:href="#linear-gradient"/><linearGradient id="linear-gradient-32" x1="1292.41" y1="1792.22" x2="1293.6" y2="1792.36" gradientTransform="matrix(-49.22, -426.75, -426.26, 101.34, 830214.55, 370529.89)" xlink:href="#linear-gradient"/><linearGradient id="linear-gradient-33" x1="1293.03" y1="1792.51" x2="1294.21" y2="1792.71" gradientTransform="matrix(-77.98, -373.18, -339.01, 128.67, 711017.96, 252399.25)" xlink:href="#linear-gradient-4"/><linearGradient id="linear-gradient-34" x1="1288.35" y1="1788.85" x2="1289.53" y2="1788.99" gradientTransform="matrix(77.61, 674.07, 673.28, -159.94, -1301830.56, -582107.6)" xlink:href="#linear-gradient"/><linearGradient id="linear-gradient-35" x1="1292.51" y1="1792.07" x2="1293.69" y2="1792.2" gradientTransform="matrix(-49.22, -426.75, -426.26, 101.34, 830551.32, 370236.11)" xlink:href="#linear-gradient"/><linearGradient id="linear-gradient-36" x1="1293.1" y1="1792.31" x2="1294.29" y2="1792.51" gradientTransform="matrix(-77.98, -373.18, -339.01, 128.67, 711354.73, 252105.48)" xlink:href="#linear-gradient-4"/><linearGradient id="linear-gradient-37" x1="1288.29" y1="1788.95" x2="1289.47" y2="1789.08" gradientTransform="matrix(77.61, 674.07, 673.28, -159.94, -1301493.8, -582401.37)" xlink:href="#linear-gradient"/><linearGradient id="linear-gradient-38" x1="1292.38" y1="1791.93" x2="1293.57" y2="1792.07" gradientTransform="matrix(-49.22, -426.75, -426.26, 101.34, 830898.59, 370445.9)" xlink:href="#linear-gradient"/><linearGradient id="linear-gradient-39" x1="1292.95" y1="1792.16" x2="1294.13" y2="1792.36" gradientTransform="matrix(-77.98, -373.18, -339.01, 128.67, 711701.99, 252315.27)" xlink:href="#linear-gradient-4"/><linearGradient id="linear-gradient-40" x1="1288.37" y1="1789.03" x2="1289.55" y2="1789.17" gradientTransform="matrix(77.61, 674.07, 673.28, -159.94, -1301146.53, -582191.58)" xlink:href="#linear-gradient"/><linearGradient id="linear-gradient-41" x1="1292.47" y1="1791.78" x2="1293.66" y2="1791.92" gradientTransform="matrix(-49.22, -426.75, -426.26, 101.34, 831235.35, 370152.13)" xlink:href="#linear-gradient"/><linearGradient id="linear-gradient-42" x1="1293.03" y1="1791.97" x2="1294.21" y2="1792.16" gradientTransform="matrix(-77.98, -373.18, -339.01, 128.67, 712038.76, 252021.49)" xlink:href="#linear-gradient-4"/><linearGradient id="linear-gradient-43" x1="1288.31" y1="1789.13" x2="1289.49" y2="1789.27" gradientTransform="matrix(77.61, 674.07, 673.28, -159.94, -1300809.77, -582485.36)" xlink:href="#linear-gradient"/><linearGradient id="linear-gradient-44" x1="1292.35" y1="1791.65" x2="1293.53" y2="1791.78" gradientTransform="matrix(-49.22, -426.75, -426.26, 101.34, 831582.62, 370361.91)" xlink:href="#linear-gradient"/><linearGradient id="linear-gradient-45" x1="1292.87" y1="1791.82" x2="1294.06" y2="1792.01" gradientTransform="matrix(-77.98, -373.18, -339.01, 128.67, 712386.03, 252231.28)" xlink:href="#linear-gradient-4"/><linearGradient id="linear-gradient-46" x1="1288.39" y1="1789.21" x2="1289.57" y2="1789.35" gradientTransform="matrix(77.61, 674.07, 673.28, -159.94, -1300462.5, -582275.57)" xlink:href="#linear-gradient"/><linearGradient id="linear-gradient-47" x1="1292.42" y1="1793.24" x2="1293.6" y2="1793.38" gradientTransform="matrix(-49.22, -426.75, -426.26, 101.34, 827816.29, 371079.7)" xlink:href="#linear-gradient"/><linearGradient id="linear-gradient-48" x1="1288.34" y1="1788.2" x2="1289.53" y2="1788.34" gradientTransform="matrix(77.61, 674.07, 673.28, -159.94, -1304228.83, -581557.78)" xlink:href="#linear-gradient"/><linearGradient id="linear-gradient-49" x1="1292.3" y1="1793.11" x2="1293.48" y2="1793.25" gradientTransform="matrix(-49.22, -426.75, -426.26, 101.34, 828163.56, 371289.48)" xlink:href="#linear-gradient"/><linearGradient id="linear-gradient-50" x1="1293.03" y1="1793.61" x2="1294.21" y2="1793.81" gradientTransform="matrix(-77.98, -373.18, -339.01, 128.67, 708966.97, 253158.85)" xlink:href="#linear-gradient-4"/><linearGradient id="linear-gradient-51" x1="1288.42" y1="1788.29" x2="1289.61" y2="1788.42" gradientTransform="matrix(77.61, 674.07, 673.28, -159.94, -1303881.56, -581348)" xlink:href="#linear-gradient"/><linearGradient id="linear-gradient-52" x1="1292.39" y1="1792.95" x2="1293.57" y2="1793.09" gradientTransform="matrix(-49.22, -426.75, -426.26, 101.34, 828500.32, 370995.71)" xlink:href="#linear-gradient"/><linearGradient id="linear-gradient-53" x1="1293.1" y1="1793.41" x2="1294.29" y2="1793.61" gradientTransform="matrix(-77.98, -373.18, -339.01, 128.67, 709303.73, 252865.08)" xlink:href="#linear-gradient-4"/><linearGradient id="linear-gradient-54" x1="1288.36" y1="1788.38" x2="1289.55" y2="1788.52" gradientTransform="matrix(77.61, 674.07, 673.28, -159.94, -1303544.8, -581641.77)" xlink:href="#linear-gradient"/><linearGradient id="linear-gradient-55" x1="1292.26" y1="1792.82" x2="1293.45" y2="1792.96" gradientTransform="matrix(-49.22, -426.75, -426.26, 101.34, 828847.6, 371205.5)" xlink:href="#linear-gradient"/><linearGradient id="linear-gradient-56" x1="1292.95" y1="1793.26" x2="1294.14" y2="1793.46" gradientTransform="matrix(-77.98, -373.18, -339.01, 128.67, 709651, 253074.86)" xlink:href="#linear-gradient-4"/><linearGradient id="linear-gradient-57" x1="1288.44" y1="1788.47" x2="1289.63" y2="1788.61" gradientTransform="matrix(77.61, 674.07, 673.28, -159.94, -1303197.52, -581431.99)" xlink:href="#linear-gradient"/><linearGradient id="linear-gradient-58" x1="1292.35" y1="1792.67" x2="1293.54" y2="1792.8" gradientTransform="matrix(-49.22, -426.75, -426.26, 101.34, 829184.35, 370911.72)" xlink:href="#linear-gradient"/><linearGradient id="linear-gradient-59" x1="1293.03" y1="1793.06" x2="1294.21" y2="1793.26" gradientTransform="matrix(-77.98, -373.18, -339.01, 128.67, 709987.76, 252781.09)" xlink:href="#linear-gradient-4"/><linearGradient id="linear-gradient-60" x1="1288.38" y1="1788.57" x2="1289.57" y2="1788.7" gradientTransform="matrix(77.61, 674.07, 673.28, -159.94, -1302860.77, -581725.76)" xlink:href="#linear-gradient"/><linearGradient id="linear-gradient-61" x1="1292.23" y1="1792.53" x2="1293.42" y2="1792.67" gradientTransform="matrix(-49.22, -426.75, -426.26, 101.34, 829531.63, 371121.51)" xlink:href="#linear-gradient"/><linearGradient id="linear-gradient-62" x1="1292.87" y1="1792.91" x2="1294.06" y2="1793.11" gradientTransform="matrix(-77.98, -373.18, -339.01, 128.67, 710335.04, 252990.88)" xlink:href="#linear-gradient-4"/><linearGradient id="linear-gradient-63" x1="1288.46" y1="1788.65" x2="1289.65" y2="1788.79" gradientTransform="matrix(77.61, 674.07, 673.28, -159.94, -1302513.49, -581515.97)" xlink:href="#linear-gradient"/><linearGradient id="linear-gradient-64" x1="1292.32" y1="1792.38" x2="1293.51" y2="1792.52" gradientTransform="matrix(-49.22, -426.75, -426.26, 101.34, 829868.39, 370827.74)" xlink:href="#linear-gradient"/><linearGradient id="linear-gradient-65" x1="1292.95" y1="1792.72" x2="1294.14" y2="1792.91" gradientTransform="matrix(-77.98, -373.18, -339.01, 128.67, 710671.8, 252697.1)" xlink:href="#linear-gradient-4"/><linearGradient id="linear-gradient-66" x1="1288.4" y1="1788.75" x2="1289.59" y2="1788.89" gradientTransform="matrix(77.61, 674.07, 673.28, -159.94, -1302176.73, -581809.75)" xlink:href="#linear-gradient"/><linearGradient id="linear-gradient-67" x1="1292.2" y1="1792.24" x2="1293.38" y2="1792.38" gradientTransform="matrix(-49.22, -426.75, -426.26, 101.34, 830215.66, 371037.52)" xlink:href="#linear-gradient"/><linearGradient id="linear-gradient-68" x1="1292.79" y1="1792.57" x2="1293.98" y2="1792.76" gradientTransform="matrix(-77.98, -373.18, -339.01, 128.67, 711019.07, 252906.89)" xlink:href="#linear-gradient-4"/><linearGradient id="linear-gradient-69" x1="1288.48" y1="1788.83" x2="1289.67" y2="1788.97" gradientTransform="matrix(77.61, 674.07, 673.28, -159.94, -1301829.46, -581599.96)" xlink:href="#linear-gradient"/><linearGradient id="linear-gradient-70" x1="1292.29" y1="1792.09" x2="1293.47" y2="1792.23" gradientTransform="matrix(-49.22, -426.75, -426.26, 101.34, 830552.43, 370743.75)" xlink:href="#linear-gradient"/><linearGradient id="linear-gradient-71" x1="1292.87" y1="1792.37" x2="1294.06" y2="1792.56" gradientTransform="matrix(-77.98, -373.18, -339.01, 128.67, 711355.83, 252613.12)" xlink:href="#linear-gradient-4"/><linearGradient id="linear-gradient-72" x1="1288.42" y1="1788.93" x2="1289.61" y2="1789.07" gradientTransform="matrix(77.61, 674.07, 673.28, -159.94, -1301492.69, -581893.73)" xlink:href="#linear-gradient"/><linearGradient id="linear-gradient-73" x1="1292.17" y1="1791.96" x2="1293.35" y2="1792.09" gradientTransform="matrix(-49.22, -426.75, -426.26, 101.34, 830899.7, 370953.53)" xlink:href="#linear-gradient"/><linearGradient id="linear-gradient-74" x1="1292.71" y1="1792.22" x2="1293.9" y2="1792.41" gradientTransform="matrix(-77.98, -373.18, -339.01, 128.67, 711703.1, 252822.9)" xlink:href="#linear-gradient-4"/><linearGradient id="linear-gradient-75" x1="1288.5" y1="1789.01" x2="1289.69" y2="1789.15" gradientTransform="matrix(77.61, 674.07, 673.28, -159.94, -1301145.42, -581683.95)" xlink:href="#linear-gradient"/><linearGradient id="linear-gradient-76" x1="1292.26" y1="1791.8" x2="1293.44" y2="1791.94" gradientTransform="matrix(-49.22, -426.75, -426.26, 101.34, 831236.46, 370659.76)" xlink:href="#linear-gradient"/><linearGradient id="linear-gradient-77" x1="1292.79" y1="1792.02" x2="1293.98" y2="1792.21" gradientTransform="matrix(-77.98, -373.18, -339.01, 128.67, 712039.87, 252529.13)" xlink:href="#linear-gradient-4"/><linearGradient id="linear-gradient-78" x1="1288.44" y1="1789.11" x2="1289.63" y2="1789.25" gradientTransform="matrix(77.61, 674.07, 673.28, -159.94, -1300808.66, -581977.72)" xlink:href="#linear-gradient"/><linearGradient id="linear-gradient-79" x1="1292.14" y1="1791.67" x2="1293.32" y2="1791.81" gradientTransform="matrix(-49.22, -426.75, -426.26, 101.34, 831583.73, 370869.54)" xlink:href="#linear-gradient"/><linearGradient id="linear-gradient-80" x1="1292.64" y1="1791.87" x2="1293.82" y2="1792.06" gradientTransform="matrix(-77.98, -373.18, -339.01, 128.67, 712387.13, 252738.91)" xlink:href="#linear-gradient-4"/><linearGradient id="linear-gradient-81" x1="1288.52" y1="1789.2" x2="1289.71" y2="1789.33" gradientTransform="matrix(77.61, 674.07, 673.28, -159.94, -1300461.39, -581767.94)" xlink:href="#linear-gradient"/><linearGradient id="linear-gradient-82" x1="1289.97" y1="1790.68" x2="1291.15" y2="1790.68" gradientTransform="matrix(1204.35, -1888.83, -1888.83, -1204.35, 1829997.96, 4594724.08)" xlink:href="#linear-gradient-4"/><linearGradient id="linear-gradient-83" x1="1289.9" y1="1791.17" x2="1291.08" y2="1791.17" gradientTransform="matrix(758.95, -965, -965, -758.95, 750559.35, 2604905.67)" xlink:href="#linear-gradient-4"/><linearGradient id="linear-gradient-84" x1="1295.32" y1="1795.63" x2="1296.5" y2="1796.33" gradientTransform="matrix(290.72, -150.75, -369.13, -119.56, 286838.26, 410142.44)" xlink:href="#linear-gradient-4"/><linearGradient id="linear-gradient-85" x1="1289.72" y1="1793.08" x2="1290.91" y2="1793.01" gradientTransform="matrix(297.84, -401.05, -378.7, -315.42, 296047.11, 1083364.21)" xlink:href="#linear-gradient-4"/><linearGradient id="linear-gradient-86" x1="1289.9" y1="1790.68" x2="1291.08" y2="1790.68" gradientTransform="matrix(1308.39, -2052, -2052, -1308.39, 1986825.77, 4991891.75)" xlink:href="#linear-gradient-4"/></defs><g id="c71"><rect class="cls-2" width="4500" height="2500"/><path class="cls-3" d="M0,1887.84c57.7,26.52,124.43,45.91,203.47,53.82,210.9,21.06,400-110.16,595.73-162.5,621.37-166.18,1348.16-64.44,1946.64,139.72,335.44,114.41,612.88,384.54,916.09,581.12H0ZM4500,901.55c-238.87-49.32-495,18.51-795.07-134.77C3354.83,588,3291.86,249.3,3130,0H4500ZM1384.1,0C960.43,238.92,447.84,581,0,638.57V0Z"/><rect class="cls-1" width="4500" height="2500"/><g class="cls-4"><polygon class="cls-5" points="-642.32 -256.49 165.78 -356.03 166.44 -52.45 -641.66 47.09 -642.32 -256.49"/><polygon class="cls-6" points="-619.68 -217.09 154.95 -312.51 155.52 -51.11 -619.11 44.31 -619.68 -217.09"/><path class="cls-7" d="M143.9-300.06c0-15.93-12.75-27.25-28.39-25.32l-707.12,87.1c-15.62,1.92-28.27,16.36-28.24,32.3l.44,200.45c0,15.91,12.75,27.26,28.36,25.33L116.07-67.3c15.65-1.93,28.3-16.4,28.27-32.31Z"/><path class="cls-8" d="M130.51-322.87a27.33,27.33,0,0,1,2.36,11.22l.44,200.47c0,15.89-12.59,30.36-28.24,32.29L-602.06,8.22a25.77,25.77,0,0,1-15-2.51c4.36,9.64,14.37,15.54,26,14.11l707.13-87.1c15.64-1.93,28.3-16.41,28.27-32.34L143.91-300C143.89-310.37,138.51-318.77,130.51-322.87Z"/><polygon class="cls-5" points="-231.98 -7.82 576.12 -107.36 576.78 196.22 -231.32 295.76 -231.98 -7.82"/><polygon class="cls-9" points="-209.34 31.58 565.29 -63.84 565.86 197.56 -208.77 292.98 -209.34 31.58"/><path class="cls-7" d="M554.24-51.39c0-15.94-12.75-27.25-28.4-25.32l-707.12,87.1c-15.61,1.92-28.27,16.36-28.23,32.3l.44,200.45c0,15.91,12.74,27.26,28.35,25.33l707.13-87.1c15.64-1.93,28.3-16.4,28.26-32.31Z"/><path class="cls-10" d="M306-49.66q-74.91,43.83-149.28,89C100.7,73.55,45.23,109-10.47,143.84-48.06,167.33-85,191.68-121.41,217.33-145,234-168.76,250.56-192.32,267.39c-9.85-3.31-16.73-12.53-16.76-24.26l-.07-32.26q16.28-11.87,32.63-23.52C-57.14,102.5,69.71,30.47,198.51-36.41ZM136-28.72c-86.71,45-172.47,92.21-255.92,144.93-30,18.92-59.85,38.45-89.35,58.65l-.18-85C-157.32,58.14-105.23,26.1-52.89-5.45Z"/><path class="cls-11" d="M540.85-74.2A27.46,27.46,0,0,1,543.21-63l.43,200.47c0,15.89-12.59,30.36-28.23,32.29l-707.13,87.1a25.66,25.66,0,0,1-15-2.5c4.36,9.64,14.37,15.54,26,14.11l707.13-87.11c15.65-1.92,28.31-16.4,28.27-32.33l-.43-200.43C554.23-61.7,548.85-70.1,540.85-74.2Z"/><polygon class="cls-5" points="576.26 -107.38 1384.36 -206.92 1385.02 96.66 576.92 196.2 576.26 -107.38"/><polygon class="cls-12" points="598.9 -67.98 1373.53 -163.4 1374.1 98 599.47 193.42 598.9 -67.98"/><path class="cls-7" d="M1362.47-150.94c0-15.94-12.74-27.26-28.39-25.33L627-89.17c-15.61,1.92-28.27,16.36-28.23,32.3l.43,200.45c0,15.91,12.75,27.26,28.36,25.33l707.12-87.1c15.65-1.93,28.3-16.4,28.27-32.3Z"/><path class="cls-13" d="M1114.24-149.21q-74.91,43.82-149.28,89C908.94-26,853.46,9.42,797.77,44.28c-37.59,23.5-74.56,47.84-110.94,73.49-23.64,16.69-47.35,33.24-70.91,50.06-9.86-3.31-16.73-12.53-16.76-24.26l-.07-32.26q16.27-11.86,32.63-23.51C751.1,2.94,878-69.09,1006.74-136Zm-170,20.93c-86.71,45-172.47,92.21-255.92,144.93C658.38,35.57,628.51,55.1,599,75.3l-.18-85C650.92-41.42,703-73.46,755.35-105Z"/><path class="cls-14" d="M1349.09-173.76a27.49,27.49,0,0,1,2.36,11.22l.43,200.47c0,15.89-12.59,30.37-28.23,32.29L616.52,157.33a25.74,25.74,0,0,1-15-2.51c4.36,9.64,14.37,15.54,26,14.11l707.13-87.1c15.65-1.93,28.31-16.41,28.27-32.34l-.43-200.43C1362.47-161.26,1357.08-169.66,1349.09-173.76Z"/><polygon class="cls-5" points="1384.49 -206.94 2192.6 -306.48 2193.26 -2.9 1385.15 96.65 1384.49 -206.94"/><polygon class="cls-15" points="1407.14 -167.53 2181.77 -262.95 2182.34 -1.55 1407.71 93.86 1407.14 -167.53"/><path class="cls-7" d="M2170.71-250.5c0-15.94-12.74-27.26-28.39-25.33l-707.12,87.1c-15.61,1.93-28.27,16.37-28.23,32.3L1407.4,44c0,15.9,12.75,27.25,28.36,25.33l707.12-87.11c15.65-1.92,28.3-16.39,28.27-32.3Z"/><path class="cls-16" d="M1922.48-248.77q-74.91,43.82-149.28,89c-56,34.2-111.5,69.62-167.19,104.48-37.59,23.5-74.56,47.84-110.94,73.49-23.64,16.69-47.35,33.24-70.91,50.07C1414.3,65,1407.43,55.74,1407.4,44l-.07-32.26Q1423.61-.12,1440-11.76c119.38-84.85,246.23-156.88,375-223.77Zm-170,20.93c-86.71,45-172.47,92.21-255.92,144.93-30,18.92-59.85,38.46-89.35,58.65l-.18-85c52.09-31.71,104.18-63.74,156.52-95.29Z"/><path class="cls-17" d="M2157.33-273.32a27.49,27.49,0,0,1,2.36,11.22l.43,200.47c0,15.89-12.59,30.37-28.23,32.29L1424.76,57.77a25.74,25.74,0,0,1-15-2.5c4.36,9.63,14.36,15.53,26,14.1l707.13-87.1c15.65-1.93,28.31-16.41,28.27-32.34l-.43-200.43C2170.7-260.82,2165.32-269.22,2157.33-273.32Z"/><polygon class="cls-5" points="-641.01 345.24 167.09 245.7 167.75 549.28 -640.35 648.83 -641.01 345.24"/><polygon class="cls-18" points="-618.37 384.64 156.26 289.23 156.83 550.63 -617.8 646.05 -618.37 384.64"/><path class="cls-7" d="M145.21,301.68c0-15.94-12.75-27.26-28.39-25.33l-707.13,87.1c-15.61,1.93-28.26,16.37-28.23,32.3l.44,200.46c0,15.9,12.74,27.25,28.36,25.33l707.12-87.11c15.64-1.92,28.3-16.39,28.26-32.3Z"/><path class="cls-19" d="M131.82,278.86a27.49,27.49,0,0,1,2.36,11.22l.44,200.47c0,15.89-12.59,30.37-28.24,32.29L-600.75,610a25.76,25.76,0,0,1-15-2.5c4.36,9.63,14.37,15.53,26,14.1l707.14-87.1c15.64-1.93,28.3-16.41,28.27-32.34l-.44-200.43C145.2,291.36,139.82,283,131.82,278.86Z"/><polygon class="cls-5" points="-230.67 593.91 577.43 494.37 578.09 797.95 -230.01 897.5 -230.67 593.91"/><polygon class="cls-20" points="-208.03 633.31 566.6 537.9 567.17 799.3 -207.46 894.72 -208.03 633.31"/><path class="cls-7" d="M555.54,550.35c0-15.94-12.74-27.26-28.39-25.33L-180,612.12c-15.61,1.93-28.27,16.37-28.23,32.3l.43,200.45c0,15.91,12.75,27.26,28.36,25.34L527.71,783.1c15.65-1.92,28.3-16.4,28.27-32.3Z"/><path class="cls-21" d="M307.31,552.08Q232.4,595.9,158,641.09c-56,34.2-111.5,69.62-167.19,104.48-37.59,23.5-74.56,47.84-110.94,73.49-23.64,16.69-47.35,33.24-70.91,50.07-9.86-3.32-16.73-12.54-16.76-24.27l-.07-32.26q16.28-11.86,32.63-23.51C-55.83,704.24,71,632.2,199.81,565.32ZM137.35,573C50.64,618-35.12,665.22-118.57,717.94c-30,18.92-59.85,38.46-89.35,58.65l-.18-85c52.09-31.71,104.18-63.75,156.52-95.3Z"/><path class="cls-22" d="M542.16,527.53a27.49,27.49,0,0,1,2.36,11.22L545,739.22c0,15.89-12.59,30.37-28.23,32.29l-707.13,87.11a25.74,25.74,0,0,1-15-2.5c4.36,9.63,14.36,15.53,26,14.1l707.13-87.1c15.65-1.93,28.31-16.41,28.27-32.34l-.43-200.43C555.53,540,550.15,531.63,542.16,527.53Z"/><polygon class="cls-5" points="167.23 245.68 975.34 146.14 976 449.73 167.89 549.27 167.23 245.68"/><polygon class="cls-23" points="189.87 285.09 964.5 189.67 965.07 451.07 190.44 546.49 189.87 285.09"/><path class="cls-7" d="M953.45,202.12c0-15.94-12.75-27.25-28.39-25.33L217.94,263.9c-15.62,1.92-28.27,16.36-28.24,32.3l.44,200.45c0,15.9,12.74,27.25,28.36,25.33l707.12-87.1c15.65-1.93,28.3-16.4,28.27-32.31Z"/><path class="cls-24" d="M705.22,203.85q-74.93,43.82-149.28,89c-56,34.19-111.5,69.62-167.2,104.48-37.59,23.49-74.56,47.84-110.94,73.48-23.63,16.69-47.34,33.24-70.91,50.07-9.85-3.32-16.73-12.53-16.75-24.27l-.07-32.26q16.27-11.87,32.63-23.51C342.08,356,468.93,284,597.72,217.09Zm-170,20.94c-86.71,45-172.47,92.2-255.92,144.93-30,18.91-59.84,38.45-89.34,58.64l-.19-85c52.09-31.7,104.18-63.74,156.53-95.29Z"/><path class="cls-25" d="M940.06,179.3a27.36,27.36,0,0,1,2.36,11.22L942.86,391c0,15.89-12.59,30.37-28.24,32.3l-707.13,87.1a25.77,25.77,0,0,1-15-2.5c4.36,9.64,14.37,15.53,26,14.1l707.13-87.1c15.64-1.93,28.3-16.41,28.27-32.33l-.44-200.44C953.44,191.8,948.06,183.41,940.06,179.3Z"/><polygon class="cls-5" points="577.57 494.35 1385.67 394.81 1386.33 698.4 578.23 797.94 577.57 494.35"/><polygon class="cls-26" points="600.21 533.76 1374.84 438.34 1375.4 699.74 600.78 795.16 600.21 533.76"/><path class="cls-7" d="M1363.78,450.79c0-15.94-12.74-27.26-28.39-25.33l-707.12,87.1C612.66,514.49,600,528.93,600,544.87l.43,200.45c0,15.9,12.75,27.25,28.36,25.33L1336,683.55c15.65-1.93,28.3-16.4,28.27-32.31Z"/><path class="cls-27" d="M1115.55,452.52q-74.91,43.82-149.28,89c-56,34.19-111.5,69.62-167.19,104.48-37.59,23.49-74.56,47.84-110.94,73.48-23.64,16.69-47.35,33.24-70.91,50.07-9.86-3.32-16.73-12.53-16.76-24.27L600.4,713q16.27-11.87,32.63-23.51c119.38-84.85,246.23-156.88,375-223.77Zm-170,20.93c-86.71,45-172.47,92.21-255.92,144.94-30,18.91-59.85,38.45-89.35,58.64l-.18-85c52.09-31.7,104.18-63.74,156.52-95.29Z"/><path class="cls-28" d="M1350.4,428a27.53,27.53,0,0,1,2.36,11.22l.43,200.47c0,15.89-12.59,30.37-28.23,32.3l-707.13,87.1a25.74,25.74,0,0,1-15-2.5c4.36,9.64,14.36,15.53,26,14.1L1336,683.56c15.64-1.93,28.31-16.41,28.27-32.34l-.43-200.43C1363.77,440.47,1358.39,432.08,1350.4,428Z"/><polygon class="cls-5" points="975.47 146.13 1783.57 46.59 1784.23 350.17 976.13 449.71 975.47 146.13"/><polygon class="cls-29" points="998.11 185.53 1772.74 90.11 1773.31 351.51 998.68 446.93 998.11 185.53"/><path class="cls-7" d="M1761.69,102.56c0-15.94-12.75-27.25-28.39-25.33l-707.13,87.11c-15.61,1.92-28.26,16.36-28.23,32.3l.44,200.45c0,15.91,12.74,27.25,28.36,25.33l707.12-87.1c15.64-1.93,28.3-16.4,28.26-32.31Z"/><path class="cls-30" d="M1513.46,104.29q-74.93,43.81-149.28,89c-56,34.19-111.5,69.62-167.2,104.48-37.59,23.49-74.56,47.84-110.94,73.49-23.64,16.68-47.34,33.23-70.91,50.06-9.85-3.32-16.73-12.53-16.76-24.26l-.07-32.26q16.29-11.86,32.64-23.52c119.38-84.85,246.22-156.88,375-223.77Zm-170,20.94c-86.71,45-172.47,92.21-255.92,144.93q-45,28.38-89.34,58.65l-.19-85c52.09-31.7,104.18-63.74,156.53-95.29Z"/><path class="cls-31" d="M1748.3,79.75A27.46,27.46,0,0,1,1750.66,91l.44,200.46c0,15.89-12.59,30.37-28.24,32.3l-707.13,87.1a25.76,25.76,0,0,1-15-2.5c4.36,9.64,14.37,15.53,26,14.11l707.14-87.11c15.64-1.92,28.3-16.41,28.27-32.33l-.44-200.43C1761.68,92.25,1756.3,83.85,1748.3,79.75Z"/><polygon class="cls-5" points="1385.8 394.8 2193.91 295.25 2194.57 598.84 1386.46 698.38 1385.8 394.8"/><polygon class="cls-32" points="1408.45 434.2 2183.08 338.78 2183.64 600.18 1409.02 695.6 1408.45 434.2"/><path class="cls-7" d="M2172,351.23c0-15.94-12.74-27.25-28.39-25.33L1436.51,413c-15.61,1.92-28.27,16.36-28.23,32.3l.43,200.45c0,15.91,12.75,27.25,28.36,25.33L2144.19,584c15.65-1.93,28.3-16.4,28.27-32.31Z"/><path class="cls-33" d="M1923.79,353q-74.91,43.82-149.28,89c-56,34.19-111.5,69.62-167.19,104.48-37.59,23.49-74.56,47.84-111,73.49-23.63,16.68-47.34,33.23-70.9,50.06-9.86-3.32-16.74-12.53-16.76-24.26l-.07-32.26q16.27-11.87,32.63-23.52c119.38-84.85,246.23-156.88,375-223.77Zm-170,20.94c-86.72,45-172.48,92.2-255.92,144.93-30,18.91-59.85,38.45-89.35,58.65l-.18-85c52.09-31.7,104.17-63.74,156.52-95.29Z"/><path class="cls-34" d="M2158.64,328.41a27.37,27.37,0,0,1,2.35,11.23l.44,200.46c0,15.89-12.59,30.37-28.23,32.3l-707.14,87.1a25.77,25.77,0,0,1-15-2.5c4.37,9.64,14.37,15.53,26,14.11L2144.2,584c15.64-1.93,28.31-16.41,28.27-32.33L2172,351.24C2172,340.91,2166.63,332.52,2158.64,328.41Z"/><polygon class="cls-5" points="1783.72 46.57 2591.82 -52.97 2592.48 250.61 1784.38 350.15 1783.72 46.57"/><polygon class="cls-35" points="1806.36 85.97 2580.99 -9.45 2581.56 251.95 1806.93 347.37 1806.36 85.97"/><path class="cls-7" d="M2569.94,3c0-15.94-12.75-27.25-28.4-25.32l-707.12,87.1c-15.61,1.92-28.27,16.36-28.23,32.3l.44,200.45c0,15.91,12.74,27.25,28.35,25.33l707.13-87.1c15.64-1.93,28.3-16.4,28.26-32.31Z"/><path class="cls-36" d="M2321.7,4.73q-74.91,43.82-149.28,89c-56,34.19-111.49,69.62-167.19,104.48-37.59,23.49-74.56,47.84-110.94,73.49-23.64,16.68-47.35,33.23-70.91,50.06-9.86-3.32-16.73-12.53-16.76-24.26l-.07-32.26q16.28-11.86,32.63-23.52c119.38-84.85,246.23-156.88,375-223.77Zm-170,20.94c-86.71,45-172.47,92.21-255.92,144.93-30,18.92-59.85,38.45-89.35,58.65l-.18-85c52.09-31.7,104.18-63.74,156.52-95.29Z"/><path class="cls-37" d="M2556.55-19.81a27.46,27.46,0,0,1,2.36,11.22l.43,200.47c0,15.88-12.59,30.36-28.23,32.29L1824,311.27a25.74,25.74,0,0,1-15-2.5c4.36,9.64,14.37,15.54,26,14.11l707.13-87.11c15.65-1.92,28.31-16.41,28.27-32.33L2570,3C2569.93-7.31,2564.55-15.71,2556.55-19.81Z"/><polygon class="cls-5" points="2194.04 295.24 3002.15 195.7 3002.81 499.28 2194.7 598.82 2194.04 295.24"/><polygon class="cls-38" points="2216.68 334.64 2991.31 239.22 2991.88 500.62 2217.25 596.04 2216.68 334.64"/><path class="cls-7" d="M2980.26,251.67c0-15.94-12.74-27.25-28.39-25.32l-707.12,87.1c-15.62,1.92-28.27,16.36-28.24,32.3L2217,546.2c0,15.91,12.75,27.25,28.36,25.33l707.12-87.1c15.65-1.93,28.3-16.4,28.27-32.31Z"/><path class="cls-39" d="M2732,253.4q-74.91,43.82-149.28,89c-56,34.19-111.5,69.62-167.19,104.48-37.6,23.49-74.56,47.84-110.95,73.49-23.63,16.69-47.34,33.23-70.9,50.06-9.86-3.31-16.74-12.53-16.76-24.26l-.07-32.26q16.27-11.86,32.63-23.52c119.38-84.85,246.23-156.88,375-223.77Zm-170,20.94c-86.71,45-172.47,92.21-255.92,144.93-30,18.92-59.84,38.45-89.34,58.65l-.19-85c52.09-31.7,104.18-63.74,156.53-95.29Z"/><path class="cls-40" d="M2966.87,228.86a27.3,27.3,0,0,1,2.36,11.22l.44,200.47c0,15.88-12.59,30.36-28.24,32.29l-707.13,87.1a25.77,25.77,0,0,1-15-2.5c4.36,9.64,14.37,15.54,26,14.11l707.13-87.11c15.64-1.92,28.3-16.41,28.27-32.33l-.44-200.43C2980.25,241.36,2974.87,233,2966.87,228.86Z"/><polygon class="cls-5" points="2591.96 -52.99 3400.06 -152.53 3400.72 151.05 2592.62 250.59 2591.96 -52.99"/><polygon class="cls-41" points="2614.6 -13.59 3389.23 -109.01 3389.8 152.39 2615.17 247.81 2614.6 -13.59"/><path class="cls-7" d="M3378.17-96.56c0-15.94-12.74-27.25-28.39-25.32l-707.12,87.1c-15.61,1.92-28.27,16.36-28.23,32.3l.43,200.45c0,15.91,12.75,27.26,28.36,25.33l707.12-87.1c15.65-1.93,28.3-16.4,28.27-32.31Z"/><path class="cls-42" d="M3129.94-94.83Q3055-51,2980.66-5.81c-56,34.19-111.5,69.62-167.19,104.48-37.59,23.5-74.56,47.84-110.94,73.49-23.64,16.69-47.35,33.24-70.91,50.06-9.86-3.31-16.73-12.53-16.76-24.26l-.07-32.26q16.27-11.87,32.63-23.52c119.38-84.85,246.23-156.88,375-223.76ZM2960-73.89c-86.71,45-172.47,92.21-255.92,144.93-30,18.92-59.85,38.45-89.35,58.65l-.18-85c52.09-31.71,104.18-63.75,156.52-95.3Z"/><path class="cls-43" d="M3364.79-119.37a27.49,27.49,0,0,1,2.36,11.22l.43,200.47c0,15.89-12.59,30.36-28.23,32.29l-707.13,87.1a25.66,25.66,0,0,1-15-2.5c4.36,9.64,14.36,15.54,26,14.11l707.13-87.1c15.65-1.93,28.31-16.41,28.27-32.34l-.43-200.43C3378.16-106.87,3372.78-115.27,3364.79-119.37Z"/><polygon class="cls-5" points="3002.28 195.68 3810.38 96.14 3811.05 399.72 3002.94 499.26 3002.28 195.68"/><polygon class="cls-44" points="3024.92 235.08 3799.55 139.66 3800.12 401.06 3025.49 496.48 3024.92 235.08"/><path class="cls-7" d="M3788.5,152.11c0-15.93-12.75-27.25-28.39-25.32L3053,213.89c-15.62,1.92-28.27,16.36-28.24,32.3l.44,200.45c0,15.91,12.74,27.26,28.36,25.33l707.12-87.1c15.65-1.93,28.3-16.4,28.26-32.3Z"/><path class="cls-45" d="M3540.27,153.84q-74.92,43.83-149.28,89c-56,34.2-111.5,69.62-167.2,104.48-37.59,23.5-74.56,47.84-110.94,73.49-23.63,16.69-47.34,33.24-70.91,50.06-9.85-3.31-16.73-12.53-16.75-24.26l-.07-32.26q16.27-11.87,32.63-23.52C3177.13,306,3304,234,3432.77,167.09Zm-170,20.94c-86.71,45-172.47,92.21-255.92,144.93-30,18.92-59.84,38.45-89.34,58.65l-.19-85c52.09-31.71,104.18-63.75,156.53-95.3Z"/><path class="cls-46" d="M3775.11,129.3a27.33,27.33,0,0,1,2.36,11.22l.44,200.47c0,15.89-12.59,30.36-28.24,32.29l-707.13,87.11a25.76,25.76,0,0,1-15-2.51c4.36,9.64,14.37,15.54,26,14.11l707.13-87.1c15.64-1.93,28.3-16.41,28.27-32.34l-.44-200.43C3788.49,141.8,3783.11,133.4,3775.11,129.3Z"/><polygon class="cls-5" points="3400.2 -152.55 4208.3 -252.09 4208.96 51.49 3400.86 151.03 3400.2 -152.55"/><polygon class="cls-47" points="3422.84 -113.15 4197.47 -208.56 4198.03 52.84 3423.41 148.25 3422.84 -113.15"/><path class="cls-7" d="M4186.41-196.11c0-15.94-12.74-27.26-28.39-25.33l-707.12,87.1c-15.61,1.92-28.27,16.36-28.23,32.3l.43,200.45c0,15.91,12.75,27.26,28.36,25.33l707.12-87.1c15.65-1.92,28.3-16.4,28.27-32.3Z"/><path class="cls-48" d="M3938.18-194.38q-74.91,43.82-149.28,89c-56,34.2-111.5,69.62-167.19,104.48-37.59,23.5-74.56,47.84-110.94,73.49-23.64,16.69-47.35,33.24-70.91,50.07-9.86-3.32-16.74-12.54-16.76-24.27L3423,66.14q16.28-11.87,32.63-23.51c119.38-84.85,246.23-156.89,375-223.77Zm-170,20.93c-86.72,45-172.47,92.21-255.92,144.93-30,18.92-59.85,38.46-89.35,58.65l-.18-85c52.09-31.71,104.18-63.75,156.52-95.3Z"/><path class="cls-49" d="M4173-218.93a27.49,27.49,0,0,1,2.36,11.22l.43,200.47c0,15.89-12.59,30.37-28.23,32.29l-707.14,87.11a25.69,25.69,0,0,1-15-2.51c4.37,9.64,14.37,15.54,26,14.11l707.13-87.1c15.64-1.93,28.31-16.41,28.27-32.34l-.43-200.43C4186.4-206.43,4181-214.83,4173-218.93Z"/><polygon class="cls-5" points="3810.52 96.12 4618.62 -3.42 4619.28 300.16 3811.18 399.7 3810.52 96.12"/><polygon class="cls-50" points="3833.16 135.52 4607.79 40.11 4608.36 301.51 3833.73 396.93 3833.16 135.52"/><path class="cls-7" d="M4596.74,52.56c0-15.94-12.75-27.26-28.39-25.33l-707.13,87.1c-15.61,1.93-28.26,16.36-28.23,32.3l.44,200.45c0,15.91,12.74,27.26,28.35,25.34l707.13-87.11c15.64-1.92,28.3-16.4,28.26-32.3Z"/><path class="cls-51" d="M4348.51,54.29q-74.92,43.81-149.28,89c-56,34.2-111.5,69.62-167.2,104.48-37.59,23.5-74.56,47.84-110.94,73.49-23.64,16.69-47.34,33.24-70.91,50.07-9.85-3.32-16.73-12.54-16.76-24.27l-.07-32.26q16.29-11.87,32.63-23.51c119.38-84.85,246.23-156.89,375-223.77Zm-170,20.93c-86.71,45-172.47,92.21-255.92,144.93q-45,28.38-89.34,58.65l-.19-85c52.09-31.71,104.18-63.75,156.53-95.3Z"/><path class="cls-52" d="M4583.35,29.74A27.49,27.49,0,0,1,4585.71,41l.44,200.47c0,15.89-12.59,30.37-28.24,32.29l-707.13,87.11a25.76,25.76,0,0,1-15-2.5c4.36,9.63,14.37,15.53,26,14.1l707.14-87.1c15.64-1.93,28.3-16.41,28.27-32.34l-.44-200.43C4596.73,42.24,4591.35,33.84,4583.35,29.74Z"/><polygon class="cls-5" points="-639.7 946.98 168.4 847.43 169.06 1151.02 -639.04 1250.56 -639.7 946.98"/><polygon class="cls-53" points="-617.06 986.38 157.57 890.96 158.14 1152.36 -616.49 1247.78 -617.06 986.38"/><path class="cls-7" d="M146.52,903.41c0-15.94-12.75-27.25-28.39-25.33L-589,965.19c-15.61,1.92-28.26,16.36-28.23,32.3l.44,200.45c0,15.91,12.74,27.25,28.35,25.33l707.13-87.1c15.64-1.93,28.3-16.4,28.26-32.31Z"/><path class="cls-54" d="M133.13,880.6a27.46,27.46,0,0,1,2.36,11.22l.44,200.46c0,15.89-12.6,30.37-28.24,32.3l-707.13,87.1a25.74,25.74,0,0,1-15-2.5c4.36,9.64,14.37,15.53,26,14.11l707.14-87.11c15.64-1.92,28.3-16.41,28.27-32.33l-.44-200.43C146.51,893.1,141.13,884.7,133.13,880.6Z"/><polygon class="cls-5" points="-229.37 1195.64 578.74 1096.1 579.4 1399.69 -228.71 1499.23 -229.37 1195.64"/><polygon class="cls-55" points="-206.72 1235.05 567.91 1139.63 568.48 1401.03 -206.15 1496.45 -206.72 1235.05"/><path class="cls-7" d="M556.85,1152.08c0-15.94-12.74-27.25-28.39-25.33l-707.12,87.11c-15.61,1.92-28.27,16.36-28.23,32.3l.43,200.45c0,15.91,12.75,27.25,28.36,25.33L529,1384.84c15.65-1.93,28.3-16.4,28.27-32.31Z"/><path class="cls-56" d="M308.62,1153.81q-74.91,43.82-149.28,89c-56,34.19-111.5,69.62-167.19,104.48-37.59,23.49-74.56,47.84-110.94,73.49-23.64,16.68-47.35,33.23-70.91,50.06-9.86-3.32-16.74-12.53-16.76-24.26l-.07-32.26q16.28-11.86,32.63-23.52c119.38-84.85,246.23-156.88,375-223.77Zm-170,20.94c-86.72,45-172.47,92.2-255.92,144.93-30,18.91-59.85,38.45-89.35,58.64l-.18-85c52.09-31.7,104.18-63.74,156.52-95.29Z"/><path class="cls-57" d="M543.47,1129.26a27.54,27.54,0,0,1,2.36,11.23l.43,200.46c0,15.89-12.59,30.37-28.23,32.3l-707.14,87.1a25.77,25.77,0,0,1-15-2.5c4.37,9.64,14.37,15.53,26,14.11L529,1384.85c15.64-1.93,28.31-16.41,28.27-32.33l-.43-200.44C556.84,1141.76,551.46,1133.37,543.47,1129.26Z"/><polygon class="cls-5" points="168.54 847.42 976.64 747.88 977.3 1051.46 169.2 1151 168.54 847.42"/><polygon class="cls-58" points="191.18 886.82 965.81 791.4 966.38 1052.8 191.75 1148.22 191.18 886.82"/><path class="cls-7" d="M954.76,803.85c0-15.94-12.75-27.25-28.39-25.32l-707.13,87.1C203.63,867.55,191,882,191,897.93l.44,200.45c0,15.91,12.74,27.25,28.36,25.33l707.12-87.1c15.64-1.93,28.3-16.4,28.26-32.31Z"/><path class="cls-59" d="M706.53,805.58q-74.92,43.83-149.28,89c-56,34.19-111.5,69.62-167.2,104.48-37.59,23.49-74.56,47.84-110.94,73.49-23.64,16.69-47.34,33.23-70.91,50.06-9.85-3.31-16.73-12.53-16.76-24.26l-.07-32.26q16.29-11.86,32.64-23.52c119.37-84.85,246.22-156.88,375-223.77Zm-170,20.94c-86.71,45-172.47,92.21-255.92,144.93q-45,28.38-89.34,58.65l-.19-85c52.09-31.7,104.18-63.74,156.53-95.29Z"/><path class="cls-60" d="M941.37,781a27.46,27.46,0,0,1,2.36,11.22l.44,200.47c0,15.89-12.59,30.36-28.24,32.29l-707.13,87.1a25.76,25.76,0,0,1-15-2.5c4.36,9.64,14.37,15.54,26,14.11l707.14-87.11c15.64-1.92,28.3-16.41,28.27-32.33l-.44-200.43C954.75,793.54,949.37,785.14,941.37,781Z"/><polygon class="cls-5" points="578.87 1096.09 1386.98 996.55 1387.64 1300.13 579.53 1399.67 578.87 1096.09"/><polygon class="cls-61" points="601.52 1135.49 1376.14 1040.07 1376.71 1301.47 602.08 1396.89 601.52 1135.49"/><path class="cls-7" d="M1365.09,1052.52c0-15.94-12.74-27.25-28.39-25.32l-707.12,87.1c-15.61,1.92-28.27,16.36-28.23,32.3l.43,200.45c0,15.91,12.75,27.25,28.36,25.33l707.12-87.1c15.65-1.93,28.3-16.4,28.27-32.31Z"/><path class="cls-62" d="M1116.86,1054.25q-74.91,43.82-149.28,89c-56,34.19-111.5,69.62-167.19,104.48-37.59,23.49-74.56,47.84-110.95,73.49-23.63,16.68-47.34,33.23-70.9,50.06-9.86-3.32-16.74-12.53-16.76-24.26l-.07-32.26q16.27-11.87,32.63-23.52c119.38-84.85,246.23-156.88,375-223.77Zm-170,20.94c-86.72,45-172.48,92.21-255.92,144.93-30,18.92-59.85,38.45-89.35,58.65l-.19-85c52.1-31.7,104.18-63.74,156.53-95.29Z"/><path class="cls-63" d="M1351.71,1029.71a27.29,27.29,0,0,1,2.35,11.22l.44,200.47c0,15.88-12.59,30.36-28.23,32.29l-707.14,87.1a25.77,25.77,0,0,1-15-2.5c4.37,9.64,14.37,15.54,26,14.11l707.13-87.11c15.64-1.92,28.31-16.41,28.27-32.33l-.44-200.43C1365.08,1042.21,1359.7,1033.81,1351.71,1029.71Z"/><polygon class="cls-5" points="976.78 747.86 1784.88 648.32 1785.54 951.9 977.44 1051.44 976.78 747.86"/><polygon class="cls-64" points="999.42 787.26 1774.05 691.84 1774.62 953.25 999.99 1048.66 999.42 787.26"/><path class="cls-7" d="M1763,704.29c0-15.93-12.75-27.25-28.4-25.32l-707.12,87.1c-15.61,1.92-28.26,16.36-28.23,32.3l.44,200.45c0,15.91,12.74,27.26,28.35,25.33l707.13-87.1c15.64-1.93,28.3-16.4,28.26-32.3Z"/><path class="cls-65" d="M1514.77,706q-74.93,43.83-149.29,89c-56,34.2-111.49,69.62-167.19,104.48-37.59,23.5-74.56,47.84-110.94,73.49-23.64,16.69-47.35,33.24-70.91,50.06-9.85-3.31-16.73-12.53-16.76-24.26l-.07-32.26q16.29-11.87,32.63-23.51c119.38-84.86,246.23-156.89,375-223.77ZM1344.8,727c-86.71,45-172.47,92.21-255.92,144.93q-45,28.38-89.35,58.65l-.18-85c52.09-31.71,104.18-63.75,156.53-95.3Z"/><path class="cls-66" d="M1749.61,681.48A27.49,27.49,0,0,1,1752,692.7l.43,200.47c0,15.89-12.59,30.36-28.23,32.29L1017,1012.57a25.74,25.74,0,0,1-15-2.51c4.36,9.64,14.37,15.54,26,14.11l707.13-87.1c15.65-1.93,28.31-16.41,28.28-32.34L1763,704.3C1763,694,1757.61,685.58,1749.61,681.48Z"/><polygon class="cls-5" points="1387.11 996.53 2195.22 896.99 2195.88 1200.57 1387.77 1300.11 1387.11 996.53"/><polygon class="cls-67" points="1409.76 1035.93 2184.38 940.51 2184.95 1201.91 1410.32 1297.33 1409.76 1035.93"/><path class="cls-7" d="M2173.33,953c0-15.94-12.74-27.25-28.39-25.32l-707.12,87.1c-15.62,1.92-28.27,16.36-28.24,32.3l.44,200.45c0,15.91,12.75,27.26,28.36,25.33l707.12-87.1c15.65-1.93,28.3-16.4,28.27-32.31Z"/><path class="cls-68" d="M1925.1,954.69q-74.91,43.83-149.28,89c-56,34.19-111.5,69.62-167.19,104.48-37.6,23.49-74.56,47.84-111,73.49-23.63,16.69-47.34,33.24-70.9,50.06-9.86-3.31-16.74-12.53-16.76-24.26l-.07-32.26q16.27-11.87,32.63-23.52c119.38-84.85,246.23-156.88,375-223.76Zm-170,20.94c-86.71,45-172.47,92.21-255.92,144.93-30,18.92-59.84,38.45-89.34,58.65l-.19-85c52.09-31.71,104.18-63.75,156.53-95.3Z"/><path class="cls-69" d="M2159.94,930.15a27.33,27.33,0,0,1,2.36,11.22l.44,200.47c0,15.89-12.59,30.36-28.24,32.29l-707.13,87.1a25.69,25.69,0,0,1-15-2.5c4.36,9.64,14.37,15.54,26,14.11l707.13-87.1c15.64-1.93,28.3-16.41,28.27-32.34L2173.34,953C2173.32,942.65,2167.94,934.25,2159.94,930.15Z"/><polygon class="cls-5" points="1785.03 648.3 2593.13 548.76 2593.79 852.34 1785.69 951.88 1785.03 648.3"/><polygon class="cls-70" points="1807.67 687.7 2582.3 592.28 2582.87 853.69 1808.24 949.1 1807.67 687.7"/><path class="cls-7" d="M2571.24,604.74c0-15.94-12.74-27.26-28.39-25.33l-707.12,87.1c-15.61,1.92-28.27,16.36-28.23,32.3l.43,200.45c0,15.91,12.75,27.26,28.36,25.33l707.12-87.1c15.65-1.93,28.3-16.4,28.27-32.3Z"/><path class="cls-71" d="M2323,606.47q-74.91,43.81-149.28,89c-56,34.2-111.5,69.62-167.19,104.48C1969,823.46,1932,847.8,1895.6,873.45c-23.64,16.69-47.35,33.24-70.91,50.06-9.86-3.31-16.73-12.53-16.76-24.26l-.07-32.26q16.28-11.87,32.63-23.51c119.38-84.85,246.23-156.89,375-223.77Zm-170,20.93c-86.71,45-172.47,92.21-255.92,144.93-30,18.92-59.85,38.45-89.35,58.65l-.18-85c52.09-31.71,104.18-63.75,156.52-95.3Z"/><path class="cls-72" d="M2557.86,581.92a27.49,27.49,0,0,1,2.36,11.22l.43,200.47c0,15.89-12.59,30.37-28.23,32.29L1825.29,913a25.74,25.74,0,0,1-15-2.51c4.36,9.64,14.36,15.54,26,14.11l707.13-87.1c15.65-1.93,28.31-16.41,28.27-32.34l-.43-200.43C2571.23,594.42,2565.85,586,2557.86,581.92Z"/><polygon class="cls-5" points="2195.35 896.97 3003.45 797.43 3004.11 1101.01 2196.01 1200.55 2195.35 896.97"/><polygon class="cls-73" points="2217.99 936.37 2992.62 840.96 2993.19 1102.36 2218.56 1197.77 2217.99 936.37"/><path class="cls-7" d="M2981.57,853.41c0-15.94-12.75-27.26-28.39-25.33l-707.13,87.1c-15.61,1.92-28.26,16.36-28.23,32.3l.44,200.45c0,15.91,12.74,27.26,28.36,25.33l707.12-87.1c15.64-1.92,28.3-16.4,28.26-32.3Z"/><path class="cls-74" d="M2733.34,855.14q-74.93,43.82-149.28,89c-56,34.2-111.5,69.62-167.2,104.48-37.59,23.5-74.56,47.84-110.94,73.49-23.63,16.69-47.34,33.24-70.91,50.07-9.85-3.32-16.73-12.54-16.75-24.27l-.07-32.26q16.28-11.87,32.63-23.51c119.38-84.85,246.23-156.89,375-223.77Zm-170,20.93c-86.71,45-172.47,92.21-255.92,144.93q-45,28.38-89.34,58.65l-.19-85c52.09-31.71,104.18-63.75,156.53-95.3Z"/><path class="cls-75" d="M2968.18,830.59a27.33,27.33,0,0,1,2.36,11.22l.44,200.47c0,15.89-12.59,30.37-28.24,32.29l-707.13,87.11a25.68,25.68,0,0,1-15-2.51c4.36,9.64,14.37,15.54,26,14.11l707.13-87.1c15.64-1.93,28.3-16.41,28.27-32.34l-.44-200.43C2981.56,843.09,2976.18,834.69,2968.18,830.59Z"/><polygon class="cls-5" points="2593.26 548.74 3401.37 449.2 3402.03 752.78 2593.93 852.33 2593.26 548.74"/><polygon class="cls-76" points="2615.91 588.14 3390.54 492.73 3391.11 754.13 2616.47 849.55 2615.91 588.14"/><path class="cls-7" d="M3379.48,505.18c0-15.94-12.74-27.26-28.39-25.33L2644,567c-15.61,1.93-28.27,16.37-28.23,32.3l.43,200.46c0,15.9,12.75,27.25,28.36,25.33l707.12-87.11c15.65-1.92,28.3-16.39,28.27-32.3Z"/><path class="cls-77" d="M3131.25,506.91q-74.91,43.82-149.28,89c-56,34.2-111.5,69.62-167.19,104.48-37.59,23.5-74.56,47.84-110.94,73.49-23.64,16.69-47.35,33.24-70.91,50.07-9.86-3.32-16.74-12.54-16.76-24.27l-.07-32.26q16.28-11.86,32.63-23.51c119.38-84.85,246.23-156.88,375-223.77Zm-170,20.93c-86.72,45-172.47,92.21-255.92,144.93-30,18.92-59.85,38.46-89.35,58.65l-.18-85c52.09-31.71,104.18-63.74,156.52-95.29Z"/><path class="cls-78" d="M3366.1,482.36a27.33,27.33,0,0,1,2.35,11.22l.44,200.47c0,15.89-12.59,30.37-28.23,32.29l-707.14,87.11a25.77,25.77,0,0,1-15-2.5c4.37,9.63,14.37,15.53,26,14.1L3351.66,738c15.64-1.93,28.31-16.41,28.27-32.34l-.43-200.43C3379.47,494.86,3374.09,486.46,3366.1,482.36Z"/><polygon class="cls-5" points="3003.59 797.41 3811.69 697.87 3812.35 1001.46 3004.25 1101 3003.59 797.41"/><polygon class="cls-79" points="3026.23 836.82 3800.86 741.4 3801.43 1002.8 3026.8 1098.22 3026.23 836.82"/><path class="cls-7" d="M3789.81,753.85c0-15.94-12.75-27.26-28.39-25.33l-707.13,87.1c-15.61,1.93-28.26,16.37-28.23,32.31l.44,200.45c0,15.9,12.74,27.25,28.35,25.33L3762,986.6c15.64-1.92,28.3-16.39,28.26-32.3Z"/><path class="cls-80" d="M3541.58,755.58q-74.92,43.81-149.28,89c-56,34.2-111.5,69.63-167.2,104.48-37.59,23.5-74.56,47.84-110.94,73.49-23.64,16.69-47.34,33.24-70.91,50.07-9.85-3.32-16.73-12.54-16.76-24.27l-.07-32.26q16.29-11.86,32.63-23.51c119.38-84.85,246.23-156.88,375-223.77Zm-170,20.93c-86.71,45-172.47,92.21-255.92,144.93q-45,28.38-89.34,58.65l-.19-85c52.09-31.71,104.18-63.74,156.53-95.29Z"/><path class="cls-81" d="M3776.42,731a27.49,27.49,0,0,1,2.36,11.22l.44,200.47c0,15.89-12.59,30.37-28.24,32.29l-707.13,87.11a25.76,25.76,0,0,1-15-2.5c4.36,9.63,14.37,15.53,26,14.1L3762,986.62c15.64-1.93,28.3-16.41,28.27-32.34l-.44-200.43C3789.8,743.53,3784.42,735.13,3776.42,731Z"/><polygon class="cls-5" points="3401.5 449.18 4209.61 349.64 4210.27 653.23 3402.16 752.77 3401.5 449.18"/><polygon class="cls-82" points="3424.15 488.59 4198.77 393.17 4199.34 654.57 3424.71 749.99 3424.15 488.59"/><path class="cls-7" d="M4187.72,405.62c0-15.94-12.74-27.25-28.39-25.33L3452.21,467.4c-15.61,1.92-28.27,16.36-28.23,32.3l.43,200.45c0,15.9,12.75,27.25,28.36,25.33l707.12-87.1c15.65-1.93,28.3-16.4,28.27-32.31Z"/><path class="cls-83" d="M3939.49,407.35q-74.91,43.81-149.28,89c-56,34.19-111.5,69.62-167.19,104.48-37.59,23.49-74.56,47.84-110.95,73.48-23.63,16.69-47.34,33.24-70.9,50.07-9.86-3.32-16.74-12.53-16.76-24.27l-.07-32.26Q3440.62,656,3457,644.36c119.38-84.85,246.23-156.88,375-223.77Zm-170,20.94c-86.72,45-172.48,92.2-255.92,144.93-30,18.91-59.85,38.45-89.35,58.64l-.19-85c52.09-31.7,104.18-63.74,156.53-95.29Z"/><path class="cls-84" d="M4174.33,382.8a27.36,27.36,0,0,1,2.36,11.22l.44,200.47c0,15.89-12.59,30.37-28.23,32.3l-707.14,87.1a25.77,25.77,0,0,1-15-2.5c4.37,9.64,14.37,15.53,26,14.1l707.13-87.1c15.64-1.93,28.3-16.41,28.27-32.33l-.44-200.44C4187.71,395.3,4182.33,386.91,4174.33,382.8Z"/><polygon class="cls-5" points="3811.83 697.86 4619.93 598.31 4620.59 901.9 3812.49 1001.44 3811.83 697.86"/><polygon class="cls-85" points="3834.47 737.26 4609.1 641.84 4609.67 903.24 3835.04 998.66 3834.47 737.26"/><path class="cls-7" d="M4598.05,654.29c0-15.94-12.75-27.25-28.4-25.33l-707.12,87.11c-15.61,1.92-28.26,16.36-28.23,32.3l.44,200.45c0,15.91,12.74,27.25,28.35,25.33l707.13-87.1c15.64-1.93,28.3-16.4,28.26-32.31Z"/><path class="cls-86" d="M4349.81,656q-74.91,43.82-149.28,89c-56,34.19-111.49,69.62-167.19,104.48C3995.75,873,3958.78,897.36,3922.4,923c-23.64,16.69-47.35,33.24-70.91,50.07-9.85-3.32-16.73-12.53-16.76-24.26l-.07-32.27q16.28-11.85,32.63-23.51c119.38-84.85,246.23-156.88,375-223.77Zm-170,20.94c-86.71,45-172.47,92.2-255.92,144.93-30,18.91-59.85,38.45-89.35,58.64l-.18-85c52.09-31.7,104.18-63.74,156.53-95.29Z"/><path class="cls-87" d="M4584.66,631.47a27.53,27.53,0,0,1,2.36,11.22l.43,200.47c0,15.89-12.59,30.37-28.23,32.3l-707.13,87.1a25.74,25.74,0,0,1-15-2.5c4.36,9.64,14.37,15.53,26,14.1l707.13-87.1c15.65-1.93,28.31-16.41,28.28-32.33l-.44-200.44C4598,644,4592.66,635.58,4584.66,631.47Z"/><path class="cls-88" d="M2854.19,1463.62c-214.82,9.66-389.78,192.47-534.38,345.71-27,28.61-195.38,109.2-105.68,165,102.82,64,407.41,17.92,524.89-20.48,100.39-32.81,191.45-85.24,296-104.86,230.13-43.23,322.86,53.22,517.17,81,62.73,9,123-50.06,188-45.23,46.14,3.45,80.55,96.16,185.3,86.48,117.26-10.85,517.15-53.57,608.88-109.15,30.55-18.5,61.87-61,86.89-87.62,19.71-21,150.9-138.25,141.26-162.27C4710.89,1483.55,4500,1449.8,4393,1442.52c-151.85-10.33-299.74-73.53-450.91-92-160.92-19.69-323,3.58-484,5.23"/><path class="cls-89" d="M2901,1282c1.64.26,3.31.48,5,.67,48.61,5.52,102.89,5.11,150.23,17.65,79.53,21.06,158.89,42.17,240.11,56.68,28.84,5.15,111.05,37.62,139.13,34.48,48.7-5.44,95.09-35.75,140.55-51,12.63-4.23,131.24-41.38,135.75-46.58,4.26-4.91-24.9-25.85-28.07-28.21l-1.32-1-59.43-26.19c-129.21-32.23-367-27.29-495.43-.94C3051.51,1253.23,2976,1264.68,2901,1282Z"/><path class="cls-90" d="M2784.61,1312.73c-9.39,4-17.94,9.62-27.39,13.81-27.66,12.29-56.82,13.56-83.83,25.09-3.31,1.41-20.76,11-20.63,15.84.26,9.46,46.22,29.32,55.77,33.26,60.84,25.12,112.48,66,170.28,96.55,79.18,41.9,123.12,30.72,207.43,42.23,40.11,5.48,84.09,10.87,123,22.26,26.72,7.84,51.83,20.32,79.68,24.3,49.74,7.07,321.51-15.73,371.76-15.73,28.7,0,57.65,4.64,86.35,2.5,18.9-1.42,37.9-9.93,55-17.61,9.06-4.07,18.36-7.56,27.38-11.67,6.06-2.76,12.63-4.76,18.32-8.25,5.47-3.34,7.72-8.18,9.33-14.19,9.5-35.57-34-33.7-57.85-45-45.24-21.47-89.36-39-137.75-51.95"/><path class="cls-89" d="M3143.85,1374.18c-17.62-7.21,47.1,10.32,55.15,11.06,45.24,4.21,89.89,11.34,134.25,20,5,1,55.29,11.7,53.67,20.53-2.73,14.89-52.7,25.7-64.82,27.92-11.59,2.13-24.14,11.89-35.71,11.8-26.91-.22-96.34-25.3-125.64-33.38a399.17,399.17,0,0,1-43.31-14.75c-1.74-.7-14.83-5.38-14.8-7,0-6.32,8.39-12.33,12.3-17"/><path class="cls-91" d="M2651.78,1363c171.48,37.17,336.87,100,507.58,141,37.26,9,197.31,67.64,213,66.36,40.89-3.34,413.72-41.71,402.58-162.29,8.37,23,15.51,46.68,21.87,71.18,9.3,35.8,15.45,70.66,15.45,107.51,0,46.71,7.79,120.51-25.11,160.67-2.71,3.31-208.74,54-219.21,57-45.28,13-134.48,50.3-179.51,47-49.07-3.6-109.52-41-155.65-57.72-101.87-36.89-214.29-55.22-318.75-86.72-88.11-26.58-212.78-33.17-285.27-89.8-24.83-19.39,4.59-70.67,4.6-98.31C2633.36,1433.9,2619.81,1389,2651.78,1363Z"/><path class="cls-90" d="M2624,1562.16c7.92,11.81,20.65,12.48,24.08-12.55a30.33,30.33,0,0,0-.2-10c-5.75-32.93-6-80.23,2.66-112.51.27-1,3.7-11.77,3.83-11.68,3.12,2.25,4.65,5.67,5.93,9.24,5.54,15.4,12.14,32.54,19.91,46.93s58.72,51.14,50.15,69.65c-8.93,19.28-74.16,52.76-69.07,60.1,28.32,40.79,111.85,41,153.4,55.78,35.94,12.77,72.63,17.76,109.2,28.58,45.16,13.36,88.48,32.6,133.45,46.49,44.72,13.78,92.1,19,137.49,30.22,13.47,3.34,155.81,30.58,171.62,25.5,17.43-5.62,1.41-92.06,1.36-108.78,0-11.57-1.36-24.08,0-35.56.13-1,.07-3.59.82-2.92,15.83,13.73,8.73,92.32,13.31,116.76,1.06,5.5,16,56.13,26.33,43.17,20-25-14.36-122.31-7.19-161.39,1.41-7.74,3.09-47.62,10.34-50.32,2.36-.89,78.42-.27,88.32-.84,23.24-1.4,40.72-17,65.24-17,4.54,0,45.37-.16,45.41,6,.38,36.42-39.7,81.68-56.52,112.6-1.33,2.47-9.57,13.4-4.19,15.28,35.58,12.39,140.48-68,181.38-81.9,21.41-7.26,57.54-20.11,69.38,8.12,5.67,13.51,8.88,27.64,11.38,42-2.43,28-8.84,55-24.61,74.22-2.71,3.32-208.74,54-219.21,57.05-45.29,13-134.49,50.29-179.51,47-49.05-3.58-109.51-41-155.65-57.7-101.86-36.89-214.3-55.23-318.75-86.73-88.11-26.58-212.78-33.17-285.27-89.8C2614.36,1605.93,2618.19,1584,2624,1562.16Z"/><path class="cls-92" d="M3689.59,926.57c-140.28-32.23-398.49-27.29-537.89-.94-105.68,20-210.56,33.16-314.64,60.68-192.51,50.91-249.61,39.81-249.63,217.36,0,27.65-4.17,82.09,22.79,101.48,78.7,56.63,214.07,63.22,309.73,89.79,113.41,31.5,235.46,49.84,346.07,86.73,50.09,16.71,115.72,54.12,169,57.72,48.89,3.3,145.73-34,194.89-47,11.37-3,235.06-53.72,238-57,35.73-40.16,27.27-114,27.27-160.67,0-36.85-6.68-71.71-16.77-107.51-21.09-74.79-50.07-142-100.91-205"/><path class="cls-89" d="M2905.79,970c1.78.26,3.59.48,5.4.67,52.77,5.52,111.7,5.11,163.1,17.65,86.35,21,172.52,42.17,260.7,56.68,31.31,5.15,120.57,37.62,151.05,34.48,52.88-5.45,103.24-35.75,152.61-51,13.71-4.23,142.49-41.38,147.38-46.58,4.62-4.91-27-25.85-30.48-28.22l-1.43-1-64.53-26.18c-140.28-32.23-398.49-27.29-537.89-.94C3069.22,941.21,2987.27,952.67,2905.79,970Z"/><path class="cls-93" d="M3169.48,1062.17c-19.14-7.21,51.14,10.32,59.88,11.06,49.11,4.21,97.59,11.34,145.75,19.94,5.4,1,60,11.71,58.28,20.54-3,14.89-57.22,25.7-70.38,27.92-12.58,2.13-26.21,11.89-38.77,11.8-29.22-.23-104.6-25.3-136.41-33.38a459.34,459.34,0,0,1-47-14.75c-1.88-.7-16.09-5.38-16.07-7,.05-6.31,9.12-12.32,13.36-16.94"/><path class="cls-93" d="M2663.93,1051.89c41.49-13.16,90,.74,132.21,1.62,4.89.11,38.13,3.27,40.32-2.53,2.3-6.08-27.65-8.61-31-9-38.84-4.32-71.58-2.7-109.68,4.07"/><path class="cls-94" d="M2635.22,1050.94c186.18,37.17,365.75,100,551.1,141,40.45,9,208.5,37.91,225.52,36.63,44.4-3.33,297.16-84.47,442.81-132.56a737.7,737.7,0,0,1,23.76,71.18c10.09,35.8,16.77,70.66,16.77,107.51,0,46.71,8.46,120.51-27.27,160.67-2.94,3.31-226.63,54-238,57-49.16,13-146,50.29-194.89,47-53.28-3.6-118.91-41-169-57.72-110.61-36.89-232.66-55.23-346.07-86.73-95.66-26.57-231-33.16-309.73-89.79-27-19.39-22.8-73.83-22.79-101.48C2587.44,1118.73,2600.51,1077,2635.22,1050.94Z"/><path class="cls-95" d="M2589.67,1151c12.25-15,20.77-34.63,32.41-49.59,5.51-7.09,12.56-13.75,17.44-21.16,1.31-2,3.09-8.15,3.89-6,3.72,10.23-17.51,43-20.45,53.57-9.36,33.41-8.39,74.45-2.1,108.29,5.85,31.48,57.12,52,85.86,61.6,88.09,29.52,183.38,57.64,275.37,75.54,44.9,8.73,91.32,9.66,136.29,16.79,32.57,5.16,63.85,19,96.39,25.53,12.78,2.59,29.68,1.42,41.5,6.89,15.4,7.11,8.67,23,19.56,33.2,12.21,11.37,45.85,21.16,62,26.85,12.15,4.28,98.2,40.56,112.16,33.3,36.68-19.08-3-102.59,22.17-122.51.9-.71.83,2,1.08,3.08,1.61,7.15.93,15.23-.08,22.33-1,7.6-5.44,71.55,2.44,74.3,21,7.33,125.52-38.46,143-45.19,3.62-1.39,42.79-18,45.5-13.63,7.78,12.63,8.58,32.27,7.25,48.48-22.54,5.21-38.61,8.93-41.45,9.68-49.16,13-146,50.29-194.89,47-53.28-3.6-118.91-41-169-57.72-110.61-36.89-232.66-55.23-346.07-86.73-95.66-26.57-231-33.16-309.73-89.79-27-19.39-22.8-73.83-22.79-101.48C2587.43,1183.9,2588.14,1166.46,2589.67,1151Z"/><path class="cls-95" d="M3216.25,1366c-13.66-5-16.49-21.77-22-32.21-.63-1.2-10.5-19.71-9-19.55,8.41.9,54.16,57.58,65.08,68.56,8.67,8.69,15.5,18.63,23,28.09,3.69,4.64,17.15,14.25,10.72,14.13-14.08-.28-42.78-17.74-48.28-28.84"/><path class="cls-95" d="M3428.72,1277.22c-7.76,33.5-1.18,70.82-5.28,105-3.13,26.33-5,53.6-5.52,80.08-.2,9.87-1.25,19.6-1.38,29.45-.05,5.58,6.05,17.81-.18,16.73-12-2.08-35.77-36.14-44.86-43.23-21.8-17-44.34-25.71-55.49-51.45-9.42-21.74,33.44-137.3,54.56-153.55,8.38-6.46,23-.91,32.76-4.36"/><path class="cls-95" d="M3444.11,1329.77c-5.57,11.94-19.06,158.31-10.22,177.28.23.5,5.83-14.39,7.38-18.92,4.55-13.14,7.36-26.68,10.52-40.09,9.44-40,7.51-83.7,7.51-124.73"/><path class="cls-96" d="M3619.17,582.05c-113.45-32.23-322.28-27.29-435-.94-85.47,20-170.29,33.16-254.46,60.68-155.7,50.91-201.88,39.81-201.9,217.36,0,27.65-3.37,82.08,18.44,101.48,63.65,56.63,173.12,63.22,250.49,89.79,91.72,31.5,190.43,49.84,279.88,86.72,40.52,16.72,93.6,54.13,136.69,57.73,39.53,3.3,117.85-34,157.61-47,9.2-3,190.11-53.72,192.49-57,28.9-40.16,22.05-114,22.05-160.67,0-36.85-5.4-71.71-13.56-107.51-17.06-74.79-40.49-142-81.61-204.95"/><path class="cls-89" d="M2985.27,625.5c1.44.26,2.9.48,4.36.67,42.69,5.52,90.35,5.11,131.91,17.64,69.84,21.06,139.53,42.18,210.85,56.69,25.32,5.15,97.51,37.61,122.16,34.48,42.76-5.45,83.5-35.76,123.42-51,11.09-4.23,115.24-41.38,119.2-46.58,3.74-4.91-21.87-25.85-24.65-28.22l-1.16-1-52.19-26.18c-113.45-32.23-322.28-27.29-435-.94C3117.44,596.69,3051.16,608.15,2985.27,625.5Z"/><path class="cls-89" d="M3198.53,717.65c-15.48-7.21,41.36,10.31,48.43,11.06,39.72,4.2,78.93,11.34,117.88,19.94,4.36,1,48.55,11.71,47.13,20.54-2.4,14.89-46.28,25.7-56.92,27.92-10.18,2.13-21.2,11.89-31.36,11.8-23.63-.23-84.59-25.3-110.32-33.39a320.35,320.35,0,0,1-38-14.75c-1.53-.69-13-5.37-13-7,0-6.32,7.37-12.32,10.8-16.94"/><path class="cls-89" d="M2789.66,707.37c33.56-13.16,72.76.74,106.93,1.62,3.95.11,30.84,3.27,32.61-2.53,1.86-6.08-22.36-8.61-25-9-31.41-4.32-57.89-2.7-88.7,4.07"/><path class="cls-97" d="M2766.45,706.41c150.57,37.18,295.8,100,445.7,141,32.72,9,168.63,37.91,182.39,36.63,35.91-3.33,240.33-84.47,358.13-132.56,7.35,23,13.62,46.68,19.21,71.18,8.16,35.8,13.56,70.66,13.56,107.51,0,46.71,6.85,120.51-22.05,160.67-2.38,3.31-183.29,54-192.49,57-39.76,13-118.08,50.29-157.61,47-43.09-3.6-96.17-41-136.69-57.73-89.45-36.88-188.16-55.22-279.88-86.72-77.37-26.57-186.84-33.16-250.49-89.79-21.81-19.4-18.44-73.83-18.44-101.48C2727.8,774.21,2738.37,732.45,2766.45,706.41Z"/><path class="cls-96" d="M2729.6,806.5c9.91-15,20.15,51.3,25.23,85.14,4.73,31.48,46.2,52,69.44,61.6,71.24,29.52,148.31,57.64,222.71,75.54,36.31,8.73,73.85,9.66,110.22,16.79,26.34,5.16,51.64,19,78,25.53,10.33,2.59,24,1.42,33.57,6.89,12.44,7.11,7,23,15.81,33.2,9.87,11.37,37.08,21.16,50.16,26.85,9.83,4.28,79.42,40.56,90.71,33.29,29.67-19.07-2.4-102.58,17.93-122.5.73-.71.67,2,.87,3.08,1.3,7.15.75,15.22-.06,22.33-.85,7.6-4.4,71.55,2,74.3,17,7.33,101.51-38.46,115.65-45.19,2.92-1.39,34.6-18,36.79-13.63,6.3,12.63,7,32.27,5.87,48.48-18.23,5.21-31.23,8.93-33.53,9.68-39.76,13-118.08,50.29-157.61,47-43.09-3.6-96.17-41-136.69-57.73-89.45-36.88-188.16-55.22-279.88-86.72-77.37-26.57-186.84-33.16-250.49-89.79-21.81-19.4-18.44-73.83-18.44-101.48C2727.79,839.38,2728.37,821.94,2729.6,806.5Z"/><path class="cls-96" d="M3395.45,920.6c-13,7.8-35.49,140.69-37.37,163.36-1.67,20.36,7.88,39.65,22.76,53,3.37,3,7.6,11.92,10.56,8.5,8-9.25,35.47-143.54,32.52-162.77-2.76-18-24.47-52.72-17-69.85"/><path class="cls-96" d="M3470.42,1025.69c-9.4,16.93.68,47.63,2,64.6.81,10.3-2.39,71-.31,72.13,6.37,3.4,48.59-35.8,58.16-41.69,26.43-16.26,101.15-11.73,52.45-46.25-14.29-10.14-29.68-15.64-45.37-23-13.94-6.51-34.46-19.72-50.36-21.08"/><path class="cls-96" d="M3366.9,848.57c-22.44,6.94,34,27,38.56,29.36,17.51,9.1,52.87,50.17,74.15,49.35,43.92-1.68,226.89-22.53,257.78-43.14,71.43-47.7-50.54-151.74-102.19-166"/><path class="cls-96" d="M2780,784.34c-3.33,14-7.47,28.26-10.48,42.34-2.12,9.88-3.17,20.31-4.42,30.34s-1.49,20.31-2.78,30.4c-4,31.29,43.55-105.26,26.88-112.3"/><path class="cls-98" d="M3677.74,270c-123.18-32.23-349.91-27.29-472.32-.94-92.8,20-184.89,33.17-276.28,60.69-169,50.91-219.18,39.8-219.2,217.36,0,27.64-3.66,82.08,20,101.48,69.11,56.63,188,63.22,272,89.79,99.59,31.5,206.76,49.84,303.88,86.72,44,16.71,101.62,54.13,148.4,57.73,42.93,3.3,128-34,171.13-47,10-3,206.41-53.72,209-57,31.37-40.16,23.94-114,23.94-160.68,0-36.85-5.87-71.71-14.73-107.5-18.52-74.79-44-142-88.61-205"/><path class="cls-89" d="M2989.49,313.49c1.57.25,3.15.48,4.74.66,46.34,5.52,98.09,5.11,143.22,17.65,75.82,21.06,151.48,42.18,228.91,56.68,27.5,5.16,105.88,37.62,132.64,34.48,46.43-5.44,90.66-35.75,134-51,12-4.22,125.12-41.37,129.42-46.58,4.06-4.91-23.74-25.85-26.77-28.21l-1.25-1L3677.74,270c-123.18-32.23-349.91-27.29-472.32-.94C3133,284.68,3061,296.13,2989.49,313.49Z"/><path class="cls-89" d="M3221,405.64c-16.8-7.21,44.91,10.31,52.58,11.06,43.13,4.2,85.7,11.34,128,19.94,4.74,1,52.71,11.7,51.17,20.54-2.6,14.89-50.25,25.7-61.8,27.92-11,2.12-23,11.89-34,11.79-25.66-.22-91.85-25.29-119.78-33.38a366.6,366.6,0,0,1-41.3-14.75c-1.65-.7-14.13-5.37-14.11-7,.05-6.32,8-12.32,11.73-16.95"/><path class="cls-89" d="M2777.11,395.36c36.44-13.17,79,.74,116.1,1.62,4.29.1,33.48,3.27,35.4-2.53,2-6.08-24.27-8.61-27.19-9-34.11-4.32-62.85-2.7-96.31,4.06"/><path class="cls-91" d="M2751.91,394.4c163.48,37.18,321.16,100,483.91,141,35.52,9,183.08,37.92,198,36.64,39-3.34,260.93-84.47,388.82-132.56,8,23,14.8,46.68,20.86,71.18,8.86,35.79,14.73,70.65,14.73,107.5,0,46.72,7.43,120.52-23.94,160.68-2.58,3.3-199,54-209,57-43.17,13-128.2,50.3-171.13,47-46.78-3.6-104.42-41-148.4-57.73-97.12-36.88-204.29-55.22-303.88-86.72-84-26.57-202.86-33.16-272-89.79-23.67-19.4-20-73.84-20-101.48C2710,462.19,2721.43,420.43,2751.91,394.4Z"/><path class="cls-90" d="M2711.91,494.49c10.75-15,18.24-34.64,28.46-49.59,4.84-7.09,11-13.75,15.31-21.17,1.15-2,2.72-8.15,3.42-6,3.27,10.24-15.38,43.05-18,53.57-8.21,33.42-7.36,74.46-1.84,108.3,5.13,31.47,50.15,52,75.39,61.6,77.35,29.52,161,57.63,241.8,75.53,39.42,8.74,80.19,9.66,119.67,16.79,28.6,5.17,56.07,19,84.64,25.54,11.22,2.59,26.06,1.42,36.45,6.88,13.51,7.12,7.6,23.06,17.17,33.21,10.72,11.37,40.26,21.16,54.46,26.85,10.67,4.27,86.22,40.56,98.48,33.29,32.21-19.07-2.6-102.59,19.47-122.5.79-.72.73,2,1,3.08,1.41,7.15.81,15.22-.07,22.33-.92,7.59-4.78,71.55,2.14,74.29,18.48,7.34,110.21-38.46,125.56-45.18,3.17-1.39,37.57-18,40-13.63,6.83,12.62,7.54,32.27,6.37,48.47-19.8,5.22-33.91,8.93-36.4,9.68-43.17,13-128.2,50.3-171.13,47-46.78-3.6-104.42-41-148.4-57.73-97.12-36.88-204.29-55.22-303.88-86.72-84-26.57-202.86-33.16-272-89.79-23.67-19.4-20-73.84-20-101.48C2709.94,527.36,2710.57,509.93,2711.91,494.49Z"/><path class="cls-90" d="M3262.1,709.42c-12-5-14.48-21.76-19.35-32.2-.56-1.2-9.22-19.71-7.88-19.55,7.39.89,47.56,57.57,57.15,68.56,7.61,8.69,13.6,18.62,20.2,28.09,3.24,4.64,15.05,14.25,9.41,14.12-12.37-.27-37.57-17.74-42.4-28.83"/><path class="cls-90" d="M3448.67,620.69c-6.82,33.49-1,70.82-4.63,105-2.76,26.32-4.37,53.6-4.85,80.08-.18,9.86-1.11,19.59-1.22,29.44,0,5.58,5.32,17.82-.15,16.74-10.5-2.08-31.42-36.14-39.4-43.24-19.14-17-38.93-25.7-48.72-51.44-8.27-21.75,29.36-137.3,47.91-153.55,7.36-6.46,20.17-.92,28.77-4.37"/><path class="cls-90" d="M3462.18,673.24c-4.89,11.93-16.73,158.31-9,177.27.2.5,5.11-14.38,6.48-18.91,4-13.15,6.46-26.69,9.24-40.09,8.29-40,6.59-83.7,6.59-124.73"/><polygon class="cls-99" points="3081.41 471.99 3128.31 498.44 2562.38 1508.17 2515.48 1481.72 3081.41 471.99"/><path class="cls-99" d="M3132,516.9a50.93,50.93,0,0,1-44.52,1.62,52.13,52.13,0,0,1-29.16-34.18l-34-126A46.92,46.92,0,0,1,3037,312.39,45.28,45.28,0,0,1,3082.86,302l189.29,63.39a40.54,40.54,0,0,1,5.93,74Zm-2.43-47.09a28.78,28.78,0,0,1-25.15.92A29.47,29.47,0,0,1,3088,451.42c-5.69-21.13-13-48.23-19.19-71.17a26.52,26.52,0,0,1,7.13-25.95,25.58,25.58,0,0,1,25.91-5.9l106.92,35.8a22.9,22.9,0,0,1,3.35,41.8Z"/><path class="cls-100" d="M2360.34,1431.38c-23.16,8-145.25,263.89-94.51,412.56s386.88-78.54,441.23-175.74,63.74-137.57,59-152.47-171.22-45.38-171.22-45.38-7.91-31.87-32.07-34.43-44.07,15.81-44.07,15.81S2390.58,1420.89,2360.34,1431.38Z"/><path class="cls-101" d="M2534.86,1441.24a70.09,70.09,0,0,0-16.18,10.49s-69.37-16.7-118.07-21.34c-40.64,73-81.28,203-93,269-2.08,11.77-14.56,96.77-7.06,99.23,9.73,3.21,53.38-77.32,59.79-90.82,12.32-26,30.38-49.13,45-73.92,38.21-64.75,70.46-139.45,127.48-190.76C2533.45,1442.59,2534.13,1442,2534.86,1441.24Zm60.72,29.25c-27.54,73.07-117.46,186.63-133.58,216.1-18.16,33.18-73.41,105.07,4.41,96.16,26.64-3,62.56-28.37,83.47-43.82,89.08-65.79,165.54-130.09,205.64-230.21C2719.83,1493.65,2606,1472.41,2595.58,1470.49Z"/><path class="cls-102" d="M2522.25,1468.85c-12.67,9.74-21.58,28.73-29.8,41.86-20.21,32.34-41,63.28-59.08,97-9.48,17.7-18.76,35.65-27.08,53.92-2.74,6-9.47,21.72,3.2,15.4,14.64-7.3,37-45,45.05-59.42,21.63-38.84,49.45-74.25,71.8-112.78,2.33-4,5-7.72,7.46-11.64,5.24-8.25,34.4-52.28,6.34-43.89"/><path class="cls-102" d="M2363.17,1455.61c-10.65,12.65-15.88,27.94-22.94,43a529.73,529.73,0,0,0-41.24,127c-2.86,15.24-6.44,30.26-8.51,45.67-.58,4.33-3.49,13-1.71,17.32,0,0,3.5-7,3.69-7.49,2.35-6.28,3.94-13.14,5.73-19.62,5.19-18.76,12.41-36.7,18.67-55.09,9.64-28.33,18.69-56.87,29.26-84.87,8.7-23,20.59-44.73,23.89-69.37"/><path class="cls-103" d="M2395.17,1429.92c-15.09-1.19-27.69-1-34.83,1.46-23.16,8-145.25,263.89-94.51,412.56s386.88-78.54,441.23-175.74,63.74-137.57,59-152.47c-1.11-3.46-10.92-7.76-25.36-12.32,8.51,3.16,14,6.1,14.77,8.59,4.49,14.23-4.45,52.84-56,145.85s-369.91,310.69-417.71,168.61,68.05-386.84,90-394.54C2376.9,1430.09,2385.15,1429.56,2395.17,1429.92Zm180.55,10.8c13.16,9.2,17.79,28.13,17.79,28.13l.94.18C2593.07,1464.4,2587.66,1448.82,2575.72,1440.72Zm-12-4.68c-.32,0-.65-.09-1-.12-20.78-2.21-38.41,11.07-42.94,14.83l1.68.4s18.86-17.59,41.72-15.17Z"/><path class="cls-104" d="M3118.82,448.09c-2.56-14.79-17.77-73.62-6.37-86.76,18.54-21.36,279.67,10.21,258.94,86.91-24,88.9-196.81,27.18-221.48,72-22.69,41.23.35,109.83-7.63,155.41-4.21,24.06-.58,56.32-8.62,79-6.66,18.82-23.84,15.65-26.44,41.31-8.35,82.55,9.68,167.88-2.29,250-8.2,56.28-96.08,40.08-114.93,92.38-15.92,44.12-3.82,194.92-8.91,253.5-1.12,12.84-15.65,26.13-17.7,39.62-6.93,45.49-4.06,95-8,140.88-1.08,12.68-13.94,141.74-13.94,141.74L2881,1699.62s6.92-54.83,8.24-65.27c9.78-77.36-5.83-163.44,18.12-238.78,5.14-16.17,27.69-21.17,31.59-39.53,15.9-74.74-15.31-166.52,11.11-238.76,18-49.17,71-42.64,77.14-103.32,8.89-87.21-8.86-177,6.31-263.11,6.46-36.57,49.19-32.29,57-62.21,15.23-58.59,3.4-125.63,8.62-185.92,1.15-13.2,19.89-21.23,20.46-39.48s-8.33-32.8-9.06-50.76Zm52.4-48.06c-2.07,10.56-8.51,29.41-2.88,39.38,5.27,9.32,20.37,9.51,29.36,11.53a257,257,0,0,0,68.83,6c6.24-.28,16.36.61,22-2.82,33.34-20.41-2.64-44-22.66-52.08-10.25-4.15-65.17-22.08-83.27-14.13Z"/><path class="cls-105" d="M3645.37,104.55c-90.08,75.35-33.53,361.61-33.44,469.68.13,135.87-5.74,279.61,6.06,414.71,11.88,136,48.13,270.68,64.46,406.62,10,82.57,9.18,166.55,18.41,249.23,15,133.86-7.27,172.83,131.23,225.36,45,17.08,91.78,32.78,140.31,33.91,80,1.86,226.11-53.62,305.66-80.29,113.54-38.09,241.77-60,346.16-120.61,20.31-11.77,35.52-37.27,52.12-53.3,20.22-19.54,47.51-31,61.56-56.85,18.47-34-30.69-160.23-46.92-197.94-27.12-63-63.3-121.45-92.13-183.66-6.35-13.71-27.06-29.07-30.47-40.88-4.15-14.27,5.88-25.21,4.43-38.59-8.47-78.38-15.46-160.1-25.4-239.09-22.53-179,21-603.27-88.14-738.09-25-30.84-110.68-6.36-140.84-.39-36.6,7.25-75.09,5-111.87,11.07-45,7.43-88.92,24.81-134.4,28.67-20.59,1.74-17,24.27-32.72,27.69-54.76,11.92-310.2-87.63-378.79-108.11"/><path class="cls-106" d="M3820.69,1865.7c.35-13,.49-23.26.07-28.82-10.37-135.38-11.67-272.26-15.08-408-2.54-100.58-18.63-199.85-13.34-300.64l-12.08-583.88c6,44.13,29.34,84.59,34.65,129.7,14.67,124.58,35.59,248.66,49.68,373.27,11.9,105.58,26.78,207.89,45.68,312.27,2,11.2-.13,31.1,4.67,41.37,4,8.55,51.73-30.42,55.78-13.14,5.09,21.69-39.77,22-37.9,46,5,63.27,41.43,178,59.31,243.05,8,29.12-5.12,70.07,12.85,96,8.82,12.69,70.71,24.13,85.77,28.15,70,18.62,83-16.83,151.39-34.21,142.28-36.21,277.51-79.47,408.47-145,32.9-16.45,63.17-43.8,89.56-72.24,2.78,18.74,2.64,34.35-2.27,43.42-14,25.88-41.34,37.31-61.56,56.85-16.6,16-31.81,41.53-52.12,53.3-104.39,60.6-232.62,82.52-346.16,120.61-79.55,26.67-225.63,82.15-305.66,80.29-48.53-1.13-95.29-16.83-140.31-33.91C3828.16,1868.67,3824.35,1867.19,3820.69,1865.7Z"/><path class="cls-106" d="M3973.94,214.52c22.14,5.14,40.9,8.23,54.24,8.27,20,6.11,42.24,9.15,60.12,14.72,21.67,6.74,44,19.27,62.57,32.2,43.15,30.05,92,54.94,140.42,74.92,18.52,7.66,36.35,16.71,54.9,24.31.55.23,14.13,6.94,12.83,8.49-5.54,6.56-63,3.68-73.49,4.36a691.57,691.57,0,0,1-175-10.82c-16.18-3.15-49.58-6.73-60-22.4-19.54-29.24,53.35-45.64,34-72.52-21.08-29.36-72.82-38.33-103.53-55.84A30.92,30.92,0,0,1,3973.94,214.52Z"/><path class="cls-106" d="M3609.15,165.56c58,103.74,163.57,215.58,198.89,326.56,19.44,61.15,16.44,137.59,21.34,201,12.21,158.65,22.75,317.17,33.55,475.87,10,146.29,34.88,292.78,48.73,438.39,6.39,67.37,6.28,136.13,14.26,203.35,3.82,32.11,21.85,59.87,23.77,91.79-40.44-4.54-79.64-18-117.6-32.36-138.5-52.53-116.26-91.5-131.23-225.36-9.23-82.68-8.46-166.66-18.41-249.23-16.33-135.94-52.58-270.6-64.46-406.62-11.8-135.1-5.93-278.84-6.06-414.71C3611.86,486.16,3574.27,279.72,3609.15,165.56Z"/><path class="cls-107" d="M3717.58,1781.06a333.31,333.31,0,0,1,36.92,15c23.15,10.75,52.54,3.76,76.62,12.23,1.34.49,56.13,52.93,95.51,90.66-32.32-6.19-63.83-17.18-94.54-28.84C3758.12,1842.08,3730,1817.91,3717.58,1781.06Z"/><path class="cls-107" d="M3739.36,473.85c19.58,75.91,46.21,152.15,60.94,229,21.87,114.15,25.66,231.5,31.55,347.21,5.33,104.79,24.82,208.75,32.38,313.29,9,125.25,27,251.2,45.35,375.39,6,40.43,20,84.8,20.77,125.61.14,7.52-3.55-9.6-6.24-20.86-2.11-8.91-2.84-17.67-4.56-26.54-6.15-31.83-10.76-64.08-17.81-96-21.3-96.52-40.64-197.08-50.25-295.52-17.59-180.22-28-361.7-44.23-542.35C3797.08,769.62,3796.5,654.88,3759.2,546"/><path class="cls-107" d="M3984,1801.08c8.93,34.7,60,48.61,89.95,55.49,2.14.49,8.91,2.59,8.84,6-.11,5.46-12.44,6.46-15.9,7.39-41.2,11.17-164.27,52.33-106.77-41.05"/><path class="cls-107" d="M3880.7,1808.15c-22.35-16.76-22.24-67.5-48.1-74.47-10.72-2.9,2.33,42.14,2.77,44,6.29,25.39,20.88,72.9,52.52,75.64"/><path class="cls-108" d="M3872.94,660.75c28.11,123,43.9,242.09,54.13,368.52,2.71,33.59,5.29,142.7,24.67,171.46,24.65,36.56,224.75-24.39,261.81-32.47,39-8.51,279.12-47.08,297.44-75.88,20-31.44-27.49-272.71-34.86-317.28-3.42-20.67-11.44-194.2-22.62-203-18.23-14.39-136,4.52-157.44,7.18-112.44,13.91-232.62,86.48-347.9,73.22C3935.87,651.08,3885.8,662.18,3872.94,660.75Z"/><path class="cls-108" d="M4586.28,1443.45c-31.68,2.45-212.07,56.43-131.31,101,20.76,11.45,42.86,17.73,66.84,15.35,73.33-7.3,150.23-98,86.12-103.4"/><path class="cls-108" d="M4144,1583.28c-17.77,7.19-35,12.74-51.68,23-12,7.36-21.25,16-30.12,26.78-69.29,84.69,126.49,58.88,138.57-16.28,1.63-10.13-2.09-18.44-11.68-22.71"/><path class="cls-108" d="M3693.15,218.45c61.69,17.79,126.11,23.73,187.93,41.06,2.14.6,60,15.89,59.17,18.15-14.09,39.49-158.67-9.41-186.74-10.35-10.89-.36-52.38,5.35-61.07-4.88-3.72-4.37,5.93-15.89,8.71-18.75"/><path class="cls-108" d="M3924.47,374.51c10.16-5.79,101.35-17.51,77.6,2.32-7.65,6.4-138.41,39.58-101.26,6.65"/><path class="cls-108" d="M4366.16,206.79C4312.06,233,4179,219,4182.9,248.9,4188,288,4445,277.56,4403.49,230"/><path class="cls-106" d="M3989.77,1444.81c56-48.12,247.22-108.24,326.1-140.27,37.86-15.37,77.08-27.39,116-39.73,13.76-4.35,28-8.43,41.48-13.44,7-2.6,24.31-13.55,21.45-6.62-8.45,20.35-115.22,92.31-136.39,105.94-35.07,22.61-63.91,53.46-98.7,76.57-82.83,55-187,38-280.66,37.91"/><path class="cls-106" d="M4450.87,1184.19c-42.84,5.53-82.37,17-123.6,29-22.78,6.62-45.82,12.54-68.85,17.87-35.3,8.15-74.55,14.74-106.45,33.16-2.51,1.45,5.38,2.37,8.25,2.73,12.72,1.58,23-.68,35.45-2.42,25-3.5,49.47-4.71,74.7-4.72,124.63,0,125.27-4.67,224.83-57.39"/><ellipse class="cls-109" cx="4339.48" cy="2142.89" rx="293.53" ry="115.94" transform="translate(-234.88 562.28) rotate(-7.22)"/><path class="cls-97" d="M4631.4,1649.5H4155.76v469c161.91,85.62,320.22,79.49,475.64,0Z"/><path class="cls-110" d="M4215.4,1649.5c1.73,13.91,3.64,26.84,4,36.34,4.09,102.48,25.43,211.29,105.11,282.49,25,22.34,61.35,26.27,86.09,47.56,45.38,39.09,9.77,76.31,68.31,89.94,47.17,11,102.32,12.3,152.47,6.1v6.58c-155.42,79.48-313.73,85.61-475.64,0v-469Z"/><path class="cls-99" d="M4631.51,1829.55v42.65c8.29,14.43,17.38,31.41,22.33,42.11,5.82,12.59,10.68,24.24,11,30.23.84,16-6.45,34.47-23.83,37.5-7.39,1.28-15.54.28-22.85-.89a194.49,194.49,0,0,1-38-9.88c-77.58-29.49-156.28-101.36-200-171.81-11.42-18.42-28.11-37-33.42-58.55a11.68,11.68,0,1,0-22.68,5.63c5.88,23.87,23.6,44.89,36.26,65.3,46.17,74.46,129.54,150.19,211.54,181.35a217.69,217.69,0,0,0,42.55,11.11c9.77,1.56,20.66,2.55,30.52.83,29.52-5.14,44.6-34.67,43.18-61.83-.4-7.63-5.71-22.8-13.13-38.85-10.58-22.87-36.69-67.77-43.23-74.61Z"/><ellipse class="cls-111" cx="4393.22" cy="1647.67" rx="240.17" ry="65.07"/><ellipse class="cls-112" cx="4391.83" cy="1647.39" rx="228.94" ry="56.31"/><path class="cls-113" d="M4191.49,1674.65c39.07-17.32,114.17-29.05,200.34-29.05s161.27,11.73,200.34,29.05c-39.07,17.32-114.18,29.06-200.34,29.06S4230.56,1692,4191.49,1674.65Z"/><path class="cls-114" d="M808.69,2303.91a52.23,52.23,0,0,0,3.9,7c24.93,37.78,92.21,47.91,127.95,73.4,57.26,40.81,119.92,92.42,189.12,110.21,412.84,106.17,882.83,174,1288.85,8.27,123.7-50.49,240.8-143.24,319.36-250.39,160.59-219-268.3-256.43-396.8-279.7-79.86-81.23-187.76-159.48-295.33-198.16-265.59-95.5-549.87-143.62-817.34-234.31-124.09-42.07,108.42-25.36-23.86-26.36l-82.4,65.36c-167.36,14.46-684.34-21.23-828.23,60.91-121.24,69.22-672.32,438.59-417.63,607.54,169.65,112.55,584,62,786.81,53.4C709.83,2299.07,758.83,2300.29,808.69,2303.91Z"/><path class="cls-115" d="M1203.79,1567.1s248.36-1095,325.91-1408.48c5.12-20.7,39.48-29,58.61-38.25a71.39,71.39,0,0,1,60.76-.75l46.06,21a71.8,71.8,0,0,1,41.92,62c11.94,255.68,72,1542.05,72,1542.05l-37.63,16.49S1213.26,1570.18,1203.79,1567.1Z"/><path class="cls-97" d="M1166.61,1583.19,1512.85,183.8a71.53,71.53,0,0,1,99.05-48.09l46,21a71.8,71.8,0,0,1,41.92,62c11.94,255.68,72,1542.06,72,1542.06S1177.65,1586.78,1166.61,1583.19Z"/><path class="cls-116" d="M1579.48,129.35a71.41,71.41,0,0,1,32.42,6.36l46,21a71.8,71.8,0,0,1,41.92,62c11.94,255.68,72,1542.06,72,1542.06l-209.82-61.46q.23-3.09.43-6c26.63-376.59,59.18-750.8,55.86-1129.33C1618.27,556,1621.66,267.1,1579.48,129.35Z"/><ellipse class="cls-117" cx="1580.72" cy="335.56" rx="57.79" ry="97.56"/><ellipse class="cls-118" cx="1565.84" cy="327.48" rx="57.79" ry="97.56"/><path class="cls-105" d="M1430,1692.91s-278.79-34.9-421.29-64.35-211.51-55-242.43-72-114.38-139.24-205.91-211.2-480.19-371-480.19-371S-.69,525.65,300.9,196.76s541.42-345.46,683-349.58c83.71-2.44,355.12,208.78,432,239.07S1665.48,193.92,1717,256.85s330.56,438.27,376.46,542.33-28,213.25-28,213.25Z"/><path class="cls-119" d="M348.16,147.21c279.38-281.06,501.63-296.13,635.7-300,83.71-2.44,355.12,208.78,432,239.07S1665.48,193.92,1717,256.85s330.56,438.27,376.46,542.33c17,38.59,17.57,77.92,11.52,112.08-3.85-.12-7.61-.29-11.25-.5-92.4-5.15-179.71-61-217.14-148.88-15.76-37,30.28-131.94-23.88-138.54-140.4-17.13-292.36,114.65-433.5,134-51.09,7-138.74,22.12-175.38-28.26-28.19-38.74,12.19-104.47,36.54-134.7,75.3-93.52,168.62-162.32,271.35-222.28,16.1-9.39,131.67-69.83,96.52-100.61-35.44-31.06-139.88-3.43-175.71,10.62-67.84,26.62-138.25,48.09-206.47,74.1-54.56,20.81-112.26,58.23-170.88,66.25C930.52,445,1201.93,240.34,1125,209.9c-52.63-20.83-137.94,11.28-187.79,25C897.37,245.8,857.22,255,816.68,263,693.7,287.16,225.36,397.7,348.16,147.21Z"/><ellipse class="cls-120" cx="613.25" cy="118.46" rx="341.1" ry="83.3" transform="translate(38.02 361.82) rotate(-33.86)"/><path class="cls-121" d="M1529.52,235.1c-28.64-10.22-110.78-3.08-151.34,8.06C1239,281.39,1105.93,376,1006.19,479a781.4,781.4,0,0,0-96.6,122.91c-9,14.09-23.24,43.39-6,56.59,32.58,24.93,101.67-19.83,128.83-35.78,105.2-61.76,198.65-142.52,298.59-212.1,69.18-48.18,145.72-71.73,219.88-108.7C1569.26,292.76,1613.94,265.22,1529.52,235.1Z"/><path class="cls-122" d="M172.85,382c-3.19,30.73-5.15,61.84-5.54,92.35-.39,30.2,1.07,57.72,8.64,87,8.94,34.64,32.12,61.12,61.21,80.86,16.87,11.46,63.26,36.17,86,23.71,16.52-9,31.91-33.66,47.21-46.05,66.39-53.75,126.71-25.9,166.08,34.9,76.15,117.59,53.37,263.37,62,397.12,2.4,37-1.75,129.13,53.92,131.19,10.64.4,39.69,5.14,48.55-2,23.91-19.16,31.17-59,44.45-85,47.63-93.43,119.82-175.87,185.9-257.38,29.34-36.22,68.17-98.25,110.93-120.47,2.43-1.25-1.22,12.65-1.5,13.22a104.11,104.11,0,0,1-19.8,27.91c-1,1-12,12.41-6.51,11,23.67-6.1,98.17-108.12,118.59-129.07C1202.7,570,1433.48,358.16,1544,356.59c1.62,0-3.15.79-4.58,1.54-36.19,19.23-70.56,44.44-105.59,66.2-69.8,43.39-132.4,96.39-193.1,151.78-69.65,63.56-135.47,129.79-193,204.33-88,114-229,414.24-167.4,563.42,37,89.61,283.29,155.94,354.3,100.4,63.55-49.69,62.11-159.39,94.24-228.39,42.44-91.08,108.88-177,192.68-233.26,25.44-17.07,205.75-154.05,238.15-119.41,1.43,1.5-88.05,84.56-97.43,95.23-64.2,73-90.39,162.8-111.52,255.9-18.09,79.83-19.67,174.23-5.28,254.88,5.23,29.25,14.35,53.08,23.45,75L1430,1692.91s-278.79-34.9-421.29-64.35-211.51-55-242.43-72-114.38-139.24-205.91-211.2-480.19-371-480.19-371S25.73,672.18,172.85,382Z"/><path class="cls-123" d="M1723.44,264.81c8.26,10.4,19.71,25.21,33.51,43.32-121.71,30.7-380.46,123.86-649.12,395C826.28,987.29,780.59,1386.3,774.85,1561c-3.13-1.53-6-3-8.55-4.43-9-5-22.57-19-39.47-38,12.22-198,73-576,345.37-850.88C1334.4,403,1588.09,302.19,1723.44,264.81Z"/><path class="cls-123" d="M451.82,99.11c-24.15,30.26-51.79,57.8-76.1,88.21C256.42,336.62,156.28,543,116.59,730c-11.83,55.78-17.66,118.25-14.38,175.35.31,5.4,4.05,50.65,8.39,51.57.24,0,1.58-7,1.55-42.6,0-25.36,2.79-50.51,4.89-75.74,6.23-74.73,25.19-151.4,49.19-222.33,40.91-120.87,100-241.23,170.38-348,25.08-38.06,50.85-76.46,78.39-112.68,10.72-14.09,34.91-30.76,39.39-48.54"/><path class="cls-123" d="M831.36,1140.57c-42.44,92.38-46.57,191.76-56.7,290.75-2.51,24.5-12.57,78.85,1.12,101.34,11.8,19.38,146,42.71,170.16,42.72,3.85,0,9-.23,9.79-4.73,8.9-50.77-67.5-69.17-89.51-103.75-27.19-42.72-23.34-114.75-23.35-163.38,0-26.38.51-54,4.33-80.17,4.95-33.94,38.21-132.13,13.4-160.88"/><path class="cls-123" d="M1524.77,1040.37c-32.35,28.74-56.16,75.38-78.24,111.78-62.25,102.56-114.33,210.44-133.06,330.26-4.25,27.18-1.59,54.51-4.83,81.51-1.17,9.72-2.41,25.4-7.64,33.71-6.58,10.48-76.38,23.44-56.46,44,58.78,60.67,147.75,27.93,208,48.06"/><ellipse class="cls-124" cx="1731.7" cy="1220.69" rx="563.38" ry="288.54" transform="translate(-263.62 1933.14) rotate(-54.83)"/><ellipse class="cls-125" cx="1740.85" cy="1221.96" rx="541.54" ry="269.3" transform="translate(-260.84 1940.99) rotate(-54.83)"/><ellipse class="cls-124" cx="1748.03" cy="1227.08" rx="500.81" ry="240.22" transform="translate(-262.04 1948.85) rotate(-54.82)"/><path class="cls-126" d="M1442.39,1662.3c-18-46.55-46.11-90.28-54.93-138.37-17.37-94.85,36.26-193.92,71.5-278.16,11.09-26.54,34.48-47.45,44.87-74,5.91-15.06,6.72-31.3,19-43l4.06,6.61c147.56-70.79,145.74,85.33,198.89,169.89,25.74,40.94,108.14,46.1,119.8,58,9.63,9.81,1.4,22.72,6.36,33.34,3.27,7,13,5.72,16.79,12.14,7,11.81-1,22.78,9.77,34.36,5.52,5.94,18.75,4.59,21.54,11.18,34.29,81,2.1,175,16.54,257.9a104.88,104.88,0,0,0,3.1,12.31c34.58,10.8,68.93,22.46,104.68,30.81,32.74,7.63,71.73,1.13,102.58,14.59,21.54,9.39,36.26,28.21,56.08,40.17,44.71,27,101.78,30.45,147.4,56.78,50.81,29.31,111.79,79.4,146.37,127.14,15.77,21.77,18.7,53.88,36.69,73.37,14.7,15.9,44.82,2.92,54.05,23.69,5,11.39-1.88,31.59-4,42.88-26.5,141.35-221.89,255-346.52,283.71-54.09,12.47-109,10.89-163.29,20.69-97.75,17.66-192.53,47.91-293.35,38.46-61.11-5.72-120.55-29-181.36-33-131.57-8.59-263.76,14.86-393.48-26.73-40.48-13-76.18-46.19-114.28-64.84-43.65-21.36-95.84-30.06-135.58-59.84-38.06-28.51-13.65-56.75-35.92-85.21-18.12-23.18-55.66-24.07-61.61-59.8-11.07-66.53,77.08-57.39,118.12-76.11,42.67-19.46,84.37-46.41,127.37-67.75,43.47-21.58,91.82-55,137.09-70.6,82.19-28.29,210.93-28.71,231.35-138C1460.54,1749.47,1442.55,1707.43,1442.39,1662.3Z"/><path class="cls-127" d="M1584,1117.82c26.72,54.79,59.69,107.28,86.76,161.16,11.18,22.26,6.13,57,24.12,74.44,20,19.37,46.35,9.17,67.13,33.7,24.21,28.56,68.18,79.9,81.31,114.05,12.69,33,6.92,60.81,6.57,93.83,0,1.44-1.23,15.84-1.81,15.75-12.28-2.19-2.21-28.6-12.75-35.3-38.48-24.44-25.9-76.66-52.8-109-24.3-29.19-90.68-30.79-121.55-55.26-53-42.06-38.72-148.28-118.19-162.48-12-2.16-1.45,36.57-.31,40.92,7.31,28,2.76,85.77,18.26,106.3,2.17,2.86,5.67,6.76,5.88,10.57,1.46,28.82-88.07-33-61,13.67,20.33,35.1,71.24,40.77,99.29,68.36,1.36,1.34,11.94,9.9,7.76,12.78-12.71,8.77-40.86-10.46-52.47-18.17-23-15.26-69.09-13-85.34-31.09-21.33-23.77,25.41-124,21.22-162.48-2.18-20-12-45.12-23.55-67.9,11.13-16.4,24.23-31.85,31.3-49.92,5.91-15.06,6.72-31.3,19-43l4.06,6.61C1549.08,1124.72,1567.9,1119.21,1584,1117.82Z"/><path class="cls-127" d="M1642,1549.51c6.34,21.55,18.46,41.91,29,61.69,7.73,14.46,27.36,69.56,49.25,70,6.47.12,6.61-18,6.23-21.05-6.84-54.72-65.74-87.25-80.93-126"/><path class="cls-127" d="M1686.42,1484.07c-8,5.38,11.44,21.71,14.76,24.68,35.25,31.55,76.37,58.59,60.22,3-7.72-26.53-40.52-42.52-66.06-46.36"/><path class="cls-127" d="M1657.06,1867c-23.63,55.73,82.24,256.22,103.37,249.95,38.1-11.32-41.55-112-45.15-122.7-10-30-20.42-130.12-51.5-141.7"/><path class="cls-127" d="M1927.44,1934.21c-6.26,27.49,61.76,69.15,85.9,59.14,23.16-9.6,42.53-26.74,65.31-37,3-1.37,5.8-2.39,7.66-5.48,23.37-38.78-72.85-23.5-88.73-23.5h-8.94c-24.21-3.07-40.79-21.42-63-29.85"/><path class="cls-127" d="M2131.1,1901.52c-3.69,8,101.82,61.88,83.16,84.58-28,34-75.32-35.53-83-54.59"/><path class="cls-128" d="M1863.41,1697c-19.92,93.17,45.74,123.86,35.1,84.09-8.58-32.1-11.36-72.22-14.64-105.25"/><path class="cls-128" d="M1787.48,1378.85c-.66,14.86,11.34,23.32,21.18,33.3,27.19,27.57,71.77,87.36,72.61,86.84,8.55-5.31,4.29-28.3,0-34.86-13.67-20.68-22.18-40-39.56-58.91-14.11-15.38-40.46-19.31-52.08-37.72"/><path class="cls-128" d="M2105.39,1780.08c-38.3-1.79-85.36-9.35-121.09-23.91-14.44-5.88-29-13.49-44.36-16.81-5.48-1.18-19.08-6.77-16.76-1.63,9,20,73.54,50.17,93.65,61.24,18.86,10.39,15.13,31.88,31.42,42.89,7.25,4.91,18,4.51,26.13,7.58,15.56,5.9,28.44,18,43.52,25,25.57,12,54.24,16.73,79.73,29.26,29.06,14.28,44.49,48.82,69.08,68.52.74.6,3,2.49,4.08,1.92,5.57-2.9,1.64-12.92.44-17.35-14.54-54.22-41.52-51.55-73.45-88.38-1.46-1.67-7.77-7.13-7.34-9.63.84-5.11,25.26,15.4,26.52,16.38,11.61,9.07,50.1,34.59,63.86,38.65,1.14.33,3.33,2.69,4.42,2.29,11.66-4.31-6.72-30.91-4.53-30.18,10.45,3.41,15,18.2,22,25.73,20.34,22.07,42.85,42.4,64,63.78,22.4,22.67,67.11,89.43,94,102.79,14.12,7,7.41-33.69,9.79-32.84,13.09,4.7,8,31.72,26.59,34.63,3.88.6.61-14.75.26-16.31-2.35-11-4.64-22.54-7.55-33.43-12-45.12-57.36-64.64-87.75-96.29-25.82-26.87-84.66-71.1-120.39-81-16.62-4.6-41.39,1.2-55.49-6.67-53.8-30.06-77.37-75.52-144.1-77.52"/><path class="cls-128" d="M1918.76,1776.54c.74,28.71,18.21,88.13,45,105.56,8,5.2,26.76,2.92,36.22,5.34,15.46,4,29.53,12.08,44.51,17.41,1,.38,20.94,5.6,20.93,5.17-.53-11.85-35.32-25.35-43.76-31.91-18.88-14.66-31.66-38.17-47.94-50.95s-35.56-21.38-47-39.8"/><path class="cls-128" d="M1873.68,1991.72c2.08,23.08,43.23,87.14,66.5,92.41,19.14,4.34,38.11-4.12,57.64,1.35,24.17,6.76,44.7,20.13,66.71,31.89,26.48,14.15,55.11,24.73,83.18,35.69,10,3.89,19.81,7.84,29.93,11.22,5.4,1.8,18.09,9.34,16.66,3.81-3-11.63-58-70.58-58.2-72.19-.25-1.85,9-2,9.23-2,5.66-.26,49.1,20.19,51.22,8.57,1.53-8.41-19-17.14-24-21.71-26.8-24.49-45.86-64.9-91.57-52.67-24.19,6.49,25.72,40.53,6.48,47-5.72,1.9-56.63-23.33-66.56-27.2-15.56-6.05-34.21-16.86-50.89-18.37-17.76-1.6-34.63,3.84-51.09-2-22.49-7.93-22.05-36.14-41.2-45.23"/><path class="cls-128" d="M1686.6,1830.34c-9.25-5.69,10.29,14.35,12.92,22.08.55,1.63,14.91,66,32,54.89,5-3.29-2-90.42-9.78-97.83-8.64-8.29-38.62-16.55-34,5"/><path class="cls-128" d="M1582,1809.26c-8.37,8.59-15.75,18.93-22.27,29-3.69,5.68-26.15,55.22-16.65,49.51,8-4.83,12.52-17,22.07-19.23,14.16-3.3,38.58,1.49,50.17-8.38,2.46-2.1,8.89-8.94,9.06-12.41.33-6.66-26-19.22-29.76-30.1"/><path class="cls-129" d="M1478.5,1213.18c-16.72,95.32-35.63,237.14-1,270.72,23.06,22.39,69.41,25,93,44,11.83,9.47,18.22,29.31,28.39,40.94,9,10.36,27.26,10.58,34.62,19.13,4.2,4.9-16.85,15.42-19.19,16.3-30.51,11.38-53.29,22.2-26.52,61.06,31.49,45.71,56.45,52.62,112.16,61.19,5.47.84,53.71,2.34,54.41,7.42,4.92,35.37-128.87,14.95-148.54,18.31-61.53,10.55-47,52.77-69.4,83.67-10.38,14.31-29.8.51-31,28.6a24.15,24.15,0,0,0,3.1,13.59c9.61,15.75,33.27,15.24,43.07,32.31,15.34,26.71,13.57,61.11,31.35,87.56,1.74,2.58,19.09,33.57,23.38,30.76,22.56-14.81-25.74-134.73-2.19-139.73,35.88-7.61,21.2,76,27,90.31,7.08,17.4,63.71,73.22,52.07,92-74.89,120.54-271.65-115.06-300.25-61.73-6.7,12.49-1.59,30,9.34,38.14,15.79,11.85,48.42,15.71,58.54,33.38,15.93,27.77,6.45,164.46,65.67,59.15,10.71-19,31.09,17,36,27.84,3.16,6.88,11.53,28.58,2.92,34.78-8.45,6.06-118.35-30.09-140-34.15-27.46-5.17-70.47,47.35-120.92,27.13-7.33-2.94-14.14-7.94-20.71-12.25-66-43.22-40.82-63-64.23-90.59-.81-1-3.23-3.41-5-4-15-5.11-31.7,1.36-46.49,4.07-40.26,7.35-8.33,31.11.41,52.57,3.39,8.33-2.06,21.82,2.67,29,25.81,39.27,94.58-6.16,125.13,20,20.66,17.7-8,76.68,35.27,80.17,48,3.86,70.41-54,123.13-38.26,38.38,11.49,43.73,62.84,78.82,77.18a28.21,28.21,0,0,0,17.46.86c39.81-11.6,7.72-41.21,7.45-63.91-.16-13.49,12.4-29.75,16.39-42.64.07-.23,1.72-5.43,2.36-5.43,24.72,0,10.73,128.41,96.82,124.49,32-1.46-2.65-76.41,5.61-82.33,18.79-13.48,112,9.44,116.22-9.92,3.6-16.63-48.75-63.74-39.85-70.65,42.1-32.68,113.55,118.68,162.59,79.81,62.67-49.66-16-75.8-41.8-105-12.27-13.88-46.06-78.67-10.08-86.75,46.31-10.41,98.66,126.8,118.54,156.42,17.6,26.22,48.63,51.71,70.69,74.78,46,48.13,95.07-56.32,148.69-58.59,33-1.39,14.58,112.47,51.47,94.27,34.18-16.88,95.39-53.23,84.72-102-5.2-23.81-52.12-15.39-63.69-32.82-1.4-2.11-2-5.17-2.42-7.67-1.76-11.81,5.71-24.87,2.29-38.18-5.37-20.91-31-30.21-35.14-51.84-2.14-11.18-.2-26.55,14.3-27.73,58.84-4.77,31.32,89.54,82.66,86.12,7.65-.51,11.05-16.89,12.14-22.38,1.89-9.52,3.16-19.34.45-27.46-16.33-6-33.74-11.25-33.76-15.63,0-3.64,18.08.6,18.29.68,8.72,3.26,13.33,8.57,15.47,14.95,12.34,4.56,24.06,9.61,27.17,15.13,16.3,28.93,6.09,62.63,29.3,89.67,25.88,30.13,52.3-52.17,60.18-60.19,11.42-11.58,18.83,18.58,33.48-.09,17.37-22.12,14-48.56,31.64-65.88,15.6,5.86,36.82.51,44.3,17.35,5,11.39-1.88,31.59-4,42.88-26.5,141.35-221.89,255-346.52,283.71-54.09,12.47-109,10.89-163.29,20.69-97.75,17.66-192.53,47.91-293.35,38.46-61.11-5.72-120.55-29-181.36-33-131.57-8.59-263.76,14.86-393.48-26.73-40.48-13-76.18-46.19-114.28-64.84-43.65-21.36-95.84-30.06-135.58-59.84-38.06-28.51-13.65-56.75-35.92-85.21-18.12-23.18-55.66-24.07-61.61-59.8-11.07-66.53,77.08-57.39,118.12-76.11,42.67-19.46,84.37-46.41,127.37-67.75,43.47-21.58,91.82-55,137.09-70.6,82.19-28.29,210.93-28.71,231.35-138,8.47-45.43-9.52-87.47-9.68-132.6-18-46.55-46.11-90.28-54.93-138.37-17.37-94.85,36.26-193.92,71.5-278.16C1463.81,1234.14,1471,1223.59,1478.5,1213.18Z"/><path class="cls-115" d="M-28.65,2109.54S241.17,919.91,325.42,579.39c5.57-22.48,42.89-31.45,63.68-41.55a77.57,77.57,0,0,1,66-.82l50,22.78a78,78,0,0,1,45.54,67.38c13,277.77,78.22,1675.26,78.22,1675.26L588,2320.35S-18.36,2112.89-28.65,2109.54Z"/><path class="cls-97" d="M-69,2127S222.86,947.25,307.11,606.75a77.72,77.72,0,0,1,107.61-52.24l50,22.77a78,78,0,0,1,45.54,67.39c13,277.76,78.22,1675.26,78.22,1675.26S-57,2130.92-69,2127Z"/><path class="cls-130" d="M379.51,547.59a77.58,77.58,0,0,1,35.21,6.92l50,22.77a78,78,0,0,1,45.54,67.39c13,277.76,78.22,1675.26,78.22,1675.26l-227.95-66.77c.17-2.23.32-4.39.47-6.46C390,1837.58,425.32,1431,421.71,1019.82,421.64,1011.07,425.32,697.24,379.51,547.59Z"/><ellipse class="cls-117" cx="380.85" cy="771.62" rx="62.78" ry="105.98"/><ellipse class="cls-118" cx="364.69" cy="762.84" rx="62.78" ry="105.98"/></g></g></svg>