<svg id="Concrete" xmlns="http://www.w3.org/2000/svg" xmlns:xlink="http://www.w3.org/1999/xlink" viewBox="0 0 1920 1080"><defs><style>.cls-1,.cls-49,.cls-50,.cls-51,.cls-58{fill:none;}.cls-2{fill:#bee6ff;}.cls-3,.cls-57,.cls-61{fill:#1f398e;}.cls-4{fill:#020202;opacity:0.2;}.cls-5,.cls-56{fill:#4180e2;}.cls-6{fill:#1b42a7;}.cls-52,.cls-59,.cls-60,.cls-7{fill:#e8f6ff;}.cls-8{fill:#05607f;}.cls-9{fill:#212020;}.cls-10{fill:#383534;}.cls-11{fill:#f57319;}.cls-12{fill:#ffeeb7;}.cls-13{fill:#eba298;}.cls-14{fill:#303033;}.cls-15{fill:#fff;}.cls-16{fill:#778489;}.cls-17{fill:#abbec5;}.cls-18{isolation:isolate;}.cls-19{clip-path:url(#clip-path);}.cls-20{fill:#738085;}.cls-21{fill:#78858a;}.cls-22{fill:#7c8a8f;}.cls-23{fill:#818f94;}.cls-24{fill:#859499;}.cls-25{fill:#8a999e;}.cls-26{fill:#8e9da3;}.cls-27{fill:#93a2a8;}.cls-28{fill:#97a7ad;}.cls-29{fill:#9bacb3;}.cls-30{fill:#a0b1b8;}.cls-31{clip-path:url(#clip-path-2);}.cls-32{fill:#376a80;}.cls-33{fill:#396e85;}.cls-34{fill:#3b7189;}.cls-35{fill:#3d758d;}.cls-36{fill:#3f7992;}.cls-37{fill:#417c96;}.cls-38{fill:#43809b;}.cls-39{fill:#44849f;}.cls-40{fill:#35667c;}.cls-41{fill:#336377;}.cls-42{fill:#315f73;}.cls-43{fill:#336277;}.cls-44{fill:#8979cc;}.cls-45{fill:#498dab;}.cls-46{fill:#cccecc;}.cls-47{fill:#eaeaea;}.cls-48{fill:#424141;}.cls-49,.cls-50,.cls-51{stroke:#e8f6ff;stroke-linecap:round;stroke-linejoin:round;stroke-width:2.62px;}.cls-50{stroke-dasharray:4.5 4.5;}.cls-51{stroke-dasharray:4.58;}.cls-52{font-size:32.03px;}.cls-52,.cls-56,.cls-57,.cls-59,.cls-60,.cls-61{font-family:OpenSans-SemiBold, Open Sans;font-weight:600;}.cls-53{fill:#222229;}.cls-54{fill:#283035;}.cls-55{fill:#1651da;}.cls-56{font-size:137.86px;}.cls-57{font-size:33.78px;}.cls-58{stroke:#1f398e;stroke-miterlimit:10;stroke-width:2.35px;}.cls-59{font-size:36.21px;}.cls-60,.cls-61{font-size:30.4px;}</style><clipPath id="clip-path"><path id="SVGID" class="cls-1" d="M1764.59,862.8a.45.45,0,0,1,.26.36v-.88a.45.45,0,0,0-.26-.36v0a1.38,1.38,0,0,0-1.25,0v0a.41.41,0,0,0-.26.36v.88a.44.44,0,0,1,.27-.37A1.38,1.38,0,0,1,1764.59,862.8Z"/></clipPath><clipPath id="clip-path-2"><path id="SVGID-2" data-name="SVGID" class="cls-1" d="M1763.08,862.28v.88a.45.45,0,0,0,.26.36,1.38,1.38,0,0,0,1.25,0,.44.44,0,0,0,.27-.36v-.88a.46.46,0,0,1-.26.37,1.4,1.4,0,0,1-1.26,0A.41.41,0,0,1,1763.08,862.28Z"/></clipPath></defs><rect class="cls-2" width="1920" height="1080"/><polygon class="cls-3" points="0 831.17 0 1080 1920 1080 1920 749.47 1039.02 237 0 831.17"/><polygon class="cls-4" points="1621.44 1005.11 1741.75 935.64 1675.41 897.34 1555.09 966.8 1621.44 1005.11"/><polygon class="cls-5" points="1686.76 931.87 1657.37 914.94 1663.73 911.27 1693.12 928.19 1686.76 931.87"/><polygon class="cls-6" points="1692.66 930.03 1686.29 933.71 1686.76 931.87 1693.12 928.19 1692.66 930.03"/><polygon class="cls-7" points="1657.37 914.94 1657.7 917.22 1686.29 933.71 1686.76 931.87 1657.37 914.94"/><polygon class="cls-6" points="1699.86 875.46 1686.75 931.9 1693.12 928.23 1706.22 871.79 1699.86 875.46"/><polygon class="cls-6" points="1704.42 870.75 1698.06 874.42 1699.86 875.46 1706.22 871.79 1704.42 870.75"/><polygon class="cls-7" points="1686.75 931.9 1684.95 930.86 1698.06 874.42 1699.86 875.46 1686.75 931.9"/><polygon class="cls-6" points="1650.6 847.03 1659.17 915.98 1665.54 912.31 1656.97 843.35 1650.6 847.03"/><polygon class="cls-6" points="1655.17 842.31 1648.8 845.99 1650.6 847.03 1656.97 843.35 1655.17 842.31"/><polygon class="cls-7" points="1659.17 915.98 1657.37 914.94 1648.8 845.99 1650.6 847.03 1659.17 915.98"/><polygon class="cls-5" points="1618.86 970.96 1589.47 954.04 1595.84 950.36 1625.23 967.29 1618.86 970.96"/><polygon class="cls-6" points="1624.76 969.12 1618.4 972.8 1618.86 970.96 1625.23 967.29 1624.76 969.12"/><polygon class="cls-7" points="1589.47 954.04 1589.81 956.31 1618.4 972.8 1618.86 970.96 1589.47 954.04"/><polygon class="cls-6" points="1631.96 914.56 1618.86 970.99 1625.22 967.32 1638.33 910.88 1631.96 914.56"/><polygon class="cls-6" points="1636.53 909.84 1630.16 913.52 1631.96 914.56 1638.33 910.88 1636.53 909.84"/><polygon class="cls-7" points="1618.86 970.99 1617.06 969.95 1630.16 913.52 1631.96 914.56 1618.86 970.99"/><polygon class="cls-6" points="1582.71 886.12 1591.28 955.07 1597.65 951.4 1589.07 882.44 1582.71 886.12"/><polygon class="cls-6" points="1587.27 881.4 1580.91 885.08 1582.71 886.12 1589.07 882.44 1587.27 881.4"/><polygon class="cls-7" points="1591.28 955.07 1589.48 954.03 1580.91 885.08 1582.71 886.12 1591.28 955.07"/><polygon class="cls-5" points="1713.86 874 1647.28 835.54 1655.58 830.75 1722.16 869.21 1713.86 874"/><polygon class="cls-6" points="1722.16 871.92 1713.86 876.71 1713.86 874 1722.16 869.21 1722.16 871.92"/><polygon class="cls-7" points="1647.28 835.54 1647.28 838.25 1713.86 876.71 1713.86 874 1647.28 835.54"/><polygon class="cls-5" points="1580.1 884.16 1655.61 840.32 1647.31 835.53 1571.81 879.37 1580.1 884.16"/><polygon class="cls-7" points="1571.81 882.08 1580.1 886.88 1580.1 884.16 1571.81 879.37 1571.81 882.08"/><polygon class="cls-6" points="1655.61 840.32 1655.61 843.03 1580.1 886.88 1580.1 884.16 1655.61 840.32"/><polygon class="cls-5" points="1638.37 917.84 1713.88 874 1705.58 869.21 1630.07 913.04 1638.37 917.84"/><polygon class="cls-7" points="1630.07 915.76 1638.37 920.55 1638.37 917.84 1630.07 913.04 1630.07 915.76"/><polygon class="cls-6" points="1713.88 874 1713.88 876.71 1638.37 920.55 1638.37 917.84 1713.88 874"/><polygon class="cls-5" points="1630.1 922.61 1563.52 884.15 1571.82 879.36 1638.4 917.82 1630.1 922.61"/><polygon class="cls-6" points="1638.4 920.53 1630.1 925.33 1630.1 922.61 1638.4 917.82 1638.4 920.53"/><polygon class="cls-7" points="1563.52 884.15 1563.52 886.87 1630.1 925.33 1630.1 922.61 1563.52 884.15"/><polygon class="cls-5" points="1630.07 913.04 1580.1 884.16 1655.61 840.32 1705.58 869.21 1630.07 913.04"/><path class="cls-6" d="M1655.11,843.32l37.25,21.52s-28,41.78-64.63,37.54l-37.25-21.53C1627.07,885.09,1655.11,843.32,1655.11,843.32Z"/><path class="cls-6" d="M1593.53,872.11,1632,894.24l-4.67,8.1-38.45-22.12a2.28,2.28,0,0,1-1-2.18,7.32,7.32,0,0,1,3.3-5.74A2.29,2.29,0,0,1,1593.53,872.11Z"/><path class="cls-8" d="M1629.57,894.39a7.32,7.32,0,0,0-3.3,5.74c0,2.12,1.48,3,3.3,1.93a7.32,7.32,0,0,0,3.3-5.74C1632.87,894.2,1631.39,893.34,1629.57,894.39Z"/><path class="cls-6" d="M1627.52,902.08a1.89,1.89,0,0,1-.94-1.07,3,3,0,0,1,0-1.32,7.26,7.26,0,0,1,.93-2.56,10.59,10.59,0,0,1,1.66-2.2,2.93,2.93,0,0,1,1.36-.8,1.81,1.81,0,0,1,1.94,1,2.54,2.54,0,0,1,.1,2,8.76,8.76,0,0,1-1.29,2.75,8.09,8.09,0,0,1-.93,1s0,.07.09.09.12,0,.16,0a.51.51,0,0,0,.28-.19,5.46,5.46,0,0,1-.36.48,2.76,2.76,0,0,1-2.08,1A1.91,1.91,0,0,1,1627.52,902.08Zm.61-.5a1.69,1.69,0,0,1-.92-1.54,4.2,4.2,0,0,1,.17-1.13,7.45,7.45,0,0,1,1.85-3.35,3.09,3.09,0,0,1,1-.74,1.39,1.39,0,0,1,1.25,0,1.5,1.5,0,0,1,.62,1.34,4.17,4.17,0,0,1-.35,1.45,7.27,7.27,0,0,1-1.08,2,2.68,2.68,0,0,1-1.15.93,1.21,1.21,0,0,1-1.41-.33,1.92,1.92,0,0,1-.06-1.68,4.91,4.91,0,0,1,1.69-2.33,1.31,1.31,0,0,1,.76-.32h0a.94.94,0,0,1,.81,1,2.69,2.69,0,0,1-.42,1.24,5,5,0,0,1-.6.85c-.19.2-.62.67-1.1.31a.71.71,0,0,1-.19-.79,2,2,0,0,1,.73-1.09l.28.38a1.45,1.45,0,0,0-.55.83c0,.14,0,.26,0,.29s.15.08.46-.25a4.7,4.7,0,0,0,.54-.76,2.27,2.27,0,0,0,.36-1c0-.26-.14-.54-.35-.55a.8.8,0,0,0-.5.23,4.51,4.51,0,0,0-1.53,2.1,1.47,1.47,0,0,0,0,1.25.75.75,0,0,0,.86.17,2.28,2.28,0,0,0,1-.78,7,7,0,0,0,1-1.83,3.71,3.71,0,0,0,.32-1.28,1.1,1.1,0,0,0-.4-.94.9.9,0,0,0-.82,0,2.67,2.67,0,0,0-.87.63,7.08,7.08,0,0,0-1.72,3.15,3.67,3.67,0,0,0-.16,1,1.23,1.23,0,0,0,.64,1.11c.73.33,1.83-.57,2.55-1.54a8.13,8.13,0,0,0,1.22-2.6,2.05,2.05,0,0,0-.06-1.6,1.35,1.35,0,0,0-1.41-.82,2.43,2.43,0,0,0-1.14.67,9.92,9.92,0,0,0-1.59,2.1,6.74,6.74,0,0,0-.87,2.4,2.6,2.6,0,0,0,0,1.11,1.42,1.42,0,0,0,.7.79,2.24,2.24,0,0,0,2.39-.59A2,2,0,0,1,1628.13,901.58Z"/><path class="cls-6" d="M1655,835.9,1693.51,858l-4.67,8.1L1650.39,844a2.29,2.29,0,0,1-1-2.18,7.32,7.32,0,0,1,3.3-5.74A2.29,2.29,0,0,1,1655,835.9Z"/><path class="cls-8" d="M1691.08,858.18a7.32,7.32,0,0,0-3.3,5.74c0,2.11,1.48,3,3.3,1.93a7.35,7.35,0,0,0,3.3-5.74C1694.38,858,1692.9,857.13,1691.08,858.18Z"/><path class="cls-6" d="M1689,865.87a1.89,1.89,0,0,1-.94-1.07,3.1,3.1,0,0,1,0-1.32,7.07,7.07,0,0,1,.93-2.56,10.59,10.59,0,0,1,1.66-2.2,2.93,2.93,0,0,1,1.36-.8A1.81,1.81,0,0,1,1694,859a2.54,2.54,0,0,1,.1,2,8.4,8.4,0,0,1-1.3,2.74,6.42,6.42,0,0,1-.93,1l.09.09s.12,0,.17,0a.51.51,0,0,0,.28-.19,5.46,5.46,0,0,1-.36.48,2.78,2.78,0,0,1-2.09,1A2,2,0,0,1,1689,865.87Zm.62-.5a1.66,1.66,0,0,1-.92-1.54,4.2,4.2,0,0,1,.17-1.13,7.53,7.53,0,0,1,1.84-3.35,3.22,3.22,0,0,1,1-.74,1.39,1.39,0,0,1,1.25,0,1.53,1.53,0,0,1,.62,1.34,4.17,4.17,0,0,1-.35,1.45,7.56,7.56,0,0,1-1.08,1.95,2.64,2.64,0,0,1-1.16.93,1.19,1.19,0,0,1-1.4-.33,1.92,1.92,0,0,1-.07-1.68,5,5,0,0,1,1.69-2.33,1.34,1.34,0,0,1,.77-.32h0a.94.94,0,0,1,.81,1,2.59,2.59,0,0,1-.43,1.24,4,4,0,0,1-.6.84c-.18.21-.61.68-1.09.32a.71.71,0,0,1-.19-.79,1.9,1.9,0,0,1,.73-1.1l.27.39a1.51,1.51,0,0,0-.55.82c0,.15,0,.27,0,.3s.16.08.47-.25a4.41,4.41,0,0,0,.54-.77,2.31,2.31,0,0,0,.36-1c0-.26-.14-.54-.36-.55a.85.85,0,0,0-.49.22,4.52,4.52,0,0,0-1.53,2.11,1.4,1.4,0,0,0,0,1.25.76.76,0,0,0,.86.17,2.28,2.28,0,0,0,.95-.78,7.26,7.26,0,0,0,1-1.83,4,4,0,0,0,.32-1.28,1.09,1.09,0,0,0-.4-.94.92.92,0,0,0-.83,0,2.6,2.6,0,0,0-.86.63,7,7,0,0,0-1.72,3.14,3.43,3.43,0,0,0-.16,1,1.21,1.21,0,0,0,.64,1.12c.73.33,1.83-.57,2.55-1.55a8.41,8.41,0,0,0,1.22-2.59,2,2,0,0,0-.07-1.6,1.35,1.35,0,0,0-1.4-.83,2.57,2.57,0,0,0-1.15.68,10.23,10.23,0,0,0-1.58,2.1,6.58,6.58,0,0,0-.87,2.39,2.64,2.64,0,0,0,0,1.12,1.47,1.47,0,0,0,.71.79,2.24,2.24,0,0,0,2.39-.59A2,2,0,0,1,1689.64,865.37Z"/><ellipse class="cls-4" cx="1712.06" cy="989.21" rx="39.04" ry="19.67"/><path class="cls-9" d="M1732.35,975.65s-.45-.77-1.17-1.74c-1.43-1.93-3.87-4.67-5.82-4-2.94,1-3,4.32-2.42,6.29s2.52,3.38,3.34,4.74,4.54,6,7,4.82,2.75-3.84,1.18-6.9S1732.35,975.65,1732.35,975.65Z"/><path class="cls-10" d="M1732.4,972.18s-4-1.77-4.8-2.3-3.68-.69-4.11,1.41-.38,4.27,1.2,6,4.22,5.91,5.08,6.43,2.76,1.67,4.53.57c1.53-1,1-1.52,1-3.31S1732.4,972.18,1732.4,972.18Z"/><path class="cls-11" d="M1722.94,895.12a42.76,42.76,0,0,1,4.34,12.1c1,6,3.76,28.6,4.26,31.35s4.67,16.42,4,20.62-.64,18.42-.64,18.42-3.75,3.33-5.81.79-2.42-11.85-3.91-15.24-2.25-9-2.56-11.32l-.67-4.91a174.77,174.77,0,0,1-7.59-22.82C1711.66,913.06,1708.54,893,1722.94,895.12Z"/><path class="cls-9" d="M1704.64,989.73s1.2,6-.66,7c-4.83,2.48-9.55-1.35-12-1s-9.47-.06-10.84-1.73-2.6-4.41-1.24-6.65c.68-1.12,7.47,1.5,9.06.89a79,79,0,0,1,7.82-1.72Z"/><path class="cls-12" d="M1704.77,988.32s1.2,6-.66,7c-4.83,2.48-9.54-1.35-12-.95s-9.46-.07-10.84-1.73-2.2-5.06-1-5.58,7.24.43,8.83-.18a79,79,0,0,1,7.82-1.72Z"/><path class="cls-11" d="M1726,900.2a12.48,12.48,0,0,1-.83,8.94c-2.07,4.24-5.7,10.83-9.09,12.77-2.78,1.6-9.72,26.37-10,29.15s2.9,13.8,1.92,20.09-2.44,18.15-2.44,18.15a6.59,6.59,0,0,1-7,.23c-3.76-2.14-3.53-4.57-3.53-4.57a37.17,37.17,0,0,0,1.45-5.84c.19-2-3.1-18.41-2.87-22.22s-.65-6.57-.34-9.86-1.17-24,.28-31.24,7.06-15.16,7.06-15.16l22.2-6.61a22.73,22.73,0,0,1,3,5.76C1726,899.92,1726,900.06,1726,900.2Z"/><path class="cls-11" d="M1686.33,874.87c.12,4.47,3.53,13.5,5.83,17.7l.06.11a30.6,30.6,0,0,0,2.23,3.36c.36.47.72.92,1.06,1.37a21.61,21.61,0,0,1,2.16,3.14l.26.56a5.68,5.68,0,0,1,.44,1.57c.08.7.15,1.4.27,2,.42,2.18,1.5,3.76,6.23,3.23a9.41,9.41,0,0,0,2-.54c5.73-2.16,13.46-5,15-8.81,1.75-4.29.71-6.07.71-6.07s-.27-1.92-.67-4.57c0-.14,0-.29-.07-.43-.34-2.21-.76-4.85-1.19-7.33,0-.2-.07-.39-.11-.58-.2-1.17-.41-2.29-.61-3.29a23,23,0,0,0-1-3.8c-.65-1.29-1.15-2.38-1.47-3.09s-.42-1-.42-1-.08-16.05-7.85-17.82a7.61,7.61,0,0,0-4.66.3,6.56,6.56,0,0,0-3.23,2.89l-.08-.13-1.85-2.89-.22-.34-8.34,6.39-1.38,1.06.17.28a.67.67,0,0,0,.06.12c.14.26.35.63.56,1.06s.46.93.7,1.46a.14.14,0,0,1,0,.06c.06.12.11.25.16.37s.11.25.15.38.11.25.15.39.08.22.11.32l.07.21c0,.12.08.23.11.34a7.29,7.29,0,0,1,.19.85,2,2,0,0,1,0,.24,2.79,2.79,0,0,1,0,1,3,3,0,0,1-.47,1,9.43,9.43,0,0,1-.76,1c-1.46,1.75-3.74,4-4.26,6.77A5.28,5.28,0,0,0,1686.33,874.87Z"/><path class="cls-13" d="M1704.38,856.28c1.29,7.15-7.62,9.1-9.48,8.86a5.54,5.54,0,0,0-3.47.84,3.09,3.09,0,0,0,.47-1c.53-2.07-2.45-7.1-2.45-7.1l9.72-7.43,2.15,3.35S1704.12,854.84,1704.38,856.28Z"/><path class="cls-13" d="M1679.91,842.86s-.34,4,.6,5.52,1,.27,1.06,1.74-.45,1.16.84,3.46.36,3.29,1.81,3.75a30.29,30.29,0,0,0,5.23.6s7.45-2.66,9.1-5.49,3.44-7.31.76-12.05-8.08-5.17-11.22-4.22S1681.27,836.89,1679.91,842.86Z"/><path class="cls-14" d="M1682.18,837.48c-.18.19-2.93,1.33-2.87,3.26a26.49,26.49,0,0,1-.33,3.9c0,1,5,6.91,6.25,7.66s.49,1.94,1,1.76,1.12-1.77,1.12-1.77,2,3,2.33,3.75,4.16,2.39,7.08,1.91,4.34-4,4.34-4,6.08-9.71-3.32-16.8C1692.12,832.85,1685.83,833.77,1682.18,837.48Z"/><path class="cls-13" d="M1686.62,853.63s1-2.63,2.25-2,2.42,2,1.57,3.3-1.76,1.8-2.43,1.53.44-.61.52-1.53S1686.62,853.63,1686.62,853.63Z"/><path class="cls-15" d="M1703.93,854.85l-2.61-1s2.17,2.62-4.68,6.59c-3,1.75-4.73.74-5.22,1.62s-.75,4.91-.75,4.91,6-.82,9.72-3.08S1705.82,858,1703.93,854.85Z"/><path class="cls-13" d="M1658,884l-4.57-4.57-3.68-.75a1.78,1.78,0,0,0,1.31,2.22l1.66,1-5.28-.67-5.21,1.54s-2.81,3-.86,4a55.54,55.54,0,0,0,5.81,2.43l10.84-.66Z"/><path class="cls-7" d="M1676.39,884.07s-15-1.42-18.55-1.8-2.19,5.65-2.19,5.65,5.34,5.73,11.66,6.27,11.55,3.55,14.31-.32S1676.39,884.07,1676.39,884.07Z"/><path class="cls-7" d="M1701.37,875.54s-.7-3.63-3.42-4.89a6.57,6.57,0,0,0-7.6,1c-2.17,2-9.35,8-9.35,8s-9.79,1.5-10,11.13c-.16,6.51,10.67,4.5,10.67,4.5s17.4-9.13,19.16-11.83S1701.37,875.54,1701.37,875.54Z"/><ellipse class="cls-4" cx="1785.88" cy="952.19" rx="40.4" ry="22.25"/><path d="M1798.53,949.25s-.34-.78-.89-1.8c-1.1-2-3.06-4.9-5-4.5-2.9.6-3.39,3.69-3.09,5.63s1.94,3.52,2.55,4.91,3.51,6.3,6,5.45,3.08-3.27,2-6.36S1798.53,949.25,1798.53,949.25Z"/><path class="cls-12" d="M1799,946s-3.51-2.18-4.24-2.79-3.38-1.13-4,.8-.91,4,.36,5.8,3.23,6.12,4,6.73,2.38,1.93,4.2,1.12c1.57-.7,1.16-1.3,1.36-3S1799,946,1799,946Z"/><path class="cls-11" d="M1800,872a40.58,40.58,0,0,1,2.55,12c.12,5.81-.12,27.5,0,30.16s2.3,16.12,1.09,20-3,17.33-3,17.33-4,2.66-5.58,0-.77-11.51-1.74-14.9-1-8.85-1-11v-4.72a166.38,166.38,0,0,1-4.24-22.54C1787,887.46,1786.66,868.08,1800,872Z"/><path d="M1788.6,956.29s1.68,5.59,0,6.67c-4.37,2.78-9.18-.43-11.49.18s-9,.79-10.44-.67-2.87-4-1.77-6.2c.54-1.12,7.22.75,8.67,0s7.27-2.33,7.27-2.33Z"/><path class="cls-12" d="M1788.6,954.94s1.68,5.59,0,6.67c-4.37,2.78-9.18-.43-11.49.18s-9,.78-10.44-.67-2.55-4.6-1.46-5.21,6.91-.24,8.36-1,7.27-2.33,7.27-2.33Z"/><path class="cls-11" d="M1796.13,877.77s1.87,9.86-2.74,13.11c-2.49,1.77-6.85,25.9-6.85,28.57s4,12.84,3.63,18.89-.68,17.45-.68,17.45a6.29,6.29,0,0,1-6.59.85c-3.75-1.7-3.75-4-3.75-4A36.17,36.17,0,0,0,1780,947c0-1.94-4.6-17.21-4.72-20.84s-1.21-6.18-1.21-9.33-3.27-22.66-2.55-29.68,5.33-15,5.33-15l16.48,1Z"/><path class="cls-7" d="M1802.29,833s2.46-2.27,3.39-2c7,2.42,11,22.39,9.33,28.65s-12.72,11.8-12.72,11.8a13.12,13.12,0,0,1-3.64-6.77c-.73-4.11,5.33-7.61,5.33-7.61h.61l.37-1,.22-1.91S1799.5,838.88,1802.29,833Z"/><path class="cls-7" d="M1773.94,887.26c.17,5,6.9,2.2,13.57,3.09s10.61-6.69,11.88-8.18c3.43-4,3.75-11.92,3.75-11.92s-.65-4.36-.85-7.5,1.07-5.25,2.28-10.34c.16-.67.36-1.47.56-2.37.31-1.38.66-3,1-4.66.17-.89.33-1.81.47-2.73.07-.43.13-.87.18-1.3.57-4.4.58-8.62-1.08-10.34l0,0c-.38-.39-.2-.18-1.31-.76-.35-.18-.81-.44-1.46-.82a7.78,7.78,0,0,0-3.35-.23l-.41,0c-1,.06-2,.18-2.93.3-1.74.22-3.13.46-3.13.46a5.27,5.27,0,0,1-.12.9c-.15.72-.48,1.64-1.22,1.86-1.62.49-8.12.64-8.72,1-.38.22-.82.5-1.31.83a33.33,33.33,0,0,0-4.25,3.36,18.3,18.3,0,0,0-3.5,4.27c-1,1.91-1,5.94-.59,9.88.35,3.49,1,6.9,1.31,8.69.15.82.26,1.3.26,1.3s-3.28,14.77-3.28,15.91S1773.84,884.18,1773.94,887.26Z"/><path class="cls-13" d="M1792.71,826.28l.25,4.44s-3,2.57-6,3-5.1.65-5.1.65V827Z"/><path d="M1779.39,821.92c0-.18-1-3.68-.79-4.73a11.3,11.3,0,0,0,.12-2.36s.18-5,5-6.17c4.12-1,7.93-.67,11.33,4.23,2.69,3.9,1.14,8.16.84,9-.76,2.22-2,4.84-2.9,5.21s-6.85,1.63-8.06,1.21a9.44,9.44,0,0,1-3-1.64C1781.62,826.34,1779.39,821.92,1779.39,821.92Z"/><path class="cls-13" d="M1778.72,814.83a3.6,3.6,0,0,0-.48,2.36,7.79,7.79,0,0,1,.21,2.06c0,.85-.39.37,0,1.7a22.6,22.6,0,0,1,.91,4.24c.06,1,2.48,2.61,3.09,2.88a9.47,9.47,0,0,0,2.42.27l-2.38-1.37s.64-.27.32-1.54-.65-2.24-1.3-2.3-.64.79-.64.79-1.57-3.46-1.75-4.18S1778.72,814.83,1778.72,814.83Z"/><path class="cls-11" d="M1771.63,890.19c.17,5,8.47,4.06,15.14,4.94s13.35-8.11,14.62-9.6c3.43-4,1.75-15.28,1.75-15.28s-.65-4.36-.85-7.5,1.07-5.25,2.28-10.34c.16-.67.36-1.47.56-2.37.31-1.38.66-3,1-4.66.17-.89.33-1.81.47-2.73a35.49,35.49,0,0,1-3.91,2.87c-5.61,3.58-15.41,7.79-29.33,6.51.35,3.49,1,6.9,1.31,8.69.15.82.26,1.3.26,1.3s-3.28,14.77-3.28,15.91S1771.52,887.11,1771.63,890.19Z"/><polygon class="cls-16" points="1741.72 856.65 1741.72 857.52 1753.89 850.57 1753.89 849.69 1741.72 856.65"/><polygon class="cls-17" points="1753.89 849.69 1753.89 850.57 1768.42 859.1 1768.42 858.22 1753.89 849.69"/><g class="cls-18"><g class="cls-19"><g class="cls-18"><path class="cls-20" d="M1763.08,862.28v.88a.44.44,0,0,1,.27-.37l.13-.06v-.88l-.13.07a.41.41,0,0,0-.26.36Z"/><path class="cls-21" d="M1763.47,861.85v.88l.1,0v-.88l-.1,0Z"/><path class="cls-22" d="M1763.57,861.82v.88l.1,0v-.87l-.1,0Z"/><path class="cls-23" d="M1763.67,861.8v.87h.09v-.88l-.09,0Z"/><path class="cls-24" d="M1763.76,861.78v.88h.08v-.88Z"/><path class="cls-25" d="M1763.84,861.77v.88h.09v-.87Z"/><path class="cls-26" d="M1763.93,861.77v.87h.09v-.87Z"/><path class="cls-27" d="M1764,861.77v.87h.1v-.88Z"/><path class="cls-28" d="M1764.12,861.77v.88l.11,0v-.88l-.11,0Z"/><path class="cls-29" d="M1764.23,861.79v.88l.17,0v-.88l-.17,0Z"/><path class="cls-30" d="M1764.4,861.83v.88a.66.66,0,0,1,.19.09h0v-.88h0a.84.84,0,0,0-.19-.09Z"/><path class="cls-29" d="M1764.6,861.92v.88l.12.09V862l-.12-.09Z"/><path class="cls-28" d="M1764.72,862v.88l0,.06v-.88l0-.06Z"/><path class="cls-27" d="M1764.77,862.07V863l0,0v-.88l0,0Z"/><path class="cls-26" d="M1764.81,862.12V863s0,0,0,0v-.88l0,0Z"/><path class="cls-25" d="M1764.83,862.17v.88a.09.09,0,0,1,0,.05v-.88a.11.11,0,0,0,0-.05Z"/><path class="cls-24" d="M1764.84,862.22v.88a.09.09,0,0,1,0,0v-.88a.11.11,0,0,0,0,0Z"/><polygon class="cls-23" points="1764.85 862.27 1764.85 863.15 1764.85 863.16 1764.85 862.28 1764.85 862.27 1764.85 862.27"/></g></g></g><g class="cls-18"><g class="cls-31"><g class="cls-18"><polygon class="cls-32" points="1763.08 862.28 1763.07 863.15 1763.07 863.16 1763.08 862.29 1763.08 862.28 1763.08 862.28"/><path class="cls-33" d="M1763.08,862.29v.87s0,0,0,.06v-.93Z"/><path class="cls-34" d="M1763.08,862.34v.88a.43.43,0,0,1,0,0v-.88a.43.43,0,0,0,0,0Z"/><path class="cls-35" d="M1763.09,862.39v.88l0,.05v-.88l0-.05Z"/><path class="cls-36" d="M1763.12,862.44v.88l0,0v-.88l0,0Z"/><path class="cls-37" d="M1763.15,862.49v.88l.06.06v-.88l-.06-.06Z"/><path class="cls-38" d="M1763.21,862.55v.88l.11.08v-.87l-.11-.09Z"/><path class="cls-39" d="M1763.32,862.64v.87h0l.19.09v-.88a.93.93,0,0,1-.2-.09Z"/><path class="cls-38" d="M1763.53,862.73v.88l.17,0v-.88l-.16,0Z"/><path class="cls-37" d="M1763.69,862.77v.88h.11v-.87l-.12,0Z"/><path class="cls-36" d="M1763.81,862.79v.87h.1v-.88Z"/><path class="cls-35" d="M1763.9,862.79v.88h.09v-.88Z"/><path class="cls-34" d="M1764,862.79v.88h.09v-.88Z"/><path class="cls-33" d="M1764.08,862.79v.88h.09v-.88Z"/><path class="cls-32" d="M1764.17,862.78v.88l.09,0v-.87Z"/><path class="cls-40" d="M1764.26,862.77v.87l.09,0v-.88l-.09,0Z"/><path class="cls-41" d="M1764.35,862.74v.88l.11,0v-.88l-.11,0Z"/><path class="cls-42" d="M1764.46,862.71v.88l.12-.07a.44.44,0,0,0,.27-.36v-.88a.46.46,0,0,1-.26.37l-.13.06Z"/></g></g></g><polygon class="cls-43" points="1756.24 865.18 1756.24 866.05 1768.42 859.1 1768.42 858.22 1756.24 865.18"/><path class="cls-44" d="M1763.34,861.92a.38.38,0,0,0,0,.72,1.4,1.4,0,0,0,1.26,0,.39.39,0,0,0,0-.73A1.38,1.38,0,0,0,1763.34,861.92Z"/><polygon class="cls-45" points="1741.72 856.65 1741.72 857.52 1756.24 866.05 1756.24 865.18 1741.72 856.65"/><polygon class="cls-10" points="1741.72 856.65 1756.24 865.18 1768.42 858.22 1753.89 849.69 1741.72 856.65"/><polygon class="cls-46" points="1745.16 856.51 1755.93 862.84 1764.96 857.68 1754.19 851.35 1745.16 856.51"/><polygon class="cls-47" points="1752.01 854.32 1755.07 856.12 1757.63 854.65 1754.57 852.86 1752.01 854.32"/><path class="cls-46" d="M1740,856.69h0a.2.2,0,0,0,0,.08v0l.06.07.07,0,0,0,17.1,10v.88l-17.1-10h0l0,0-.07,0h0l-.06-.06h0v0l0,0s0,0,0,0h0v-1h0A.31.31,0,0,0,1740,856.69Z"/><path class="cls-47" d="M1753.06,848.94a1.35,1.35,0,0,1,1.22,0l17.1,10c.34.19.33.51,0,.7L1758.59,867a1.35,1.35,0,0,1-1.22,0l-17.1-10c-.34-.2-.33-.51,0-.71Zm3.19,16.24,12.17-7-14.53-8.53-12.17,7,14.53,8.53Zm8.34-2.53a.39.39,0,0,0,0-.73,1.38,1.38,0,0,0-1.25,0,.38.38,0,0,0,0,.72,1.4,1.4,0,0,0,1.26,0Z"/><path class="cls-48" d="M1757.37,867l.17.07.06,0,.09,0,.1,0h.36l.14,0h0l.11,0h0l.13-.06,12.78-7.31a.42.42,0,0,0,.26-.35v.87a.45.45,0,0,1-.26.36l-12.78,7.3-.13.06h0s0,0,0,0l-.07,0h-.67l-.09,0h-.06l-.17-.07Z"/><polygon class="cls-47" points="1747.52 857.08 1747.98 857.35 1752.11 855 1751.63 854.72 1747.52 857.08"/><polygon class="cls-47" points="1748.78 857.8 1749.25 858.07 1753.38 855.73 1752.9 855.45 1748.78 857.8"/><polygon class="cls-47" points="1749.91 858.56 1750.38 858.84 1754.51 856.49 1754.03 856.21 1749.91 858.56"/><path class="cls-48" d="M1763.34,862a.39.39,0,0,0,0,.73,1.4,1.4,0,0,0,1.26,0,.39.39,0,0,0,0-.73A1.41,1.41,0,0,0,1763.34,862Z"/><path class="cls-13" d="M1758.31,868l-.94-4.49-3.77-2s-1.19,1.35,1.22,2.22l-.31,1.37-2.5-.32-3.32-2s-1.54,1,1.22,4a20,20,0,0,0,7.46,4.64Z"/><path class="cls-7" d="M1781.33,855.11s-5,14.69-6.79,16.34c-4.72,4.48-17.08,1.43-17.93,0s-1.82-4.22,1.82-5.92a15.3,15.3,0,0,1,8.09-.87s2.81-20.57,7.42-23.36S1783.63,843.48,1781.33,855.11Z"/><path class="cls-11" d="M1777.43,837.88c10.07,3.86,11.18,14.27,11.22,14.75l4.82-.43a23.33,23.33,0,0,0-11.79-17.68A33.33,33.33,0,0,0,1777.43,837.88Z"/><path class="cls-11" d="M1792.93,830.84c8.21,4.16,9.59,13.39,9.74,14.68,0,.09,0,.15,0,.15l3.43-.29c.17-.89.33-1.81.47-2.73.07-.43.13-.87.18-1.3a24.66,24.66,0,0,0-7.65-12.17c-1,.06-2,.18-2.93.3-1.74.22-3.13.46-3.13.46A5.27,5.27,0,0,1,1792.93,830.84Z"/><path class="cls-11" d="M1796.69,817.71s-8.1,5.09-18.43-1.31c0,0-1.16-12.18,10.87-10.18C1798,807.69,1796.69,817.71,1796.69,817.71Z"/><path class="cls-7" d="M1793.85,829.81s-.82-1.91-1.07-1.73a5.45,5.45,0,0,1-3.16,2.24c-2.29.63-7.35.79-8,1.69a16.82,16.82,0,0,0-1.34,3.4s10.08-.4,11.84-2.16A5.12,5.12,0,0,0,1793.85,829.81Z"/><path class="cls-11" d="M1779,816.86s-6.4-2.16-7.4-4.7,8.71-1.7,12.8-.08S1779,816.86,1779,816.86Z"/><polygon class="cls-4" points="1093.51 456.51 1164.32 415.62 1044.49 345.56 973.68 386.44 1093.51 456.51"/><polygon class="cls-7" points="1088.44 440.79 1144.3 408.54 1144.3 394.31 1088.44 426.56 1088.44 440.79"/><polygon class="cls-5" points="993.64 385.31 1088.51 440.79 1088.51 426.56 993.64 371.08 993.64 385.31"/><polygon class="cls-6" points="1088.33 426.45 1144.19 394.2 1049.67 338.93 993.81 371.18 1088.33 426.45"/><polygon class="cls-7" points="1088.44 419.37 1144.3 387.12 1144.3 372.88 1088.44 405.13 1088.44 419.37"/><polygon class="cls-5" points="993.64 363.89 1088.51 419.37 1088.51 405.13 993.64 349.66 993.64 363.89"/><polygon class="cls-6" points="1088.33 405.03 1144.19 372.79 1049.67 317.51 993.81 349.76 1088.33 405.03"/><polygon class="cls-7" points="1088.44 397.94 1144.3 365.69 1144.3 351.46 1088.44 383.71 1088.44 397.94"/><polygon class="cls-5" points="993.64 342.47 1088.51 397.94 1088.51 383.71 993.64 328.24 993.64 342.47"/><polygon class="cls-6" points="1088.33 383.61 1144.19 351.36 1049.67 296.09 993.81 328.34 1088.33 383.61"/><polygon class="cls-7" points="1088.44 376.52 1144.3 344.27 1144.3 330.04 1088.44 362.29 1088.44 376.52"/><polygon class="cls-5" points="993.64 321.05 1088.51 376.52 1088.51 362.29 993.64 306.82 993.64 321.05"/><polygon class="cls-6" points="1088.33 362.19 1144.19 329.94 1049.67 274.67 993.81 306.92 1088.33 362.19"/><polygon class="cls-7" points="1088.44 355.1 1144.3 322.85 1144.3 308.62 1088.44 340.87 1088.44 355.1"/><polygon class="cls-5" points="993.64 299.63 1088.51 355.1 1088.51 340.87 993.64 285.4 993.64 299.63"/><polygon class="cls-7" points="1088.33 340.77 1144.19 308.52 1049.67 253.25 993.81 285.5 1088.33 340.77"/><rect class="cls-5" x="1378.53" y="22" width="517.73" height="758" rx="43.48"/><polygon class="cls-5" points="1691 752 1764 823 1733 748 1691 752"/><polygon class="cls-49" points="1553.16 152.87 1552.82 273.47 1679.52 346.62 1713.4 326.92 1713.75 206.32 1587.05 133.17 1553.16 152.87"/><polyline class="cls-49" points="1713.75 206.32 1679.86 226.01 1553.16 152.87"/><line class="cls-49" x1="1679.52" y1="346.62" x2="1679.86" y2="226.01"/><line class="cls-49" x1="1596.55" y1="122" x2="1598.52" y2="123.16"/><line class="cls-50" x1="1602.41" y1="125.43" x2="1717.03" y2="192.39"/><line class="cls-49" x1="1718.97" y1="193.52" x2="1720.95" y2="194.68"/><line class="cls-51" x1="1726.26" y1="205.85" x2="1726.26" y2="328.29"/><line class="cls-51" x1="1545.68" y1="142.25" x2="1581.69" y2="121.3"/><text class="cls-52" transform="translate(1737.57 279.38) scale(1.03 1)">3m</text><text class="cls-52" transform="translate(1683.8 155.73) scale(1.03 1)">20m</text><text class="cls-52" transform="translate(1457.16 152.12) scale(1.03 1)">0.5m</text><polygon class="cls-4" points="989.43 743.79 836.52 655.51 1076.57 516.92 1229.48 605.2 989.43 743.79"/><polygon class="cls-5" points="906.58 660.09 888.91 650.05 888.91 636.75 906.58 646.79 906.58 660.09"/><polygon class="cls-6" points="1091.15 551.21 906.52 660.09 906.52 646.79 1091.15 537.92 1091.15 551.21"/><polygon class="cls-6" points="906.68 646.7 889.01 636.66 1073.32 527.97 1090.98 538.01 906.68 646.7"/><polygon class="cls-5" points="906.58 640.08 888.91 630.03 888.91 616.74 906.58 626.78 906.58 640.08"/><polygon class="cls-6" points="1091.15 531.2 906.52 640.08 906.52 626.78 1091.15 517.9 1091.15 531.2"/><polygon class="cls-6" points="906.68 626.68 889.01 616.64 1073.32 507.95 1090.98 518 906.68 626.68"/><polygon class="cls-5" points="906.58 620.06 888.91 610.02 888.91 596.72 906.58 606.76 906.58 620.06"/><polygon class="cls-6" points="1091.15 511.18 906.52 620.06 906.52 606.76 1091.15 497.89 1091.15 511.18"/><polygon class="cls-6" points="906.68 606.67 889.01 596.63 1073.32 487.94 1090.98 497.98 906.68 606.67"/><polygon class="cls-5" points="906.58 600.04 888.91 590 888.91 576.7 906.58 586.75 906.58 600.04"/><polygon class="cls-6" points="1091.15 491.17 906.52 600.04 906.52 586.75 1091.15 477.87 1091.15 491.17"/><polygon class="cls-6" points="906.68 586.65 889.01 576.61 1072.32 467.19 1090.98 477.96 906.68 586.65"/><polygon class="cls-5" points="906.58 580.03 888.91 569.99 888.91 556.69 906.58 566.73 906.58 580.03"/><polygon class="cls-6" points="1091.15 471.15 906.52 580.03 906.52 566.73 1091.15 457.86 1091.15 471.15"/><polygon class="cls-7" points="906.68 566.64 888.91 556.69 1073.21 448 1090.98 457.95 906.68 566.64"/><polygon class="cls-5" points="928.33 672.05 910.66 662 910.66 648.71 928.33 658.75 928.33 672.05"/><polygon class="cls-6" points="1112.9 563.17 928.27 672.05 928.27 658.75 1112.9 549.87 1112.9 563.17"/><polygon class="cls-6" points="928.43 658.66 910.77 648.61 1095.07 539.92 1112.73 549.97 928.43 658.66"/><polygon class="cls-5" points="928.33 652.03 910.66 641.99 910.66 628.69 928.33 638.74 928.33 652.03"/><polygon class="cls-6" points="1112.9 543.16 928.27 652.03 928.27 638.74 1112.9 529.86 1112.9 543.16"/><polygon class="cls-6" points="928.43 638.64 910.77 628.6 1095.07 519.91 1112.73 529.95 928.43 638.64"/><polygon class="cls-5" points="928.33 632.02 910.66 621.97 910.66 608.68 928.33 618.72 928.33 632.02"/><polygon class="cls-6" points="1112.9 523.14 928.27 632.02 928.27 618.72 1112.9 509.84 1112.9 523.14"/><polygon class="cls-6" points="928.43 618.63 910.77 608.58 1095.07 499.89 1112.73 509.94 928.43 618.63"/><polygon class="cls-5" points="928.33 612 910.66 601.96 910.66 588.66 928.33 598.71 928.33 612"/><polygon class="cls-6" points="1112.9 503.13 928.27 612 928.27 598.71 1112.9 489.83 1112.9 503.13"/><polygon class="cls-6" points="928.43 598.61 910.77 588.57 1094.07 479.14 1112.73 489.92 928.43 598.61"/><polygon class="cls-5" points="928.33 591.99 910.66 581.94 910.66 568.65 928.33 578.69 928.33 591.99"/><polygon class="cls-6" points="1112.9 483.11 928.27 591.99 928.27 578.69 1112.9 469.81 1112.9 483.11"/><polygon class="cls-7" points="928.43 578.6 910.66 568.65 1094.96 459.96 1112.73 469.91 928.43 578.6"/><polygon class="cls-5" points="950.08 684 932.41 673.96 932.41 660.66 950.08 670.71 950.08 684"/><polygon class="cls-6" points="1134.65 575.13 950.02 684 950.02 670.71 1134.65 561.83 1134.65 575.13"/><polygon class="cls-6" points="950.18 670.61 932.52 660.57 1116.82 551.88 1134.48 561.92 950.18 670.61"/><polygon class="cls-5" points="950.08 663.99 932.41 653.95 932.41 640.65 950.08 650.69 950.08 663.99"/><polygon class="cls-6" points="1134.65 555.11 950.02 663.99 950.02 650.69 1134.65 541.82 1134.65 555.11"/><polygon class="cls-6" points="950.18 650.6 932.52 640.55 1116.82 531.87 1134.48 541.91 950.18 650.6"/><polygon class="cls-5" points="950.08 643.98 932.41 633.93 932.41 620.63 950.08 630.68 950.08 643.98"/><polygon class="cls-6" points="1134.65 535.1 950.02 643.98 950.02 630.68 1134.65 521.8 1134.65 535.1"/><polygon class="cls-6" points="950.18 630.58 932.52 620.54 1116.82 511.85 1134.48 521.89 950.18 630.58"/><polygon class="cls-5" points="950.08 623.96 932.41 613.92 932.41 600.62 950.08 610.66 950.08 623.96"/><polygon class="cls-6" points="1134.65 515.08 950.02 623.96 950.02 610.66 1134.65 501.79 1134.65 515.08"/><polygon class="cls-6" points="950.18 610.57 932.52 600.52 1115.82 491.1 1134.48 501.88 950.18 610.57"/><polygon class="cls-5" points="950.08 603.94 932.41 593.9 932.41 580.6 950.08 590.65 950.08 603.94"/><polygon class="cls-6" points="1134.65 495.07 950.02 603.94 950.02 590.65 1134.65 481.77 1134.65 495.07"/><polygon class="cls-7" points="950.18 590.55 932.41 580.6 1116.71 471.91 1134.48 481.86 950.18 590.55"/><polygon class="cls-5" points="971.83 695.96 954.16 685.92 954.16 672.62 971.83 682.66 971.83 695.96"/><polygon class="cls-6" points="1156.4 587.09 971.77 695.96 971.77 682.66 1156.4 573.79 1156.4 587.09"/><polygon class="cls-6" points="971.94 682.57 954.27 672.53 1138.57 563.84 1156.24 573.88 971.94 682.57"/><polygon class="cls-5" points="971.83 675.95 954.16 665.9 954.16 652.61 971.83 662.65 971.83 675.95"/><polygon class="cls-6" points="1156.4 567.07 971.77 675.95 971.77 662.65 1156.4 553.77 1156.4 567.07"/><polygon class="cls-6" points="971.94 662.56 954.27 652.51 1138.57 543.82 1156.24 553.87 971.94 662.56"/><polygon class="cls-5" points="971.83 655.93 954.16 645.89 954.16 632.59 971.83 642.63 971.83 655.93"/><polygon class="cls-6" points="1156.4 547.05 971.77 655.93 971.77 642.63 1156.4 533.76 1156.4 547.05"/><polygon class="cls-6" points="971.94 642.54 954.27 632.5 1138.57 523.81 1156.24 533.85 971.94 642.54"/><polygon class="cls-5" points="971.83 635.92 954.16 625.87 954.16 612.58 971.83 622.62 971.83 635.92"/><polygon class="cls-6" points="1156.4 527.04 971.77 635.92 971.77 622.62 1156.4 513.74 1156.4 527.04"/><polygon class="cls-6" points="971.94 622.52 954.27 612.48 1137.57 503.06 1156.24 513.84 971.94 622.52"/><polygon class="cls-5" points="971.83 615.9 954.16 605.86 954.16 592.56 971.83 602.6 971.83 615.9"/><polygon class="cls-6" points="1156.4 507.02 971.77 615.9 971.77 602.6 1156.4 493.73 1156.4 507.02"/><polygon class="cls-7" points="971.94 602.51 954.16 592.56 1138.46 483.87 1156.24 493.82 971.94 602.51"/><polygon class="cls-5" points="993.58 707.92 975.91 697.88 975.91 684.58 993.58 694.62 993.58 707.92"/><polygon class="cls-7" points="1178.15 599.04 993.52 707.92 993.52 694.62 1178.15 585.75 1178.15 599.04"/><polygon class="cls-6" points="993.69 694.53 976.02 684.49 1160.32 575.8 1177.99 585.84 993.69 694.53"/><polygon class="cls-5" points="993.58 687.9 975.91 677.86 975.91 664.56 993.58 674.61 993.58 687.9"/><polygon class="cls-7" points="1178.15 579.03 993.52 687.9 993.52 674.61 1178.15 565.73 1178.15 579.03"/><polygon class="cls-6" points="993.69 674.51 976.02 664.47 1160.32 555.78 1177.99 565.82 993.69 674.51"/><polygon class="cls-5" points="993.58 667.89 975.91 657.85 975.91 644.55 993.58 654.59 993.58 667.89"/><polygon class="cls-7" points="1178.15 559.01 993.52 667.89 993.52 654.59 1178.15 545.72 1178.15 559.01"/><polygon class="cls-6" points="993.69 654.5 976.02 644.45 1160.32 535.77 1177.99 545.81 993.69 654.5"/><polygon class="cls-5" points="993.58 647.87 975.91 637.83 975.91 624.53 993.58 634.58 993.58 647.87"/><polygon class="cls-7" points="1178.15 539 993.52 647.87 993.52 634.58 1178.15 525.7 1178.15 539"/><polygon class="cls-6" points="993.69 634.48 976.02 624.44 1159.32 515.02 1177.99 525.79 993.69 634.48"/><polygon class="cls-5" points="993.58 627.86 975.91 617.81 975.91 604.52 993.58 614.56 993.58 627.86"/><polygon class="cls-7" points="1178.15 518.98 993.52 627.86 993.52 614.56 1178.15 505.68 1178.15 518.98"/><polygon class="cls-7" points="993.69 614.47 975.91 604.52 1160.21 495.83 1177.99 505.78 993.69 614.47"/><polygon class="cls-5" points="1029.51 696.97 1021.09 693.51 1021.09 617.63 1029.51 621.1 1029.51 696.97"/><polygon class="cls-7" points="1043.04 689.4 1029.45 696.97 1029.45 621.1 1043.04 613.53 1043.04 689.4"/><polygon class="cls-6" points="1029.61 621 1021.09 617.63 1034.35 610.26 1042.87 613.63 1029.61 621"/><polygon class="cls-5" points="1145.5 629.13 1137.08 625.66 1137.08 549.79 1145.5 553.25 1145.5 629.13"/><polygon class="cls-7" points="1159.03 621.56 1145.44 629.13 1145.44 553.25 1159.03 545.69 1159.03 621.56"/><polygon class="cls-6" points="1145.61 553.16 1137.08 549.79 1150.35 542.41 1158.87 545.78 1145.61 553.16"/><polygon class="cls-4" points="45.74 861 234.74 970 188.74 997 331.74 1079 518 1080.87 962.74 824 550.74 588 45.74 861"/><g class="cls-18"><polygon class="cls-5" points="129.85 831.19 129.91 852.59 442.42 1034.56 442.36 1013.16 129.85 831.19"/><polygon class="cls-6" points="442.36 1013.16 442.42 1034.56 817.87 817.43 817.81 796.04 442.36 1013.16"/><path class="cls-7" d="M129.85,831.19l312.51,182L817.81,796l-312.54-182c-2.94,1.69-158.81,92-240.38,139.13Z"/></g><g class="cls-18"><polygon class="cls-6" points="347.75 750.1 347.53 929.37 334.2 937.11 334.43 757.84 347.75 750.1"/><polygon class="cls-5" points="334.43 757.84 334.2 937.11 320.8 929.37 321.02 750.1 334.43 757.84"/><polygon class="cls-7" points="347.75 750.1 334.43 757.84 321.02 750.1 334.34 742.35 347.75 750.1"/></g><g class="cls-18"><polygon class="cls-6" points="452.55 810.73 452.33 990.01 439 997.75 439.23 818.48 452.55 810.73"/><polygon class="cls-5" points="439.23 818.48 439 997.75 425.6 990.01 425.82 810.73 439.23 818.48"/><polygon class="cls-7" points="452.55 810.73 439.23 818.48 425.82 810.73 439.14 802.99 452.55 810.73"/></g><g class="cls-18"><polygon class="cls-6" points="617.5 714.57 617.28 893.84 603.95 901.59 604.18 722.31 617.5 714.57"/><polygon class="cls-5" points="604.18 722.31 603.95 901.59 590.54 893.85 590.77 714.57 604.18 722.31"/><polygon class="cls-7" points="617.5 714.57 604.18 722.31 590.77 714.57 604.09 706.83 617.5 714.57"/></g><g class="cls-18"><polygon class="cls-6" points="672.49 682.51 672.26 861.79 658.94 869.53 659.16 690.25 672.49 682.51"/><polygon class="cls-5" points="659.16 690.25 658.94 869.53 645.53 861.79 645.75 682.51 659.16 690.25"/><polygon class="cls-7" points="672.49 682.51 659.16 690.25 645.75 682.51 659.08 674.77 672.49 682.51"/></g><g class="cls-18"><polygon class="cls-6" points="727.47 650.46 727.24 829.73 713.92 837.48 714.15 658.2 727.47 650.46"/><polygon class="cls-5" points="714.15 658.2 713.92 837.48 700.51 829.73 700.74 650.46 714.15 658.2"/><polygon class="cls-7" points="727.47 650.46 714.15 658.2 700.74 650.46 714.06 642.72 727.47 650.46"/></g><g class="cls-18"><polygon class="cls-6" points="782.45 618.4 782.23 797.68 768.9 805.42 769.13 626.14 782.45 618.4"/><polygon class="cls-5" points="769.13 626.14 768.9 805.42 755.5 797.68 755.72 618.4 769.13 626.14"/><polygon class="cls-7" points="782.45 618.4 769.13 626.14 755.72 618.4 769.04 610.66 782.45 618.4"/></g><g class="cls-18"><polygon class="cls-6" points="295.35 719.78 295.13 899.05 281.8 906.79 282.03 727.52 295.35 719.78"/><polygon class="cls-5" points="282.03 727.52 281.8 906.79 268.4 899.05 268.62 719.78 282.03 727.52"/><polygon class="cls-7" points="295.35 719.78 282.03 727.52 268.62 719.78 281.94 712.04 295.35 719.78"/></g><g class="cls-18"><polygon class="cls-6" points="242.95 689.46 242.73 868.73 229.4 876.48 229.63 697.2 242.95 689.46"/><polygon class="cls-5" points="229.63 697.2 229.4 876.48 216 868.73 216.22 689.46 229.63 697.2"/><polygon class="cls-7" points="242.95 689.46 229.63 697.2 216.22 689.46 229.54 681.72 242.95 689.46"/></g><g class="cls-18"><polygon class="cls-6" points="190.55 659.14 190.33 838.41 177 846.16 177.23 666.88 190.55 659.14"/><polygon class="cls-5" points="177.23 666.88 177 846.16 163.59 838.41 163.82 659.14 177.23 666.88"/><polygon class="cls-7" points="190.55 659.14 177.23 666.88 163.82 659.14 177.14 651.4 190.55 659.14"/></g><g class="cls-18"><polygon class="cls-6" points="843.21 567.08 843.14 592.65 433.29 831.19 433.36 805.62 843.21 567.08"/><polygon class="cls-5" points="433.36 805.62 433.29 831.19 104.37 641.29 104.44 615.72 433.36 805.62"/><polygon class="cls-7" points="843.21 567.08 433.36 805.62 104.44 615.72 514.32 377.2 843.21 567.08"/></g><g class="cls-18"><polygon class="cls-6" points="819.22 386.32 818.99 564.74 805.17 572.77 805.4 394.36 819.22 386.32"/><polygon class="cls-5" points="805.4 394.36 805.17 572.77 791.26 564.74 791.49 386.32 805.4 394.36"/><polygon class="cls-7" points="819.22 386.32 805.4 394.36 791.49 386.32 805.31 378.29 819.22 386.32"/></g><g class="cls-18"><polygon class="cls-6" points="571.3 529.11 571.07 707.52 557.25 715.56 557.48 537.14 571.3 529.11"/><polygon class="cls-5" points="557.48 537.14 557.25 715.56 543.34 707.52 543.57 529.11 557.48 537.14"/><polygon class="cls-7" points="571.3 529.11 557.48 537.14 543.57 529.11 557.39 521.08 571.3 529.11"/></g><g class="cls-18"><polygon class="cls-6" points="529.4 218.84 529.16 397.25 515.35 405.28 515.58 226.87 529.4 218.84"/><polygon class="cls-5" points="515.58 226.87 515.35 405.28 501.43 397.25 501.67 218.84 515.58 226.87"/><polygon class="cls-7" points="529.4 218.84 515.58 226.87 501.67 218.84 515.49 210.81 529.4 218.84"/></g><g class="cls-18"><polygon class="cls-6" points="405.44 290.23 405.2 468.64 391.38 476.68 391.62 298.26 405.44 290.23"/><polygon class="cls-5" points="391.62 298.26 391.38 476.68 377.47 468.64 377.71 290.23 391.62 298.26"/><polygon class="cls-7" points="405.44 290.23 391.62 298.26 377.71 290.23 391.53 282.2 405.44 290.23"/></g><g class="cls-18"><polygon class="cls-6" points="281.48 361.62 281.24 540.04 267.42 548.07 267.66 369.65 281.48 361.62"/><polygon class="cls-5" points="267.66 369.65 267.42 548.07 253.51 540.04 253.75 361.62 267.66 369.65"/><polygon class="cls-7" points="281.48 361.62 267.66 369.65 253.75 361.62 267.57 353.59 281.48 361.62"/></g><g class="cls-18"><polygon class="cls-6" points="157.52 433.01 157.28 611.43 143.46 619.46 143.7 441.05 157.52 433.01"/><polygon class="cls-5" points="143.7 441.05 143.46 619.46 129.55 611.43 129.79 433.01 143.7 441.05"/><polygon class="cls-7" points="157.52 433.01 143.7 441.05 129.79 433.01 143.61 424.98 157.52 433.01"/></g><g class="cls-18"><polygon class="cls-6" points="254.06 489.11 253.82 667.53 240 675.56 240.24 497.14 254.06 489.11"/><polygon class="cls-5" points="240.24 497.14 240 675.56 226.09 667.53 226.32 489.11 240.24 497.14"/><polygon class="cls-7" points="254.06 489.11 240.24 497.14 226.32 489.11 240.15 481.08 254.06 489.11"/></g><g class="cls-18"><polygon class="cls-6" points="350.7 544.81 350.46 723.22 336.64 731.25 336.88 552.84 350.7 544.81"/><polygon class="cls-5" points="336.88 552.84 336.64 731.25 322.73 723.22 322.97 544.81 336.88 552.84"/><polygon class="cls-7" points="350.7 544.81 336.88 552.84 322.97 544.81 336.79 536.78 350.7 544.81"/></g><g class="cls-18"><polygon class="cls-6" points="447.34 600.5 447.11 778.92 433.29 786.95 433.52 608.53 447.34 600.5"/><polygon class="cls-5" points="433.52 608.53 433.29 786.95 419.38 778.92 419.61 600.5 433.52 608.53"/><polygon class="cls-7" points="447.34 600.5 433.52 608.53 419.61 600.5 433.43 592.47 447.34 600.5"/></g><g class="cls-18"><polygon class="cls-6" points="722.58 330.63 722.35 509.05 708.52 517.08 708.76 338.66 722.58 330.63"/><polygon class="cls-5" points="708.76 338.66 708.52 517.08 694.62 509.05 694.85 330.63 708.76 338.66"/><polygon class="cls-7" points="722.58 330.63 708.76 338.66 694.85 330.63 708.67 322.6 722.58 330.63"/></g><g class="cls-18"><polygon class="cls-6" points="625.94 274.94 625.7 453.35 611.88 461.38 612.12 282.97 625.94 274.94"/><polygon class="cls-5" points="612.12 282.97 611.88 461.38 597.97 453.35 598.21 274.94 612.12 282.97"/><polygon class="cls-7" points="625.94 274.94 612.12 282.97 598.21 274.94 612.03 266.9 625.94 274.94"/></g><g class="cls-18"><polygon class="cls-6" points="843.21 349.21 843.14 374.78 433.29 613.32 433.36 587.75 843.21 349.21"/><polygon class="cls-5" points="433.36 587.75 433.29 613.32 104.37 423.42 104.44 397.85 433.36 587.75"/><polygon class="cls-7" points="843.21 349.21 433.36 587.75 104.44 397.85 514.32 159.33 843.21 349.21"/></g><g class="cls-18"><polygon class="cls-6" points="530.8 101.78 530.56 179.61 516.74 187.64 516.98 109.81 530.8 101.78"/><polygon class="cls-5" points="516.98 109.81 516.74 187.64 502.83 179.61 503.06 101.78 516.98 109.81"/><polygon class="cls-7" points="530.8 101.78 516.98 109.81 503.06 101.78 516.88 93.75 530.8 101.78"/></g><g class="cls-18"><polygon class="cls-6" points="406.83 173.17 406.6 251 392.78 259.04 393.01 181.21 406.83 173.17"/><polygon class="cls-5" points="393.01 181.21 392.78 259.04 378.87 251 379.1 173.17 393.01 181.21"/><polygon class="cls-7" points="406.83 173.17 393.01 181.21 379.1 173.17 392.93 165.14 406.83 173.17"/></g><g class="cls-18"><polygon class="cls-6" points="158.91 315.96 158.68 393.79 144.86 401.82 145.09 323.99 158.91 315.96"/><polygon class="cls-5" points="145.09 323.99 144.86 401.82 130.95 393.79 131.18 315.96 145.09 323.99"/><polygon class="cls-7" points="158.91 315.96 145.09 323.99 131.18 315.96 145 307.93 158.91 315.96"/></g><g class="cls-18"><polygon class="cls-6" points="820.62 269.27 820.38 347.1 806.56 355.13 806.8 277.3 820.62 269.27"/><polygon class="cls-5" points="806.8 277.3 806.56 355.13 792.65 347.1 792.89 269.27 806.8 277.3"/><polygon class="cls-7" points="820.62 269.27 806.8 277.3 792.89 269.27 806.71 261.24 820.62 269.27"/></g><g class="cls-18"><polygon class="cls-6" points="572.7 412.05 572.46 489.88 558.64 497.92 558.88 420.08 572.7 412.05"/><polygon class="cls-5" points="558.88 420.08 558.64 497.92 544.73 489.88 544.97 412.05 558.88 420.08"/><polygon class="cls-7" points="572.7 412.05 558.88 420.08 544.97 412.05 558.79 404.02 572.7 412.05"/></g><g class="cls-18"><polygon class="cls-6" points="723.98 213.57 723.74 291.4 709.92 299.44 710.16 221.6 723.98 213.57"/><polygon class="cls-5" points="710.16 221.6 709.92 299.44 696.01 291.4 696.24 213.57 710.16 221.6"/><polygon class="cls-7" points="723.98 213.57 710.16 221.6 696.24 213.57 710.07 205.54 723.98 213.57"/></g><g class="cls-18"><polygon class="cls-6" points="627.33 157.88 627.1 235.71 613.28 243.74 613.51 165.91 627.33 157.88"/><polygon class="cls-5" points="613.51 165.91 613.28 243.74 599.37 235.71 599.6 157.88 613.51 165.91"/><polygon class="cls-7" points="627.33 157.88 613.51 165.91 599.6 157.88 613.42 149.85 627.33 157.88"/></g><g class="cls-18"><polygon class="cls-6" points="600.67 285.33 600.43 363.16 586.61 371.19 586.85 293.36 600.67 285.33"/><polygon class="cls-5" points="586.85 293.36 586.61 371.19 572.7 363.16 572.94 285.33 586.85 293.36"/><polygon class="cls-7" points="600.67 285.33 586.85 293.36 572.94 285.33 586.76 277.3 600.67 285.33"/></g><g class="cls-18"><polygon class="cls-6" points="504.03 229.64 503.79 307.47 489.97 315.5 490.21 237.67 504.03 229.64"/><polygon class="cls-5" points="490.21 237.67 489.97 315.5 476.06 307.47 476.3 229.64 490.21 237.67"/><polygon class="cls-7" points="504.03 229.64 490.21 237.67 476.3 229.64 490.12 221.6 504.03 229.64"/></g><path class="cls-53" d="M392.78,167.29a.52.52,0,0,1-.52-.52V88.12a.52.52,0,1,1,1,0v78.65A.52.52,0,0,1,392.78,167.29Z"/><path class="cls-53" d="M406.39,170.29a.47.47,0,0,1-.25-.07l-13.36-7.71-13.36,7.71a.51.51,0,0,1-.71-.19.52.52,0,0,1,.19-.7l13.62-7.87a.53.53,0,0,1,.52,0l13.61,7.87a.51.51,0,0,1-.26,1Z"/><path class="cls-53" d="M406.39,159.58a.47.47,0,0,1-.25-.07l-13.36-7.71-13.36,7.71a.51.51,0,0,1-.71-.19.53.53,0,0,1,.19-.71l13.62-7.86a.53.53,0,0,1,.52,0l13.61,7.86a.51.51,0,0,1,.19.71A.5.5,0,0,1,406.39,159.58Z"/><path class="cls-53" d="M406.39,148.87a.47.47,0,0,1-.25-.07l-13.36-7.71-13.36,7.71a.52.52,0,0,1-.71-.19.53.53,0,0,1,.19-.71L392.52,140a.53.53,0,0,1,.52,0l13.61,7.86a.51.51,0,0,1,.19.71A.5.5,0,0,1,406.39,148.87Z"/><path class="cls-53" d="M406.39,138.16a.59.59,0,0,1-.25-.07l-13.36-7.71-13.36,7.71a.52.52,0,0,1-.71-.19.53.53,0,0,1,.19-.71l13.62-7.86a.49.49,0,0,1,.52,0l13.61,7.86a.51.51,0,0,1,.19.71A.52.52,0,0,1,406.39,138.16Z"/><path class="cls-53" d="M406.39,127.45a.59.59,0,0,1-.25-.07l-13.36-7.72-13.36,7.72a.52.52,0,0,1-.71-.19.53.53,0,0,1,.19-.71l13.62-7.86a.49.49,0,0,1,.52,0l13.61,7.86a.51.51,0,0,1,.19.71A.52.52,0,0,1,406.39,127.45Z"/><path class="cls-53" d="M406.39,116.73a.47.47,0,0,1-.25-.07L392.78,109l-13.36,7.71a.51.51,0,0,1-.71-.19.52.52,0,0,1,.19-.7l13.62-7.87a.53.53,0,0,1,.52,0l13.61,7.87a.51.51,0,0,1-.26,1Z"/><path class="cls-53" d="M406.39,106a.47.47,0,0,1-.25-.07l-13.36-7.71L379.42,106a.51.51,0,0,1-.71-.19.53.53,0,0,1,.19-.71l13.62-7.86a.53.53,0,0,1,.52,0l13.61,7.86a.51.51,0,0,1,.19.71A.5.5,0,0,1,406.39,106Z"/><path class="cls-54" d="M392.78,180.7a.52.52,0,0,1-.52-.52V101.53a.52.52,0,0,1,1,0v78.65A.52.52,0,0,1,392.78,180.7Z"/><path class="cls-54" d="M380.62,173.83a.52.52,0,0,1-.52-.52V94.66a.52.52,0,0,1,.52-.52.52.52,0,0,1,.52.52v78.65A.52.52,0,0,1,380.62,173.83Z"/><path class="cls-54" d="M404.94,173.83a.52.52,0,0,1-.52-.52V94.66a.52.52,0,0,1,.52-.52.52.52,0,0,1,.52.52v78.65A.52.52,0,0,1,404.94,173.83Z"/><path class="cls-54" d="M392.78,178.16a.59.59,0,0,1-.26-.07l-13.62-7.87a.52.52,0,0,1-.19-.7.51.51,0,0,1,.71-.19L392.78,177l13.36-7.71a.51.51,0,0,1,.51.89L393,178.09A.59.59,0,0,1,392.78,178.16Z"/><path class="cls-54" d="M392.78,167.44a.48.48,0,0,1-.26-.07l-13.62-7.86a.52.52,0,0,1,.52-.9l13.36,7.72,13.36-7.72a.52.52,0,0,1,.7.19.51.51,0,0,1-.19.71L393,167.37A.48.48,0,0,1,392.78,167.44Z"/><path class="cls-54" d="M392.78,156.73a.48.48,0,0,1-.26-.07L378.9,148.8a.53.53,0,0,1-.19-.71.52.52,0,0,1,.71-.19l13.36,7.71,13.36-7.71a.52.52,0,0,1,.51.9L393,156.66A.48.48,0,0,1,392.78,156.73Z"/><path class="cls-54" d="M392.78,146a.48.48,0,0,1-.26-.07l-13.62-7.86a.53.53,0,0,1-.19-.71.52.52,0,0,1,.71-.19l13.36,7.71,13.36-7.71a.51.51,0,0,1,.7.19.51.51,0,0,1-.19.71L393,146A.48.48,0,0,1,392.78,146Z"/><path class="cls-54" d="M392.78,135.31a.59.59,0,0,1-.26-.07l-13.62-7.86a.53.53,0,0,1-.19-.71.52.52,0,0,1,.71-.19l13.36,7.71,13.36-7.71a.51.51,0,0,1,.7.19.51.51,0,0,1-.19.71L393,135.24A.59.59,0,0,1,392.78,135.31Z"/><path class="cls-54" d="M392.78,124.6a.59.59,0,0,1-.26-.07l-13.62-7.87a.52.52,0,0,1-.19-.7.51.51,0,0,1,.71-.19l13.36,7.71,13.36-7.71a.51.51,0,0,1,.51.89L393,124.53A.59.59,0,0,1,392.78,124.6Z"/><path class="cls-54" d="M392.78,113.88a.48.48,0,0,1-.26-.07L378.9,106a.53.53,0,0,1-.19-.71.52.52,0,0,1,.71-.19l13.36,7.72,13.36-7.72a.52.52,0,0,1,.51.9L393,113.81A.48.48,0,0,1,392.78,113.88Z"/><path class="cls-53" d="M490,223.41a.51.51,0,0,1-.52-.51V144.24a.52.52,0,1,1,1,0V222.9A.51.51,0,0,1,490,223.41Z"/><path class="cls-53" d="M503.61,226.42a.48.48,0,0,1-.26-.07L490,218.64l-13.36,7.71a.52.52,0,0,1-.51-.9l13.61-7.86a.49.49,0,0,1,.52,0l13.62,7.86a.53.53,0,0,1,.19.71A.52.52,0,0,1,503.61,226.42Z"/><path class="cls-53" d="M503.61,215.71a.59.59,0,0,1-.26-.07L490,207.92l-13.36,7.72a.52.52,0,0,1-.51-.9l13.61-7.86a.49.49,0,0,1,.52,0l13.62,7.86a.53.53,0,0,1,.19.71A.54.54,0,0,1,503.61,215.71Z"/><path class="cls-53" d="M503.61,205a.48.48,0,0,1-.26-.07L490,197.21l-13.36,7.71a.51.51,0,1,1-.51-.89l13.61-7.86a.49.49,0,0,1,.52,0L503.87,204a.51.51,0,0,1-.26,1Z"/><path class="cls-53" d="M503.61,194.28a.48.48,0,0,1-.26-.07L490,186.5l-13.36,7.71a.51.51,0,1,1-.51-.89l13.61-7.87a.53.53,0,0,1,.52,0l13.62,7.87a.51.51,0,0,1-.26,1Z"/><path class="cls-53" d="M503.61,183.57a.48.48,0,0,1-.26-.07L490,175.79l-13.36,7.71a.52.52,0,0,1-.51-.9l13.61-7.86a.53.53,0,0,1,.52,0l13.62,7.86a.53.53,0,0,1,.19.71A.52.52,0,0,1,503.61,183.57Z"/><path class="cls-53" d="M503.61,172.86a.48.48,0,0,1-.26-.07L490,165.08l-13.36,7.71a.52.52,0,0,1-.51-.9L489.73,164a.53.53,0,0,1,.52,0l13.62,7.86a.53.53,0,0,1,.19.71A.52.52,0,0,1,503.61,172.86Z"/><path class="cls-53" d="M503.61,162.15a.59.59,0,0,1-.26-.07L490,154.36l-13.36,7.72a.52.52,0,0,1-.51-.9l13.61-7.86a.49.49,0,0,1,.52,0l13.62,7.86a.53.53,0,0,1,.19.71A.54.54,0,0,1,503.61,162.15Z"/><path class="cls-54" d="M490,236.83a.52.52,0,0,1-.52-.52V157.65a.52.52,0,0,1,1,0v78.66A.52.52,0,0,1,490,236.83Z"/><path class="cls-54" d="M477.83,230a.51.51,0,0,1-.52-.51V150.78a.52.52,0,0,1,.52-.52.53.53,0,0,1,.52.52v78.66A.52.52,0,0,1,477.83,230Z"/><path class="cls-54" d="M502.15,230a.52.52,0,0,1-.52-.51V150.78a.53.53,0,0,1,.52-.52.52.52,0,0,1,.52.52v78.66A.51.51,0,0,1,502.15,230Z"/><path class="cls-54" d="M490,234.28a.48.48,0,0,1-.26-.07l-13.61-7.86a.52.52,0,0,1,.51-.9L490,233.16l13.36-7.71a.52.52,0,0,1,.71.19.53.53,0,0,1-.19.71l-13.62,7.86A.48.48,0,0,1,490,234.28Z"/><path class="cls-54" d="M490,223.57a.48.48,0,0,1-.26-.07l-13.61-7.86a.52.52,0,0,1,.51-.9L490,222.45l13.36-7.71a.52.52,0,0,1,.71.19.53.53,0,0,1-.19.71l-13.62,7.86A.48.48,0,0,1,490,223.57Z"/><path class="cls-54" d="M490,212.86a.59.59,0,0,1-.26-.07l-13.61-7.87a.51.51,0,1,1,.51-.89L490,211.74,503.35,204a.51.51,0,0,1,.71.19.52.52,0,0,1-.19.7l-13.62,7.87A.59.59,0,0,1,490,212.86Z"/><path class="cls-54" d="M490,202.14a.48.48,0,0,1-.26-.07l-13.61-7.86a.51.51,0,1,1,.51-.89L490,201l13.36-7.71a.52.52,0,0,1,.71.18.53.53,0,0,1-.19.71l-13.62,7.86A.48.48,0,0,1,490,202.14Z"/><path class="cls-54" d="M490,191.43a.48.48,0,0,1-.26-.07l-13.61-7.86a.52.52,0,0,1,.51-.9L490,190.31l13.36-7.71a.52.52,0,0,1,.71.19.53.53,0,0,1-.19.71l-13.62,7.86A.48.48,0,0,1,490,191.43Z"/><path class="cls-54" d="M490,180.72a.48.48,0,0,1-.26-.07l-13.61-7.86a.52.52,0,0,1,.51-.9L490,179.6l13.36-7.71a.52.52,0,0,1,.71.19.53.53,0,0,1-.19.71l-13.62,7.86A.48.48,0,0,1,490,180.72Z"/><path class="cls-54" d="M490,170a.48.48,0,0,1-.26-.07l-13.61-7.86a.52.52,0,0,1,.51-.9L490,168.89l13.36-7.71a.52.52,0,0,1,.71.19.53.53,0,0,1-.19.71l-13.62,7.86A.48.48,0,0,1,490,170Z"/><path class="cls-53" d="M586.69,279.72a.52.52,0,0,1-.52-.52V200.54a.51.51,0,0,1,.52-.51.52.52,0,0,1,.52.51V279.2A.53.53,0,0,1,586.69,279.72Z"/><path class="cls-53" d="M573.07,282.72a.52.52,0,0,1-.45-.26.52.52,0,0,1,.19-.71l13.62-7.86a.53.53,0,0,1,.52,0l13.61,7.86a.52.52,0,0,1-.52.9l-13.35-7.71-13.36,7.71A.48.48,0,0,1,573.07,282.72Z"/><path class="cls-53" d="M600.3,272a.51.51,0,0,1-.26-.07l-13.35-7.71-13.36,7.71a.51.51,0,0,1-.71-.19.52.52,0,0,1,.19-.71l13.62-7.86a.53.53,0,0,1,.52,0L600.56,271a.51.51,0,0,1,.19.71A.5.5,0,0,1,600.3,272Z"/><path class="cls-53" d="M600.3,261.3a.63.63,0,0,1-.26-.07l-13.35-7.71-13.36,7.71a.52.52,0,0,1-.52-.9l13.62-7.86a.49.49,0,0,1,.52,0l13.61,7.86a.51.51,0,0,1,.19.71A.5.5,0,0,1,600.3,261.3Z"/><path class="cls-53" d="M573.07,250.59a.54.54,0,0,1-.45-.26.52.52,0,0,1,.19-.71l13.62-7.86a.49.49,0,0,1,.52,0l13.61,7.86a.51.51,0,0,1,.19.71.52.52,0,0,1-.71.19l-13.35-7.71-13.36,7.71A.59.59,0,0,1,573.07,250.59Z"/><path class="cls-53" d="M600.3,239.87a.51.51,0,0,1-.26-.07l-13.35-7.71-13.36,7.71a.52.52,0,1,1-.52-.89L586.43,231a.53.53,0,0,1,.52,0l13.61,7.87a.51.51,0,0,1-.26,1Z"/><path class="cls-53" d="M600.3,229.16a.51.51,0,0,1-.26-.07l-13.35-7.71-13.36,7.71a.51.51,0,0,1-.71-.19.52.52,0,0,1,.19-.71l13.62-7.86a.53.53,0,0,1,.52,0l13.61,7.86a.51.51,0,0,1,.19.71A.5.5,0,0,1,600.3,229.16Z"/><path class="cls-53" d="M573.07,218.45a.52.52,0,0,1-.45-.26.52.52,0,0,1,.19-.71l13.62-7.86a.53.53,0,0,1,.52,0l13.61,7.86a.51.51,0,0,1,.19.71.52.52,0,0,1-.71.19l-13.35-7.71-13.36,7.71A.48.48,0,0,1,573.07,218.45Z"/><path class="cls-54" d="M586.69,293.13a.52.52,0,0,1-.52-.52V214a.52.52,0,0,1,.52-.52.52.52,0,0,1,.52.52v78.65A.52.52,0,0,1,586.69,293.13Z"/><path class="cls-54" d="M574.52,286.26a.51.51,0,0,1-.51-.52V207.09a.52.52,0,1,1,1,0v78.65A.52.52,0,0,1,574.52,286.26Z"/><path class="cls-54" d="M598.85,286.26a.52.52,0,0,1-.52-.52V207.09a.52.52,0,1,1,1,0v78.65A.52.52,0,0,1,598.85,286.26Z"/><path class="cls-54" d="M586.69,290.58a.48.48,0,0,1-.26-.07l-13.62-7.86a.52.52,0,0,1-.19-.71.53.53,0,0,1,.71-.19l13.36,7.72L600,281.75a.53.53,0,0,1,.71.19.51.51,0,0,1-.19.71L587,290.51A.48.48,0,0,1,586.69,290.58Z"/><path class="cls-54" d="M586.69,279.87a.48.48,0,0,1-.26-.07l-13.62-7.86a.52.52,0,1,1,.52-.9l13.36,7.71L600,271a.52.52,0,0,1,.71.19.51.51,0,0,1-.19.71L587,279.8A.48.48,0,0,1,586.69,279.87Z"/><path class="cls-54" d="M586.69,269.16a.48.48,0,0,1-.26-.07l-13.62-7.86a.52.52,0,0,1,.52-.9L586.69,268,600,260.33a.52.52,0,0,1,.71.19.51.51,0,0,1-.19.71L587,269.09A.48.48,0,0,1,586.69,269.16Z"/><path class="cls-54" d="M586.69,258.45a.59.59,0,0,1-.26-.07l-13.62-7.86a.52.52,0,0,1,.52-.9l13.36,7.71L600,249.62a.52.52,0,0,1,.71.19.51.51,0,0,1-.19.71L587,258.38A.59.59,0,0,1,586.69,258.45Z"/><path class="cls-54" d="M586.69,247.74a.59.59,0,0,1-.26-.07l-13.62-7.87a.51.51,0,0,1-.19-.7.52.52,0,0,1,.71-.19l13.36,7.71L600,238.91a.52.52,0,0,1,.71.19.5.5,0,0,1-.19.7L587,247.67A.59.59,0,0,1,586.69,247.74Z"/><path class="cls-54" d="M586.69,237a.48.48,0,0,1-.26-.07l-13.62-7.86a.52.52,0,0,1-.19-.71.53.53,0,0,1,.71-.19l13.36,7.72L600,228.19a.53.53,0,0,1,.71.19.51.51,0,0,1-.19.71L587,237A.48.48,0,0,1,586.69,237Z"/><path class="cls-54" d="M586.69,226.31a.48.48,0,0,1-.26-.07l-13.62-7.86a.52.52,0,0,1,.52-.9l13.36,7.71L600,217.48a.52.52,0,0,1,.71.19.51.51,0,0,1-.19.71L587,226.24A.48.48,0,0,1,586.69,226.31Z"/><path class="cls-53" d="M558.64,406.38a.52.52,0,0,1-.52-.52V327.21a.52.52,0,0,1,.52-.52.52.52,0,0,1,.52.52v78.65A.52.52,0,0,1,558.64,406.38Z"/><path class="cls-53" d="M572.26,409.39a.59.59,0,0,1-.26-.07l-13.36-7.71-13.35,7.71a.52.52,0,0,1-.71-.19.51.51,0,0,1,.19-.71l13.61-7.86a.49.49,0,0,1,.52,0l13.62,7.86a.52.52,0,0,1,.19.71A.54.54,0,0,1,572.26,409.39Z"/><path class="cls-53" d="M572.26,398.68a.5.5,0,0,1-.26-.08l-13.36-7.71-13.35,7.71a.52.52,0,0,1-.71-.18.51.51,0,0,1,.19-.71l13.61-7.86a.49.49,0,0,1,.52,0l13.62,7.86a.52.52,0,0,1,.19.71A.54.54,0,0,1,572.26,398.68Z"/><path class="cls-53" d="M572.26,388a.48.48,0,0,1-.26-.07l-13.36-7.71-13.35,7.71a.51.51,0,0,1-.71-.19.5.5,0,0,1,.19-.7l13.61-7.87a.53.53,0,0,1,.52,0L572.52,387a.51.51,0,0,1,.19.7A.52.52,0,0,1,572.26,388Z"/><path class="cls-53" d="M572.26,377.25a.48.48,0,0,1-.26-.07l-13.36-7.71-13.35,7.71a.52.52,0,0,1-.71-.19.51.51,0,0,1,.19-.71l13.61-7.86a.53.53,0,0,1,.52,0l13.62,7.86a.52.52,0,0,1,.19.71A.52.52,0,0,1,572.26,377.25Z"/><path class="cls-53" d="M572.26,366.54a.48.48,0,0,1-.26-.07l-13.36-7.71-13.35,7.71a.52.52,0,0,1-.71-.19.51.51,0,0,1,.19-.71l13.61-7.86a.53.53,0,0,1,.52,0l13.62,7.86a.52.52,0,0,1-.26,1Z"/><path class="cls-53" d="M572.26,355.83a.59.59,0,0,1-.26-.07l-13.36-7.71-13.35,7.71a.52.52,0,0,1-.71-.19.51.51,0,0,1,.19-.71L558.38,347a.49.49,0,0,1,.52,0l13.62,7.86a.52.52,0,0,1,.19.71A.54.54,0,0,1,572.26,355.83Z"/><path class="cls-53" d="M572.26,345.12a.59.59,0,0,1-.26-.07l-13.36-7.72-13.35,7.72a.53.53,0,0,1-.71-.19.51.51,0,0,1,.19-.71l13.61-7.86a.49.49,0,0,1,.52,0l13.62,7.86a.52.52,0,0,1,.19.71A.54.54,0,0,1,572.26,345.12Z"/><path class="cls-54" d="M558.64,419.8a.53.53,0,0,1-.52-.52V340.62a.53.53,0,0,1,.52-.52.52.52,0,0,1,.52.52v78.66A.52.52,0,0,1,558.64,419.8Z"/><path class="cls-54" d="M546.48,412.92a.51.51,0,0,1-.52-.51V333.75a.52.52,0,0,1,1,0v78.66A.51.51,0,0,1,546.48,412.92Z"/><path class="cls-54" d="M570.81,412.92a.51.51,0,0,1-.52-.51V333.75a.52.52,0,1,1,1,0v78.66A.51.51,0,0,1,570.81,412.92Z"/><path class="cls-54" d="M558.64,417.25a.59.59,0,0,1-.26-.07l-13.61-7.86a.51.51,0,0,1-.19-.71.52.52,0,0,1,.71-.19l13.35,7.71L572,408.42a.52.52,0,1,1,.52.9l-13.62,7.86A.59.59,0,0,1,558.64,417.25Z"/><path class="cls-54" d="M558.64,406.54a.59.59,0,0,1-.26-.07l-13.61-7.87a.5.5,0,0,1-.19-.7.51.51,0,0,1,.71-.19l13.35,7.71L572,397.71a.52.52,0,1,1,.52.89l-13.62,7.87A.59.59,0,0,1,558.64,406.54Z"/><path class="cls-54" d="M558.64,395.82a.48.48,0,0,1-.26-.07l-13.61-7.86a.51.51,0,0,1-.19-.71.52.52,0,0,1,.71-.18l13.35,7.71L572,387a.52.52,0,1,1,.52.89l-13.62,7.86A.48.48,0,0,1,558.64,395.82Z"/><path class="cls-54" d="M558.64,385.11a.48.48,0,0,1-.26-.07l-13.61-7.86a.51.51,0,0,1-.19-.71.53.53,0,0,1,.71-.19L558.64,384,572,376.28a.53.53,0,0,1,.71.19.52.52,0,0,1-.19.71L558.9,385A.48.48,0,0,1,558.64,385.11Z"/><path class="cls-54" d="M558.64,374.4a.48.48,0,0,1-.26-.07l-13.61-7.86a.51.51,0,0,1-.19-.71.52.52,0,0,1,.71-.19l13.35,7.71L572,365.57a.52.52,0,1,1,.52.9l-13.62,7.86A.48.48,0,0,1,558.64,374.4Z"/><path class="cls-54" d="M558.64,363.69a.48.48,0,0,1-.26-.07l-13.61-7.86a.51.51,0,0,1-.19-.71.52.52,0,0,1,.71-.19l13.35,7.71L572,354.86a.52.52,0,1,1,.52.9l-13.62,7.86A.48.48,0,0,1,558.64,363.69Z"/><path class="cls-54" d="M558.64,353a.59.59,0,0,1-.26-.07l-13.61-7.86a.52.52,0,1,1,.52-.9l13.35,7.71L572,344.15a.52.52,0,1,1,.52.9l-13.62,7.86A.59.59,0,0,1,558.64,353Z"/><path class="cls-53" d="M516.74,95.69a.52.52,0,0,1-.52-.52V16.52a.52.52,0,1,1,1,0V95.17A.52.52,0,0,1,516.74,95.69Z"/><path class="cls-53" d="M530.36,98.7a.59.59,0,0,1-.26-.07l-13.36-7.72-13.36,7.72a.51.51,0,0,1-.7-.19.52.52,0,0,1,.18-.71l13.62-7.86a.49.49,0,0,1,.52,0l13.62,7.86a.52.52,0,0,1-.26,1Z"/><path class="cls-53" d="M530.36,88a.48.48,0,0,1-.26-.07L516.74,80.2l-13.36,7.71a.5.5,0,0,1-.7-.19.51.51,0,0,1,.18-.7l13.62-7.87a.53.53,0,0,1,.52,0L530.62,87a.51.51,0,0,1,.18.7A.5.5,0,0,1,530.36,88Z"/><path class="cls-53" d="M530.36,77.27a.48.48,0,0,1-.26-.07l-13.36-7.71L503.38,77.2a.52.52,0,0,1-.52-.89l13.62-7.87a.53.53,0,0,1,.52,0l13.62,7.87a.51.51,0,0,1,.18.7A.5.5,0,0,1,530.36,77.27Z"/><path class="cls-53" d="M530.36,66.56a.48.48,0,0,1-.26-.07l-13.36-7.71-13.36,7.71a.5.5,0,0,1-.7-.19.52.52,0,0,1,.18-.71l13.62-7.86a.53.53,0,0,1,.52,0l13.62,7.86a.52.52,0,0,1,.18.71A.5.5,0,0,1,530.36,66.56Z"/><path class="cls-53" d="M530.36,55.85a.48.48,0,0,1-.26-.07l-13.36-7.71-13.36,7.71a.51.51,0,0,1-.7-.19.52.52,0,0,1,.18-.71L516.48,47a.49.49,0,0,1,.52,0l13.62,7.86a.52.52,0,0,1,.18.71A.5.5,0,0,1,530.36,55.85Z"/><path class="cls-53" d="M530.36,45.14a.59.59,0,0,1-.26-.07l-13.36-7.72-13.36,7.72a.51.51,0,0,1-.7-.19.52.52,0,0,1,.18-.71l13.62-7.86a.49.49,0,0,1,.52,0l13.62,7.86a.52.52,0,0,1-.26,1Z"/><path class="cls-53" d="M530.36,34.42a.48.48,0,0,1-.26-.07l-13.36-7.71-13.36,7.71a.5.5,0,0,1-.7-.19.51.51,0,0,1,.18-.7l13.62-7.86a.49.49,0,0,1,.52,0l13.62,7.86a.51.51,0,0,1,.18.7A.5.5,0,0,1,530.36,34.42Z"/><path class="cls-54" d="M516.74,109.11a.52.52,0,0,1-.52-.52V29.93a.52.52,0,1,1,1,0v78.66A.52.52,0,0,1,516.74,109.11Z"/><path class="cls-54" d="M504.58,102.23a.51.51,0,0,1-.52-.51V23.06a.52.52,0,0,1,.52-.52.52.52,0,0,1,.52.52v78.66A.52.52,0,0,1,504.58,102.23Z"/><path class="cls-54" d="M528.9,102.23a.52.52,0,0,1-.52-.51V23.06a.52.52,0,0,1,.52-.52.52.52,0,0,1,.52.52v78.66A.51.51,0,0,1,528.9,102.23Z"/><path class="cls-54" d="M516.74,106.56a.48.48,0,0,1-.26-.07l-13.62-7.86a.52.52,0,0,1-.18-.71.51.51,0,0,1,.7-.19l13.36,7.71,13.36-7.71a.51.51,0,0,1,.7.19.52.52,0,0,1-.18.71L517,106.49A.48.48,0,0,1,516.74,106.56Z"/><path class="cls-54" d="M516.74,95.85a.59.59,0,0,1-.26-.07l-13.62-7.87a.51.51,0,0,1-.18-.7.51.51,0,0,1,.7-.19l13.36,7.71L530.1,87a.52.52,0,0,1,.52.89L517,95.78A.59.59,0,0,1,516.74,95.85Z"/><path class="cls-54" d="M516.74,85.13a.48.48,0,0,1-.26-.07L502.86,77.2a.52.52,0,0,1-.18-.71.51.51,0,0,1,.7-.18L516.74,84l13.36-7.71a.51.51,0,0,1,.7.18.52.52,0,0,1-.18.71L517,85.06A.48.48,0,0,1,516.74,85.13Z"/><path class="cls-54" d="M516.74,74.42a.48.48,0,0,1-.26-.07l-13.62-7.86a.52.52,0,0,1,.52-.9l13.36,7.71,13.36-7.71a.52.52,0,0,1,.52.9L517,74.35A.48.48,0,0,1,516.74,74.42Z"/><path class="cls-54" d="M516.74,63.71a.48.48,0,0,1-.26-.07l-13.62-7.86a.52.52,0,0,1-.18-.71.51.51,0,0,1,.7-.19l13.36,7.71,13.36-7.71a.51.51,0,0,1,.7.19.52.52,0,0,1-.18.71L517,63.64A.48.48,0,0,1,516.74,63.71Z"/><path class="cls-54" d="M516.74,53a.48.48,0,0,1-.26-.07l-13.62-7.86a.52.52,0,0,1-.18-.71.51.51,0,0,1,.7-.19l13.36,7.71,13.36-7.71a.51.51,0,0,1,.7.19.52.52,0,0,1-.18.71L517,52.93A.48.48,0,0,1,516.74,53Z"/><path class="cls-54" d="M516.74,42.29a.59.59,0,0,1-.26-.07l-13.62-7.87a.52.52,0,0,1,.52-.89l13.36,7.71,13.36-7.71a.52.52,0,0,1,.52.89L517,42.22A.59.59,0,0,1,516.74,42.29Z"/><path class="cls-53" d="M613.51,152.2a.52.52,0,0,1-.52-.51V73a.53.53,0,0,1,.52-.52A.52.52,0,0,1,614,73v78.66A.51.51,0,0,1,613.51,152.2Z"/><path class="cls-53" d="M599.9,155.21a.5.5,0,0,1-.45-.26.52.52,0,0,1,.18-.71l13.62-7.86a.49.49,0,0,1,.52,0l13.62,7.86a.52.52,0,0,1-.52.9l-13.36-7.71-13.36,7.71A.47.47,0,0,1,599.9,155.21Z"/><path class="cls-53" d="M599.9,144.5a.52.52,0,0,1-.45-.26.52.52,0,0,1,.18-.71l13.62-7.86a.49.49,0,0,1,.52,0l13.62,7.86a.52.52,0,1,1-.52.9l-13.36-7.71-13.36,7.71A.59.59,0,0,1,599.9,144.5Z"/><path class="cls-53" d="M599.9,133.79a.52.52,0,0,1-.45-.26.52.52,0,0,1,.18-.71L613.25,125a.49.49,0,0,1,.52,0l13.62,7.86a.53.53,0,0,1,.19.71.52.52,0,0,1-.71.18L613.51,126l-13.36,7.71A.49.49,0,0,1,599.9,133.79Z"/><path class="cls-53" d="M599.9,123.07a.52.52,0,0,1-.27-1l13.62-7.87a.53.53,0,0,1,.52,0l13.62,7.87a.52.52,0,1,1-.52.89l-13.36-7.71L600.15,123A.47.47,0,0,1,599.9,123.07Z"/><path class="cls-53" d="M599.9,112.36a.5.5,0,0,1-.45-.26.52.52,0,0,1,.18-.71l13.62-7.86a.53.53,0,0,1,.52,0l13.62,7.86a.53.53,0,0,1,.19.71.53.53,0,0,1-.71.19l-13.36-7.71-13.36,7.71A.47.47,0,0,1,599.9,112.36Z"/><path class="cls-53" d="M599.9,101.65a.5.5,0,0,1-.45-.26.52.52,0,0,1,.18-.71l13.62-7.86a.53.53,0,0,1,.52,0l13.62,7.86a.52.52,0,1,1-.52.9l-13.36-7.71-13.36,7.71A.47.47,0,0,1,599.9,101.65Z"/><path class="cls-53" d="M599.9,90.94a.52.52,0,0,1-.45-.26.52.52,0,0,1,.18-.71l13.62-7.86a.49.49,0,0,1,.52,0L627.39,90a.52.52,0,1,1-.52.9l-13.36-7.72-13.36,7.72A.59.59,0,0,1,599.9,90.94Z"/><path class="cls-54" d="M613.51,165.62a.52.52,0,0,1-.52-.52V86.44a.52.52,0,0,1,.52-.51.51.51,0,0,1,.52.51V165.1A.52.52,0,0,1,613.51,165.62Z"/><path class="cls-54" d="M601.35,158.74a.51.51,0,0,1-.52-.51V79.57a.52.52,0,1,1,1,0v78.66A.51.51,0,0,1,601.35,158.74Z"/><path class="cls-54" d="M625.67,158.74a.52.52,0,0,1-.52-.51V79.57a.53.53,0,0,1,.52-.52.52.52,0,0,1,.52.52v78.66A.51.51,0,0,1,625.67,158.74Z"/><path class="cls-54" d="M613.51,163.07a.48.48,0,0,1-.26-.07l-13.62-7.86a.52.52,0,0,1-.18-.71.51.51,0,0,1,.7-.19L613.51,162l13.36-7.71a.52.52,0,1,1,.52.9L613.77,163A.48.48,0,0,1,613.51,163.07Z"/><path class="cls-54" d="M613.51,152.36a.48.48,0,0,1-.26-.07l-13.62-7.86a.52.52,0,0,1-.18-.71.51.51,0,0,1,.7-.19l13.36,7.71,13.36-7.71a.53.53,0,0,1,.71.19.53.53,0,0,1-.19.71l-13.62,7.86A.48.48,0,0,1,613.51,152.36Z"/><path class="cls-54" d="M613.51,141.65a.59.59,0,0,1-.26-.07l-13.62-7.87a.52.52,0,0,1,.52-.89l13.36,7.71,13.36-7.71a.52.52,0,1,1,.52.89l-13.62,7.87A.59.59,0,0,1,613.51,141.65Z"/><path class="cls-54" d="M613.51,130.93a.58.58,0,0,1-.26-.06L599.63,123a.51.51,0,0,1-.18-.7.5.5,0,0,1,.7-.19l13.36,7.71,13.36-7.71a.51.51,0,0,1,.71.19.52.52,0,0,1-.19.7l-13.62,7.87A.58.58,0,0,1,613.51,130.93Z"/><path class="cls-54" d="M613.51,120.22a.48.48,0,0,1-.26-.07l-13.62-7.86a.52.52,0,0,1-.18-.71.51.51,0,0,1,.7-.19l13.36,7.71,13.36-7.71a.52.52,0,1,1,.52.9l-13.62,7.86A.48.48,0,0,1,613.51,120.22Z"/><path class="cls-54" d="M613.51,109.51a.48.48,0,0,1-.26-.07l-13.62-7.86a.52.52,0,0,1-.18-.71.51.51,0,0,1,.7-.19l13.36,7.71,13.36-7.71a.52.52,0,1,1,.52.9l-13.62,7.86A.48.48,0,0,1,613.51,109.51Z"/><path class="cls-54" d="M613.51,98.8a.48.48,0,0,1-.26-.07l-13.62-7.86a.52.52,0,0,1-.18-.71.51.51,0,0,1,.7-.19l13.36,7.71L626.87,90a.52.52,0,0,1,.71.19.53.53,0,0,1-.19.71l-13.62,7.86A.48.48,0,0,1,613.51,98.8Z"/><path class="cls-53" d="M710.15,207.59a.51.51,0,0,1-.51-.52V128.42a.52.52,0,1,1,1,0v78.65A.52.52,0,0,1,710.15,207.59Z"/><path class="cls-53" d="M723.77,210.59a.48.48,0,0,1-.26-.07l-13.36-7.71-13.35,7.71a.52.52,0,1,1-.52-.89l13.62-7.87a.52.52,0,0,1,.51,0L724,209.63a.51.51,0,0,1-.26,1Z"/><path class="cls-53" d="M723.77,199.88a.48.48,0,0,1-.26-.07l-13.36-7.71-13.35,7.71a.52.52,0,1,1-.52-.9l13.62-7.86a.52.52,0,0,1,.51,0L724,198.91a.52.52,0,0,1,.19.71A.52.52,0,0,1,723.77,199.88Z"/><path class="cls-53" d="M723.77,189.17a.48.48,0,0,1-.26-.07l-13.36-7.71L696.8,189.1a.52.52,0,1,1-.52-.9l13.62-7.86a.52.52,0,0,1,.51,0L724,188.2a.52.52,0,0,1,.19.71A.52.52,0,0,1,723.77,189.17Z"/><path class="cls-53" d="M723.77,178.46a.48.48,0,0,1-.26-.07l-13.36-7.71-13.35,7.71a.52.52,0,1,1-.52-.9l13.62-7.86a.47.47,0,0,1,.51,0L724,177.49a.52.52,0,0,1-.26,1Z"/><path class="cls-53" d="M723.77,167.75a.59.59,0,0,1-.26-.07L710.15,160l-13.35,7.72a.52.52,0,1,1-.52-.9l13.62-7.86a.47.47,0,0,1,.51,0L724,166.78a.52.52,0,0,1,.19.71A.54.54,0,0,1,723.77,167.75Z"/><path class="cls-53" d="M723.77,157a.48.48,0,0,1-.26-.07l-13.36-7.71L696.8,157a.52.52,0,1,1-.52-.89l13.62-7.86a.47.47,0,0,1,.51,0L724,156.07a.51.51,0,0,1-.26,1Z"/><path class="cls-53" d="M723.77,146.32a.48.48,0,0,1-.26-.07l-13.36-7.71-13.35,7.71a.52.52,0,0,1-.71-.19.51.51,0,0,1,.19-.7l13.62-7.87a.52.52,0,0,1,.51,0L724,145.36a.51.51,0,0,1,.19.7A.52.52,0,0,1,723.77,146.32Z"/><path class="cls-54" d="M710.15,221a.51.51,0,0,1-.51-.52V141.83a.52.52,0,1,1,1,0v78.65A.52.52,0,0,1,710.15,221Z"/><path class="cls-54" d="M698,214.13a.52.52,0,0,1-.52-.52V135a.52.52,0,0,1,.52-.52.52.52,0,0,1,.52.52v78.65A.52.52,0,0,1,698,214.13Z"/><path class="cls-54" d="M722.32,214.13a.52.52,0,0,1-.52-.52V135a.52.52,0,0,1,.52-.52.52.52,0,0,1,.52.52v78.65A.52.52,0,0,1,722.32,214.13Z"/><path class="cls-54" d="M710.15,218.45a.54.54,0,0,1-.25-.06l-13.62-7.87a.52.52,0,1,1,.52-.89l13.35,7.71,13.36-7.71a.52.52,0,1,1,.52.89l-13.62,7.87A.58.58,0,0,1,710.15,218.45Z"/><path class="cls-54" d="M710.15,207.74a.45.45,0,0,1-.25-.07l-13.62-7.86a.52.52,0,0,1,.52-.9l13.35,7.72,13.36-7.72a.52.52,0,1,1,.52.9l-13.62,7.86A.48.48,0,0,1,710.15,207.74Z"/><path class="cls-54" d="M710.15,197a.45.45,0,0,1-.25-.07l-13.62-7.86a.52.52,0,0,1,.52-.9l13.35,7.71,13.36-7.71a.52.52,0,1,1,.52.9L710.41,197A.48.48,0,0,1,710.15,197Z"/><path class="cls-54" d="M710.15,186.32a.45.45,0,0,1-.25-.07l-13.62-7.86a.52.52,0,1,1,.52-.9l13.35,7.71,13.36-7.71a.52.52,0,1,1,.52.9l-13.62,7.86A.48.48,0,0,1,710.15,186.32Z"/><path class="cls-54" d="M710.15,175.61a.55.55,0,0,1-.25-.07l-13.62-7.86a.52.52,0,0,1-.19-.71.51.51,0,0,1,.71-.19l13.35,7.71,13.36-7.71a.51.51,0,0,1,.71.19.52.52,0,0,1-.19.71l-13.62,7.86A.59.59,0,0,1,710.15,175.61Z"/><path class="cls-54" d="M710.15,164.9a.55.55,0,0,1-.25-.07L696.28,157a.52.52,0,1,1,.52-.89l13.35,7.71,13.36-7.71a.52.52,0,1,1,.52.89l-13.62,7.87A.59.59,0,0,1,710.15,164.9Z"/><path class="cls-54" d="M710.15,154.18a.45.45,0,0,1-.25-.07l-13.62-7.86a.52.52,0,0,1-.19-.71.51.51,0,0,1,.71-.18l13.35,7.71,13.36-7.71a.51.51,0,0,1,.71.18.52.52,0,0,1-.19.71l-13.62,7.86A.48.48,0,0,1,710.15,154.18Z"/><path class="cls-53" d="M806.56,263.62a.53.53,0,0,1-.52-.52V184.44a.53.53,0,0,1,.52-.52.52.52,0,0,1,.52.52V263.1A.52.52,0,0,1,806.56,263.62Z"/><path class="cls-53" d="M820.18,266.62a.48.48,0,0,1-.26-.07l-13.36-7.71-13.35,7.71a.52.52,0,0,1-.52-.9l13.61-7.86a.53.53,0,0,1,.52,0l13.62,7.86a.52.52,0,0,1,.19.71A.52.52,0,0,1,820.18,266.62Z"/><path class="cls-53" d="M820.18,255.91a.48.48,0,0,1-.26-.07l-13.36-7.71-13.35,7.71a.52.52,0,0,1-.52-.9l13.61-7.86a.53.53,0,0,1,.52,0l13.62,7.86a.52.52,0,0,1-.26,1Z"/><path class="cls-53" d="M820.18,245.2a.59.59,0,0,1-.26-.07l-13.36-7.71-13.35,7.71a.52.52,0,0,1-.52-.9l13.61-7.86a.49.49,0,0,1,.52,0l13.62,7.86a.52.52,0,0,1,.19.71A.54.54,0,0,1,820.18,245.2Z"/><path class="cls-53" d="M820.18,234.49a.59.59,0,0,1-.26-.07l-13.36-7.72-13.35,7.72a.53.53,0,0,1-.71-.19.52.52,0,0,1,.19-.71l13.61-7.86a.49.49,0,0,1,.52,0l13.62,7.86a.52.52,0,0,1,.19.71A.54.54,0,0,1,820.18,234.49Z"/><path class="cls-53" d="M820.18,223.77a.48.48,0,0,1-.26-.07L806.56,216l-13.35,7.71a.52.52,0,0,1-.71-.19.51.51,0,0,1,.19-.7l13.61-7.87a.53.53,0,0,1,.52,0l13.62,7.87a.51.51,0,0,1-.26,1Z"/><path class="cls-53" d="M820.18,213.06a.48.48,0,0,1-.26-.07l-13.36-7.71L793.21,213a.52.52,0,0,1-.52-.9l13.61-7.86a.53.53,0,0,1,.52,0l13.62,7.86a.52.52,0,0,1,.19.71A.52.52,0,0,1,820.18,213.06Z"/><path class="cls-53" d="M820.18,202.35a.48.48,0,0,1-.26-.07l-13.36-7.71-13.35,7.71a.52.52,0,0,1-.52-.9l13.61-7.86a.53.53,0,0,1,.52,0l13.62,7.86a.52.52,0,0,1,.19.71A.52.52,0,0,1,820.18,202.35Z"/><path class="cls-54" d="M806.56,277a.52.52,0,0,1-.52-.52V197.86a.52.52,0,0,1,.52-.52.52.52,0,0,1,.52.52v78.65A.52.52,0,0,1,806.56,277Z"/><path class="cls-54" d="M794.4,270.16a.53.53,0,0,1-.52-.52V191a.52.52,0,0,1,.52-.51.51.51,0,0,1,.52.51v78.66A.52.52,0,0,1,794.4,270.16Z"/><path class="cls-54" d="M818.73,270.16a.52.52,0,0,1-.52-.52V191a.52.52,0,0,1,1,0v78.66A.52.52,0,0,1,818.73,270.16Z"/><path class="cls-54" d="M806.56,274.48a.48.48,0,0,1-.26-.07l-13.61-7.86a.52.52,0,0,1,.52-.9l13.35,7.71,13.36-7.71a.52.52,0,1,1,.52.9l-13.62,7.86A.48.48,0,0,1,806.56,274.48Z"/><path class="cls-54" d="M806.56,263.77a.48.48,0,0,1-.26-.07l-13.61-7.86a.52.52,0,0,1,.52-.9l13.35,7.71,13.36-7.71a.52.52,0,1,1,.52.9l-13.62,7.86A.48.48,0,0,1,806.56,263.77Z"/><path class="cls-54" d="M806.56,253.06a.48.48,0,0,1-.26-.07l-13.61-7.86a.52.52,0,0,1,.52-.9l13.35,7.71,13.36-7.71a.52.52,0,1,1,.52.9L806.82,253A.48.48,0,0,1,806.56,253.06Z"/><path class="cls-54" d="M806.56,242.35a.59.59,0,0,1-.26-.07l-13.61-7.86a.52.52,0,0,1-.19-.71.51.51,0,0,1,.71-.19l13.35,7.71,13.36-7.71a.51.51,0,0,1,.71.19.52.52,0,0,1-.19.71l-13.62,7.86A.59.59,0,0,1,806.56,242.35Z"/><path class="cls-54" d="M806.56,231.64a.5.5,0,0,1-.26-.08l-13.61-7.86a.51.51,0,0,1-.19-.7.5.5,0,0,1,.71-.19l13.35,7.71,13.36-7.71a.51.51,0,0,1,.71.19.51.51,0,0,1-.19.7l-13.62,7.86A.5.5,0,0,1,806.56,231.64Z"/><path class="cls-54" d="M806.56,220.92a.48.48,0,0,1-.26-.07L792.69,213a.52.52,0,0,1,.52-.9l13.35,7.72,13.36-7.72a.52.52,0,1,1,.52.9l-13.62,7.86A.48.48,0,0,1,806.56,220.92Z"/><path class="cls-54" d="M806.56,210.21a.48.48,0,0,1-.26-.07l-13.61-7.86a.52.52,0,0,1,.52-.9l13.35,7.71,13.36-7.71a.52.52,0,1,1,.52.9l-13.62,7.86A.48.48,0,0,1,806.56,210.21Z"/><path class="cls-53" d="M145.09,310.25a.51.51,0,0,1-.51-.52V231.08a.52.52,0,1,1,1,0v78.65A.52.52,0,0,1,145.09,310.25Z"/><path class="cls-53" d="M158.71,313.26a.59.59,0,0,1-.26-.07l-13.36-7.71-13.35,7.71a.52.52,0,0,1-.52-.9l13.61-7.86a.49.49,0,0,1,.52,0L159,312.29a.52.52,0,0,1,.19.71A.54.54,0,0,1,158.71,313.26Z"/><path class="cls-53" d="M158.71,302.55a.5.5,0,0,1-.26-.08l-13.36-7.71-13.35,7.71a.51.51,0,0,1-.71-.18.52.52,0,0,1,.19-.71l13.61-7.86a.49.49,0,0,1,.52,0L159,301.58a.52.52,0,0,1,.19.71A.54.54,0,0,1,158.71,302.55Z"/><path class="cls-53" d="M158.71,291.83a.48.48,0,0,1-.26-.07l-13.36-7.71-13.35,7.71a.52.52,0,1,1-.52-.89L144.83,283a.53.53,0,0,1,.52,0L159,290.87a.51.51,0,0,1,.19.7A.52.52,0,0,1,158.71,291.83Z"/><path class="cls-53" d="M158.71,281.12a.48.48,0,0,1-.26-.07l-13.36-7.71-13.35,7.71a.52.52,0,0,1-.52-.9l13.61-7.86a.53.53,0,0,1,.52,0L159,280.15a.52.52,0,0,1,.19.71A.52.52,0,0,1,158.71,281.12Z"/><path class="cls-53" d="M158.71,270.41a.48.48,0,0,1-.26-.07l-13.36-7.71-13.35,7.71a.52.52,0,0,1-.52-.9l13.61-7.86a.53.53,0,0,1,.52,0L159,269.44a.52.52,0,0,1-.26,1Z"/><path class="cls-53" d="M158.71,259.7a.59.59,0,0,1-.26-.07l-13.36-7.72-13.35,7.72a.52.52,0,0,1-.52-.9l13.61-7.86a.49.49,0,0,1,.52,0L159,258.73a.52.52,0,0,1,.19.71A.54.54,0,0,1,158.71,259.7Z"/><path class="cls-53" d="M158.71,249a.48.48,0,0,1-.26-.07l-13.36-7.71-13.35,7.71a.52.52,0,1,1-.52-.89l13.61-7.86a.49.49,0,0,1,.52,0L159,248a.51.51,0,0,1-.26,1Z"/><path class="cls-54" d="M145.09,323.67a.52.52,0,0,1-.51-.52V244.49a.52.52,0,1,1,1,0v78.66A.52.52,0,0,1,145.09,323.67Z"/><path class="cls-54" d="M132.93,316.79a.52.52,0,0,1-.52-.51V237.62a.52.52,0,0,1,.52-.52.52.52,0,0,1,.52.52v78.66A.51.51,0,0,1,132.93,316.79Z"/><path class="cls-54" d="M157.26,316.79a.51.51,0,0,1-.52-.51V237.62a.52.52,0,0,1,.52-.52.52.52,0,0,1,.52.52v78.66A.52.52,0,0,1,157.26,316.79Z"/><path class="cls-54" d="M145.09,321.12a.51.51,0,0,1-.26-.07l-13.61-7.86a.52.52,0,0,1,.52-.9L145.09,320l13.36-7.71a.52.52,0,1,1,.52.9l-13.62,7.86A.48.48,0,0,1,145.09,321.12Z"/><path class="cls-54" d="M145.09,310.41a.63.63,0,0,1-.26-.07l-13.61-7.87a.52.52,0,1,1,.52-.89l13.35,7.71,13.36-7.71a.52.52,0,1,1,.52.89l-13.62,7.87A.59.59,0,0,1,145.09,310.41Z"/><path class="cls-54" d="M145.09,299.69a.51.51,0,0,1-.26-.07l-13.61-7.86a.52.52,0,1,1,.52-.89l13.35,7.71,13.36-7.71a.52.52,0,1,1,.52.89l-13.62,7.86A.48.48,0,0,1,145.09,299.69Z"/><path class="cls-54" d="M145.09,289a.51.51,0,0,1-.26-.07l-13.61-7.86a.52.52,0,1,1,.52-.9l13.35,7.72,13.36-7.72a.52.52,0,1,1,.52.9l-13.62,7.86A.48.48,0,0,1,145.09,289Z"/><path class="cls-54" d="M145.09,278.27a.51.51,0,0,1-.26-.07l-13.61-7.86a.52.52,0,0,1,.52-.9l13.35,7.71,13.36-7.71a.52.52,0,1,1,.52.9l-13.62,7.86A.48.48,0,0,1,145.09,278.27Z"/><path class="cls-54" d="M145.09,267.56a.51.51,0,0,1-.26-.07l-13.61-7.86a.52.52,0,0,1,.52-.9l13.35,7.71,13.36-7.71a.52.52,0,1,1,.52.9l-13.62,7.86A.48.48,0,0,1,145.09,267.56Z"/><path class="cls-54" d="M145.09,256.85a.63.63,0,0,1-.26-.07l-13.61-7.87a.51.51,0,0,1-.19-.7.52.52,0,0,1,.71-.19l13.35,7.71L158.45,248a.52.52,0,0,1,.71.19.51.51,0,0,1-.19.7l-13.62,7.87A.59.59,0,0,1,145.09,256.85Z"/><g class="cls-18"><polygon class="cls-6" points="582.59 778.59 582.55 792.04 433.66 878.57 433.69 865.12 582.59 778.59"/><polygon class="cls-5" points="433.69 865.12 433.66 878.57 324.45 815.52 324.49 802.07 433.69 865.12"/><polygon class="cls-7" points="582.59 778.59 433.69 865.12 324.49 802.07 375.68 772.32 433.36 805.62 531.07 748.84 582.59 778.59"/></g><g class="cls-18"><polygon class="cls-6" points="582.59 560.72 582.55 574.17 433.66 660.7 433.69 647.25 582.59 560.72"/><polygon class="cls-5" points="433.69 647.25 433.66 660.7 324.45 597.65 324.49 584.2 433.69 647.25"/><polygon class="cls-7" points="582.59 560.72 433.69 647.25 324.49 584.2 375.68 554.45 433.36 587.75 531.07 530.97 582.59 560.72"/></g><rect class="cls-7" x="1100" y="714.51" width="330.95" height="320.46" rx="29.04"/><polygon class="cls-7" points="1405 976 1530 962 1405 931 1405 976"/><g class="cls-18"><polygon class="cls-55" points="1407.1 789.27 1406.79 898.54 1376.09 916.39 1376.4 807.12 1407.1 789.27"/><polygon class="cls-3" points="1376.4 807.12 1376.09 916.39 1261.3 850.11 1261.61 740.84 1376.4 807.12"/><polygon class="cls-5" points="1407.1 789.27 1376.4 807.12 1261.61 740.84 1292.31 723 1407.1 789.27"/></g><polygon class="cls-3" points="1251 915 1267 906 1251 897 1293 891 1299 924 1282 916 1268 925 1251 915"/><path class="cls-5" d="M1112.36,959c6.22-10.38,45.5-59.53,45.54-59.68.27-1.06,1.39-2.1,3.38-2.91a11.72,11.72,0,0,1,1.14-.41,21.41,21.41,0,0,1,4.13-.84,24.74,24.74,0,0,1,11,1.15l.26.1a7.84,7.84,0,0,1,2.4,1.45l49,61.14c.5,6.33-5.87,11.94-17.61,16.77-22.53,9.26-59.06,9.26-81.59,0C1118.22,970.94,1111.86,965.33,1112.36,959Z"/><path class="cls-3" d="M1112.36,959c6.22-10.38,45.5-59.53,45.54-59.68.27-1.06,1.39-2.1,3.38-2.91a11.72,11.72,0,0,1,1.14-.41,19.33,19.33,0,0,1,2.3-.57,16.51,16.51,0,0,1-3.38,14.49c-15.14,17.07-22.71,43.12,5.05,53.45,20.35,7.86,41.78-1.45,56.87-11.75l5.91,7.38c.5,6.33-5.87,11.94-17.61,16.77-22.53,9.26-59.06,9.26-81.59,0C1118.22,970.94,1111.86,965.33,1112.36,959Z"/><path class="cls-5" d="M1170.79,990.56c6.5-10.53,47.57-60.44,47.61-60.58.28-1.08,1.46-2.13,3.53-3q.57-.22,1.2-.42a23.12,23.12,0,0,1,4.32-.85,26.62,26.62,0,0,1,11.47,1.16l.27.11a8.58,8.58,0,0,1,2.52,1.47l51.2,62.07c.53,6.43-6.13,12.13-18.41,17-23.56,9.4-61.74,9.4-85.3,0C1176.92,1002.69,1170.26,997,1170.79,990.56Z"/><path class="cls-3" d="M1170.79,990.56c6.5-10.53,47.57-60.44,47.61-60.58.28-1.08,1.46-2.13,3.53-3q.57-.22,1.2-.42a23.12,23.12,0,0,1,4.32-.85,31,31,0,0,1,4.1-.14c.39,3.84-.93,8-4.55,12.16-10.76,11.72-20.26,22.54-26,35.61-3.8,8.57,3.8,17.58,15.2,19.39,24.25,3.29,54.81,6.57,73.93-5.52l2.74,3.31c.53,6.43-6.13,12.13-18.41,17-23.56,9.4-61.74,9.4-85.3,0C1176.92,1002.69,1170.26,997,1170.79,990.56Z"/><text class="cls-56" transform="translate(1134.69 867.02) scale(1.03 1)">?</text><rect class="cls-7" x="1404" y="39" width="471" height="57" rx="22.73"/><text class="cls-57" transform="translate(1432.43 79.99) scale(1.03 1)">Wall</text><polyline class="cls-58" points="1841.22 68.3 1850.85 75.53 1859.68 67.5"/><rect class="cls-3" x="1509" y="386.32" width="277" height="58.36" rx="17.64"/><text class="cls-59" transform="translate(1564.85 427.21) scale(1.03 1)">Calculate</text><text class="cls-60" transform="translate(1405.4 540.21) scale(1.03 1)">Cubic Meters</text><text class="cls-60" transform="translate(1405.4 629.21) scale(1.03 1)">Cubic Yards</text><text class="cls-60" transform="translate(1405.4 709.21) scale(1.03 1)">Cubic Feet</text><rect class="cls-7" x="1638" y="496" width="211" height="69" rx="18.86"/><rect class="cls-7" x="1638" y="580" width="211" height="69" rx="18.86"/><rect class="cls-7" x="1638" y="664" width="211" height="69" rx="18.86"/><text class="cls-61" transform="translate(1705.4 541.21) scale(1.03 1)">30 m</text><text class="cls-61" transform="translate(1779.18 531.09) scale(0.6 0.58)">3</text><text class="cls-61" transform="translate(1692.4 628.21) scale(1.03 1)">39.2 yd</text><text class="cls-61" transform="translate(1799.01 618.09) scale(0.6 0.58)">3</text><text class="cls-61" transform="translate(1664.4 712.21) scale(1.03 1)">1059.44 ft</text><text class="cls-61" transform="translate(1811.98 702.09) scale(0.6 0.58)">3</text><path class="cls-15" d="M1690.67,867a13,13,0,0,1,10.33,1c5,3,6,11,6,11l8-8s-3.14-15.3-11.07-16.15C1703.93,854.85,1699.33,863.93,1690.67,867Z"/></svg>