<svg width="270" height="222" viewBox="0 0 270 222" fill="none" xmlns="http://www.w3.org/2000/svg" class="tab" data-tab="1">

	<mask id="path-1-inside-1_5994_68700" fill="white">
		<path fill-rule="evenodd" clip-rule="evenodd" d="M18 136V115C18 131.016 65.0101 144 123 144C180.99 144 228 131.016 228 115V136C228 152.016 180.99 165 123 165C65.0101 165 18 152.016 18 136Z" />
	</mask>
	<path fill-rule="evenodd" clip-rule="evenodd" d="M18 136V115C18 131.016 65.0101 144 123 144C180.99 144 228 131.016 228 115V136C228 152.016 180.99 165 123 165C65.0101 165 18 152.016 18 136Z" fill="#F5F3FF" />
	<path d="M17 115V136H19V115H17ZM123 143C94.0685 143 67.9123 139.76 49.02 134.542C39.5668 131.931 31.9892 128.84 26.7982 125.451C21.5652 122.034 19 118.481 19 115H17C17 119.528 20.3111 123.603 25.7047 127.125C31.1402 130.675 38.9395 133.833 48.4876 136.47C67.5978 141.748 93.9416 145 123 145V143ZM227 115C227 118.481 224.435 122.034 219.202 125.451C214.011 128.84 206.433 131.931 196.98 134.542C178.088 139.76 151.931 143 123 143V145C152.058 145 178.402 141.748 197.512 136.47C207.061 133.833 214.86 130.675 220.295 127.125C225.689 123.603 229 119.528 229 115H227ZM229 136V115H227V136H229ZM123 166C152.058 166 178.402 162.748 197.512 157.47C207.061 154.833 214.86 151.675 220.295 148.125C225.689 144.603 229 140.528 229 136H227C227 139.48 224.435 143.034 219.202 146.451C214.011 149.84 206.433 152.931 196.98 155.542C178.088 160.76 151.931 164 123 164V166ZM17 136C17 140.528 20.3111 144.603 25.7047 148.125C31.1402 151.675 38.9395 154.833 48.4876 157.47C67.5978 162.748 93.9416 166 123 166V164C94.0685 164 67.9123 160.76 49.02 155.542C39.5668 152.931 31.9892 149.84 26.7982 146.451C21.5652 143.034 19 139.48 19 136H17Z" fill="#A78BFA" mask="url(#path-1-inside-1_5994_68700)" />
	<path d="M227.5 116C227.5 119.742 224.748 123.426 219.475 126.869C214.223 130.299 206.59 133.407 197.113 136.024C178.166 141.257 151.963 144.5 123 144.5C94.0368 144.5 67.8337 141.257 48.8869 136.024C39.41 133.407 31.7769 130.299 26.5248 126.869C21.2517 123.426 18.5 119.742 18.5 116C18.5 112.258 21.2517 108.574 26.5248 105.131C31.7769 101.701 39.41 98.5933 48.8869 95.9759C67.8337 90.7429 94.0368 87.5 123 87.5C151.963 87.5 178.166 90.7429 197.113 95.9759C206.59 98.5933 214.223 101.701 219.475 105.131C224.748 108.574 227.5 112.258 227.5 116Z" fill="#F5F3FF" stroke="#A78BFA" />
	<line x1="228.5" y1="72" x2="228.5" y2="108" stroke="#A78BFA" />
	<line x1="18.5" y1="72" x2="18.5" y2="108" stroke="#A78BFA" />
	<path d="M226.354 77.3536C226.549 77.1583 226.549 76.8417 226.354 76.6464L223.172 73.4645C222.976 73.2692 222.66 73.2692 222.464 73.4645C222.269 73.6597 222.269 73.9763 222.464 74.1716L225.293 77L222.464 79.8284C222.269 80.0237 222.269 80.3403 222.464 80.5355C222.66 80.7308 222.976 80.7308 223.172 80.5355L226.354 77.3536ZM20.6465 76.6464C20.4512 76.8417 20.4512 77.1583 20.6465 77.3536L23.8284 80.5355C24.0237 80.7308 24.3403 80.7308 24.5355 80.5355C24.7308 80.3403 24.7308 80.0237 24.5355 79.8284L21.7071 77L24.5355 74.1716C24.7308 73.9763 24.7308 73.6597 24.5355 73.4645C24.3403 73.2692 24.0237 73.2692 23.8284 73.4645L20.6465 76.6464ZM226 76.5L21 76.5V77.5L226 77.5V76.5Z" fill="#A78BFA" />
	<path d="M120.403 69L118.409 62.4545H119.466L120.881 67.4659H120.949L122.347 62.4545H123.42L124.801 67.4489H124.869L126.284 62.4545H127.341L125.347 69H124.358L122.926 63.9716H122.824L121.392 69H120.403Z" fill="#7C3AED" />
	<line x1="245" y1="116.5" x2="230" y2="116.5" stroke="#A78BFA" />
	<line x1="245" y1="138.5" x2="230" y2="138.5" stroke="#A78BFA" />
	<path d="M237.646 137.354C237.842 137.549 238.158 137.549 238.354 137.354L241.536 134.172C241.731 133.976 241.731 133.66 241.536 133.464C241.34 133.269 241.024 133.269 240.828 133.464L238 136.293L235.172 133.464C234.976 133.269 234.66 133.269 234.464 133.464C234.269 133.66 234.269 133.976 234.464 134.172L237.646 137.354ZM238.354 117.646C238.158 117.451 237.842 117.451 237.646 117.646L234.464 120.828C234.269 121.024 234.269 121.34 234.464 121.536C234.66 121.731 234.976 121.731 235.172 121.536L238 118.707L240.828 121.536C241.024 121.731 241.34 121.731 241.536 121.536C241.731 121.34 241.731 121.024 241.536 120.828L238.354 117.646ZM238.5 137L238.5 118L237.5 118L237.5 137L238.5 137Z" fill="#A78BFA" />
	<path d="M247.392 132.136C246.847 132.136 246.365 131.999 245.947 131.723C245.53 131.445 245.203 131.053 244.967 130.547C244.732 130.038 244.614 129.438 244.614 128.744C244.614 128.057 244.732 127.46 244.967 126.955C245.203 126.449 245.531 126.058 245.952 125.783C246.372 125.507 246.858 125.369 247.409 125.369C247.835 125.369 248.172 125.44 248.419 125.582C248.669 125.722 248.859 125.881 248.99 126.06C249.124 126.236 249.227 126.381 249.301 126.494H249.386V123.273H250.392V132H249.42V130.994H249.301C249.227 131.114 249.122 131.264 248.986 131.446C248.849 131.625 248.655 131.786 248.402 131.928C248.149 132.067 247.813 132.136 247.392 132.136ZM247.528 131.233C247.932 131.233 248.273 131.128 248.551 130.918C248.83 130.705 249.041 130.411 249.186 130.036C249.331 129.658 249.403 129.222 249.403 128.727C249.403 128.239 249.332 127.811 249.19 127.445C249.048 127.075 248.838 126.788 248.56 126.584C248.281 126.376 247.938 126.273 247.528 126.273C247.102 126.273 246.747 126.382 246.463 126.601C246.182 126.817 245.97 127.111 245.828 127.483C245.689 127.852 245.619 128.267 245.619 128.727C245.619 129.193 245.69 129.616 245.832 129.997C245.977 130.375 246.19 130.676 246.472 130.901C246.756 131.122 247.108 131.233 247.528 131.233Z" fill="#7C3AED" />
</svg>