<svg width="270" height="222" viewBox="0 0 270 222" fill="none" xmlns="http://www.w3.org/2000/svg" class="tab" data-tab="5">

	<path fill-rule="evenodd" clip-rule="evenodd" d="M169 163.481C169 171.5 147.734 178 121.5 178C95.2665 178 74 171.5 74 163.481V34H74.032C74.9574 26.7758 95.8555 21 121.5 21C147.17 21 168.084 26.7872 168.971 34.0214C168.97 34.0143 168.969 34.0071 168.968 34H169V163.481Z" fill="#F5F3FF" />
	<path fill-rule="evenodd" clip-rule="evenodd" d="M168 37.2688C168.655 36.3751 169 35.449 169 34.5V35V163.481C169 171.5 147.734 178 121.5 178C95.2665 178 74 171.5 74 163.481V35V34.5C74 35.449 74.3445 36.3751 75 37.2688V37.3833V37.5126V37.644V37.7777V37.9137V38.0518V38.1921V38.3346V38.4793V38.6261V38.7751V38.9262V39.0794V39.2348V39.3922V39.5518V39.7135V39.8772V40.043V40.2108V40.3807V40.5527V40.7266V40.9026V41.0806V41.2605V41.4425V41.6264V41.8123V42.0001V42.1899V42.3816V42.5752V42.7707V42.9682V43.1675V43.3687V43.5717V43.7766V43.9834V44.192V44.4024V44.6146V44.8287V45.0445V45.2621V45.4815V45.7026V45.9255V46.1501V46.3765V46.6046V46.8344V47.0659V47.2991V47.5339V47.7704V48.0086V48.2484V48.4899V48.733V48.9777V49.224V49.4719V49.7214V49.9724V50.225V50.4792V50.7349V50.9921V51.2509V51.5112V51.7729V52.0362V52.3009V52.5671V52.8348V53.1039V53.3744V53.6464V53.9198V54.1946V54.4707V54.7483V55.0272V55.3075V55.5892V55.8722V56.1565V56.4421V56.7291V57.0173V57.3069V57.5977V57.8898V58.1831V58.4777V58.7735V59.0706V59.3688V59.6683V59.969V60.2708V60.5739V60.878V61.1834V61.4899V61.7975V62.1062V62.4161V62.727V63.039V63.3521V63.6663V63.9816V64.2979V64.6152V64.9335V65.2529V65.5733V65.8946V66.217V66.5403V66.8646V67.1898V67.516V67.8431V68.1712V68.5001V68.8299V69.1607V69.4923V69.8248V70.1581V70.4923V70.8273V71.1632V71.4999V71.8373V72.1756V72.5147V72.8545V73.1951V73.5365V73.8785V74.2214V74.5649V74.9092V75.2541V75.5998V75.9461V76.2931V76.6408V76.9891V77.338V77.6876V78.0378V78.3886V78.7399V79.0919V79.4445V79.7976V80.1512V80.5055V80.8602V81.2155V81.5712V81.9275V82.2843V82.6415V82.9993V83.3574V83.7161V84.0751V84.4346V84.7945V85.1549V85.5156V85.8767V86.2381V86.6V86.9622V87.3247V87.6876V88.0508V88.4143V88.7781V89.1422V89.5066V89.8712V90.2361V90.6013V90.9667V91.3323V91.6982V92.0642V92.4305V92.7969V93.1635V93.5303V93.8972V94.2643V94.6315V94.9988V95.3663V95.7338V96.1015V96.4692V96.837V97.2048V97.5727V97.9407V98.3086V98.6766V99.0446V99.4126V99.7806V100.149V100.516V100.884V101.252V101.62V101.988V102.355V102.723V103.09V103.457V103.824V104.191V104.558V104.925V105.292V105.658V106.024V106.39V106.756V107.121V107.486V107.852V108.216V108.581V108.945V109.309V109.673V110.036V110.399V110.762V111.124V111.486V111.848V112.209V112.57V112.93V113.291V113.65V114.009V114.368V114.727V115.085V115.442V115.799V116.156V116.512V116.867V117.222V117.577V117.931V118.284V118.637V118.989V119.341V119.692V120.042V120.392V120.741V121.09V121.438V121.785V122.132V122.478V122.823V123.168V123.512V123.855V124.197V124.539V124.88V125.22V125.559V125.898V126.236V126.573V126.909V127.245V127.579V127.913V128.246V128.578V128.909V129.239V129.569V129.897V130.225V130.551V130.877V131.202V131.526V131.848V132.17V132.491V132.811V133.13V133.448V133.764V134.08V134.395V134.708V135.021V135.332V135.643V135.952V136.26V136.567V136.873V137.178V137.481V137.784V138.085V138.385V138.684V138.982V139.278V139.573V139.867V140.16V140.451V140.741V141.03V141.318V141.604V141.889V142.173V142.455V142.736V143.016V143.294V143.571V143.846V144.12V144.393V144.664V144.934V145.202V145.469V145.734V145.998V146.261V146.522V146.781V147.039V147.296V147.551V147.804V148.056V148.306V148.555V148.802V149.047V149.291V149.533V149.774V150.013V150.25V150.486V150.72V150.952V151.183V151.412V151.639V151.864V152.088V152.31V152.53V152.749V152.965V153.18V153.393V153.605V153.814V154.022V154.227V154.431V154.634V154.834V155.032V155.228V155.423V155.616V155.806V155.995V156.182V156.367V156.55V156.731V156.909V157.086V157.261V157.434V157.605V157.774V157.941V158.105V158.268V158.429V158.587V158.743V158.898V159.05V159.2V159.348V159.493V159.637V159.778V159.917V160.054V160.189V160.322V160.452V160.58V160.706V160.829V160.951V161.07V161.186V161.301V161.413V161.523V161.63V161.735V161.838V161.938V162.036V162.132V162.225V162.316V162.405V162.49V162.574V162.655V162.734V162.81V162.884V162.955V163.023V163.09V163.153V163.214V163.273V163.329V163.382V163.433V163.481C75 165.01 76.0165 166.659 78.3185 168.322C80.5976 169.969 83.9599 171.494 88.2047 172.791C96.682 175.382 108.454 177 121.5 177C134.546 177 146.318 175.382 154.795 172.791C159.04 171.494 162.402 169.969 164.681 168.322C166.983 166.659 168 165.01 168 163.481V163.457V163.429V163.398V163.365V163.329V163.291V163.25V163.205V163.159V163.109V163.057V163.003V162.945V162.885V162.823V162.757V162.689V162.619V162.546V162.47V162.392V162.311V162.228V162.142V162.054V161.963V161.87V161.774V161.676V161.575V161.472V161.367V161.259V161.148V161.035V160.92V160.802V160.682V160.56V160.435V160.308V160.179V160.047V159.913V159.777V159.639V159.498V159.355V159.209V159.062V158.912V158.76V158.606V158.449V158.291V158.13V157.967V157.802V157.635V157.465V157.294V157.12V156.944V156.767V156.587V156.405V156.221V156.035V155.847V155.657V155.465V155.271V155.075V154.877V154.677V154.475V154.271V154.065V153.858V153.648V153.436V153.223V153.008V152.791V152.572V152.351V152.128V151.904V151.677V151.449V151.219V150.988V150.754V150.519V150.282V150.043V149.803V149.561V149.317V149.072V148.825V148.576V148.325V148.073V147.82V147.564V147.307V147.049V146.788V146.527V146.263V145.999V145.732V145.464V145.195V144.924V144.651V144.377V144.102V143.825V143.547V143.267V142.986V142.703V142.419V142.134V141.847V141.559V141.269V140.978V140.686V140.392V140.097V139.801V139.503V139.204V138.904V138.603V138.3V137.996V137.691V137.385V137.077V136.769V136.459V136.147V135.835V135.522V135.207V134.891V134.574V134.256V133.937V133.617V133.296V132.974V132.65V132.326V132V131.674V131.346V131.018V130.688V130.358V130.026V129.694V129.361V129.026V128.691V128.355V128.018V127.68V127.341V127.001V126.661V126.319V125.977V125.634V125.29V124.946V124.6V124.254V123.907V123.559V123.211V122.861V122.511V122.161V121.809V121.457V121.104V120.751V120.397V120.042V119.687V119.33V118.974V118.617V118.259V117.9V117.541V117.182V116.822V116.461V116.1V115.738V115.376V115.013V114.65V114.286V113.922V113.558V113.192V112.827V112.461V112.095V111.728V111.361V110.994V110.626V110.258V109.889V109.521V109.151V108.782V108.412V108.042V107.672V107.301V106.931V106.56V106.188V105.817V105.445V105.073V104.701V104.329V103.956V103.584V103.211V102.838V102.465V102.092V101.719V101.346V100.972V100.599V100.226V99.852V99.4785V99.1049V98.7314V98.3578V97.9843V97.6108V97.2373V96.8638V96.4904V96.1171V95.7439V95.3707V94.9977V94.6247V94.2519V93.8793V93.5067V93.1343V92.7621V92.3901V92.0183V91.6466V91.2752V90.904V90.533V90.1623V89.7918V89.4216V89.0517V88.682V88.3127V87.9437V87.575V87.2066V86.8386V86.4709V86.1036V85.7366V85.3701V85.0039V84.6382V84.2729V83.908V83.5436V83.1796V82.8161V82.453V82.0905V81.7284V81.3669V81.0058V80.6453V80.2854V79.926V79.5672V79.2089V78.8512V78.4942V78.1377V77.7818V77.4266V77.0721V76.7181V76.3649V76.0123V75.6604V75.3092V74.9587V74.609V74.2599V73.9116V73.5641V73.2173V72.8713V72.5261V72.1816V71.838V71.4952V71.1533V70.8121V70.4718V70.1324V69.7939V69.4562V69.1195V68.7836V68.4487V68.1147V67.7816V67.4495V67.1183V66.7882V66.459V66.1308V65.8036V65.4774V65.1523V64.8281V64.5051V64.1831V63.8622V63.5423V63.2236V62.9059V62.5894V62.274V61.9598V61.6466V61.3347V61.0239V60.7143V60.4059V60.0987V59.7928V59.488V59.1845V58.8822V58.5812V58.2815V57.9831V57.6859V57.39V57.0955V56.8023V56.5104V56.2199V55.9307V55.6429V55.3565V55.0715V54.7879V54.5057V54.2249V53.9456V53.6677V53.3912V53.1163V52.8428V52.5708V52.3003V52.0314V51.7639V51.498V51.2336V50.9708V50.7096V50.4499V50.1919V49.9354V49.6805V49.4273V49.1757V48.9258V48.6775V48.4309V48.186V47.9427V47.7012V47.4613V47.2232V46.9868V46.7522V46.5193V46.2882V46.0589V45.8314V45.6057V45.3817V45.1596V44.9394V44.721V44.5044V44.2897V44.0769V43.866V43.6569V43.4498V43.2446V43.0414V42.84V42.6407V42.4433V42.2479V42.0545V41.863V41.6736V41.4862V41.3009V41.1175V40.9363V40.7571V40.58V40.4049V40.232V40.0612V39.8925V39.7259V39.5615V39.3992V39.2391V39.0812V38.9254V38.7719V38.6206V38.4715V38.3246V38.1799V38.0375V37.8974V37.7596V37.624V37.4908V37.3598V37.2688ZM74.032 34C74.0107 34.1659 74 34.3326 74 34.5V34H74.032ZM168.968 34H169V34.5C169 34.3326 168.989 34.1659 168.968 34Z" fill="#A78BFA" />
	<path d="M168.5 34.5C168.5 36.109 167.348 37.754 164.988 39.3398C162.646 40.9136 159.224 42.3504 154.951 43.565C146.411 45.9921 134.584 47.5 121.5 47.5C108.416 47.5 96.5891 45.9921 88.0491 43.565C83.7757 42.3504 80.3537 40.9136 78.0117 39.3398C75.6516 37.754 74.5 36.109 74.5 34.5C74.5 32.891 75.6516 31.246 78.0117 29.6602C80.3537 28.0864 83.7757 26.6496 88.0491 25.435C96.5891 23.0079 108.416 21.5 121.5 21.5C134.584 21.5 146.411 23.0079 154.951 25.435C159.224 26.6496 162.646 28.0864 164.988 29.6602C167.348 31.246 168.5 32.891 168.5 34.5Z" stroke="#A78BFA" />
	<line x1="169.5" y1="171" x2="169.5" y2="193" stroke="#A78BFA" />
	<line x1="74.5" y1="169" x2="74.5" y2="191" stroke="#A78BFA" />
	<path d="M167.354 185.354C167.549 185.158 167.549 184.842 167.354 184.646L164.172 181.464C163.976 181.269 163.66 181.269 163.464 181.464C163.269 181.66 163.269 181.976 163.464 182.172L166.293 185L163.464 187.828C163.269 188.024 163.269 188.34 163.464 188.536C163.66 188.731 163.976 188.731 164.172 188.536L167.354 185.354ZM76.6464 184.646C76.4512 184.842 76.4512 185.158 76.6464 185.354L79.8284 188.536C80.0237 188.731 80.3403 188.731 80.5355 188.536C80.7308 188.34 80.7308 188.024 80.5355 187.828L77.7071 185L80.5355 182.172C80.7308 181.976 80.7308 181.66 80.5355 181.464C80.3403 181.269 80.0237 181.269 79.8284 181.464L76.6464 184.646ZM167 184.5H77V185.5H167V184.5Z" fill="#A78BFA" />
	<path d="M119.403 197L117.409 190.455H118.466L119.881 195.466H119.949L121.347 190.455H122.42L123.801 195.449H123.869L125.284 190.455H126.341L124.347 197H123.358L121.926 191.972H121.824L120.392 197H119.403Z" fill="#7C3AED" />
	<line x1="189" y1="36.5" x2="174" y2="36.5" stroke="#A78BFA" />
	<line x1="189" y1="163.5" x2="174" y2="163.5" stroke="#A78BFA" />
	<path d="M181.646 161.354C181.842 161.549 182.158 161.549 182.354 161.354L185.536 158.172C185.731 157.976 185.731 157.66 185.536 157.464C185.34 157.269 185.024 157.269 184.828 157.464L182 160.293L179.172 157.464C178.976 157.269 178.66 157.269 178.464 157.464C178.269 157.66 178.269 157.976 178.464 158.172L181.646 161.354ZM182.354 37.6464C182.158 37.4512 181.842 37.4512 181.646 37.6464L178.464 40.8284C178.269 41.0237 178.269 41.3403 178.464 41.5355C178.66 41.7308 178.976 41.7308 179.172 41.5355L182 38.7071L184.828 41.5355C185.024 41.7308 185.34 41.7308 185.536 41.5355C185.731 41.3403 185.731 41.0237 185.536 40.8284L182.354 37.6464ZM182.5 161L182.5 38L181.5 38L181.5 161L182.5 161Z" fill="#A78BFA" />
	<path d="M189.926 100.062V104H188.92V95.2727H189.926V98.4773H190.011C190.165 98.1392 190.395 97.8707 190.702 97.6719C191.011 97.4702 191.423 97.3693 191.938 97.3693C192.384 97.3693 192.774 97.4588 193.109 97.6378C193.445 97.8139 193.705 98.0852 193.889 98.4517C194.077 98.8153 194.17 99.2784 194.17 99.8409V104H193.165V99.9091C193.165 99.3892 193.03 98.9872 192.76 98.7031C192.493 98.4162 192.122 98.2727 191.648 98.2727C191.318 98.2727 191.023 98.3423 190.761 98.4815C190.503 98.6207 190.298 98.8239 190.148 99.0909C190 99.358 189.926 99.6818 189.926 100.062Z" fill="#7C3AED" />
</svg>