<svg width="270" height="222" viewBox="0 0 270 222" fill="none" xmlns="http://www.w3.org/2000/svg" class="tab tab--active" data-tab="0">

	<mask id="path-1-inside-1_5994_68164" fill="white">
		<path fill-rule="evenodd" clip-rule="evenodd" d="M92 45H232V68L152 144.5H12V121.5L92 45Z" />
	</mask>
	<path fill-rule="evenodd" clip-rule="evenodd" d="M92 45H232V68L152 144.5H12V121.5L92 45Z" fill="#F5F3FF" />
	<path d="M232 45H233V44H232V45ZM92 45V44H91.5988L91.3089 44.2773L92 45ZM232 68L232.691 68.7227L233 68.4274V68H232ZM152 144.5V145.5H152.401L152.691 145.223L152 144.5ZM12 144.5H11V145.5H12V144.5ZM12 121.5L11.3089 120.777L11 121.073V121.5H12ZM232 44H92V46H232V44ZM231 45V68H233V45H231ZM231.309 67.2773L151.309 143.777L152.691 145.223L232.691 68.7227L231.309 67.2773ZM12 145.5H152V143.5H12V145.5ZM11 121.5V144.5H13V121.5H11ZM91.3089 44.2773L11.3089 120.777L12.6911 122.223L92.6911 45.7227L91.3089 44.2773Z" fill="#A78BFA" mask="url(#path-1-inside-1_5994_68164)" />
	<path d="M13 121.5H152M152 121.5V143.5M152 121.5L231.5 45.5" stroke="#A78BFA" />
	<line x1="151.5" y1="147" x2="151.5" y2="162" stroke="#A78BFA" />
	<line x1="232.5" y1="71" x2="232.5" y2="86" stroke="#A78BFA" />
	<line x1="12.5" y1="147" x2="12.5" y2="162" stroke="#A78BFA" />
	<line x1="250" y1="45.5" x2="235" y2="45.5" stroke="#A78BFA" />
	<line x1="250" y1="67.5" x2="235" y2="67.5" stroke="#A78BFA" />
	<path d="M150.354 158.354C150.549 158.158 150.549 157.842 150.354 157.646L147.172 154.464C146.976 154.269 146.66 154.269 146.464 154.464C146.269 154.66 146.269 154.976 146.464 155.172L149.293 158L146.464 160.828C146.269 161.024 146.269 161.34 146.464 161.536C146.66 161.731 146.976 161.731 147.172 161.536L150.354 158.354ZM13.6465 157.646C13.4512 157.842 13.4512 158.158 13.6465 158.354L16.8284 161.536C17.0237 161.731 17.3403 161.731 17.5355 161.536C17.7308 161.34 17.7308 161.024 17.5355 160.828L14.7071 158L17.5355 155.172C17.7308 154.976 17.7308 154.66 17.5355 154.464C17.3403 154.269 17.0237 154.269 16.8284 154.464L13.6465 157.646ZM150 157.5L14 157.5V158.5L150 158.5V157.5Z" fill="#A78BFA" />
	<path d="M230.5 85.0068C230.504 84.7306 230.283 84.5038 230.007 84.5L225.507 84.4392C225.231 84.4355 225.004 84.6563 225 84.9324C224.997 85.2086 225.218 85.4354 225.494 85.4391L229.493 85.4932L229.439 89.4928C229.436 89.769 229.656 89.9958 229.932 89.9995C230.209 90.0033 230.435 89.7825 230.439 89.5063L230.5 85.0068ZM154.5 157.993C154.496 158.269 154.717 158.496 154.993 158.5L159.493 158.561C159.769 158.564 159.996 158.344 160 158.068C160.003 157.791 159.782 157.565 159.506 157.561L155.507 157.507L155.561 153.507C155.564 153.231 155.344 153.004 155.068 153C154.791 152.997 154.565 153.218 154.561 153.494L154.5 157.993ZM229.651 84.6417L154.651 157.642L155.349 158.358L230.349 85.3583L229.651 84.6417Z" fill="#A78BFA" />
	<path d="M242.646 66.3536C242.842 66.5488 243.158 66.5488 243.354 66.3536L246.536 63.1716C246.731 62.9763 246.731 62.6597 246.536 62.4645C246.34 62.2692 246.024 62.2692 245.828 62.4645L243 65.2929L240.172 62.4645C239.976 62.2692 239.66 62.2692 239.464 62.4645C239.269 62.6597 239.269 62.9763 239.464 63.1716L242.646 66.3536ZM243.354 46.6464C243.158 46.4512 242.842 46.4512 242.646 46.6464L239.464 49.8284C239.269 50.0237 239.269 50.3403 239.464 50.5355C239.66 50.7308 239.976 50.7308 240.172 50.5355L243 47.7071L245.828 50.5355C246.024 50.7308 246.34 50.7308 246.536 50.5355C246.731 50.3403 246.731 50.0237 246.536 49.8284L243.354 46.6464ZM243.5 66L243.5 47L242.5 47L242.5 66L243.5 66Z" fill="#A78BFA" />
	<path d="M80.4034 174L78.4091 167.455H79.4659L80.8807 172.466H80.9489L82.3466 167.455H83.4205L84.8011 172.449H84.8693L86.2841 167.455H87.3409L85.3466 174H84.358L82.9261 168.972H82.8239L81.392 174H80.4034Z" fill="#7C3AED" />
	<path d="M252.392 61.1364C251.847 61.1364 251.365 60.9986 250.947 60.723C250.53 60.4446 250.203 60.0526 249.967 59.5469C249.732 59.0384 249.614 58.4375 249.614 57.7443C249.614 57.0568 249.732 56.4602 249.967 55.9545C250.203 55.4489 250.531 55.0582 250.952 54.7827C251.372 54.5071 251.858 54.3693 252.409 54.3693C252.835 54.3693 253.172 54.4403 253.419 54.5824C253.669 54.7216 253.859 54.8807 253.99 55.0597C254.124 55.2358 254.227 55.3807 254.301 55.4943H254.386V52.2727H255.392V61H254.42V59.9943H254.301C254.227 60.1136 254.122 60.2642 253.986 60.446C253.849 60.625 253.655 60.7855 253.402 60.9276C253.149 61.0668 252.813 61.1364 252.392 61.1364ZM252.528 60.233C252.932 60.233 253.273 60.1278 253.551 59.9176C253.83 59.7045 254.041 59.4105 254.186 59.0355C254.331 58.6577 254.403 58.2216 254.403 57.7273C254.403 57.2386 254.332 56.8111 254.19 56.4446C254.048 56.0753 253.838 55.7884 253.56 55.5838C253.281 55.3764 252.938 55.2727 252.528 55.2727C252.102 55.2727 251.747 55.3821 251.463 55.6009C251.182 55.8168 250.97 56.1108 250.828 56.483C250.689 56.8523 250.619 57.267 250.619 57.7273C250.619 58.1932 250.69 58.6165 250.832 58.9972C250.977 59.375 251.19 59.6761 251.472 59.9006C251.756 60.1222 252.108 60.233 252.528 60.233Z" fill="#7C3AED" />
	<path d="M200.926 123.273V132H199.92V123.273H200.926Z" fill="#7C3AED" />
</svg>