<svg width="270" height="222" viewBox="0 0 270 222" fill="none" xmlns="http://www.w3.org/2000/svg" class="tab" data-tab="4">

	<mask id="path-1-inside-1_5994_68749" fill="white">
		<path fill-rule="evenodd" clip-rule="evenodd" d="M166.5 21H99.5L77 48V176H144L166.5 149V21Z" />
	</mask>
	<path fill-rule="evenodd" clip-rule="evenodd" d="M166.5 21H99.5L77 48V176H144L166.5 149V21Z" fill="#F5F3FF" />
	<path d="M99.5 21V20H99.0316L98.7318 20.3598L99.5 21ZM166.5 21H167.5V20H166.5V21ZM77 48L76.2318 47.3598L76 47.638V48H77ZM77 176H76V177H77V176ZM144 176V177H144.468L144.768 176.64L144 176ZM166.5 149L167.268 149.64L167.5 149.362V149H166.5ZM99.5 22H166.5V20H99.5V22ZM77.7682 48.6402L100.268 21.6402L98.7318 20.3598L76.2318 47.3598L77.7682 48.6402ZM78 176V48H76V176H78ZM144 175H77V177H144V175ZM144.768 176.64L167.268 149.64L165.732 148.36L143.232 175.36L144.768 176.64ZM167.5 149V21H165.5V149H167.5Z" fill="#A78BFA" mask="url(#path-1-inside-1_5994_68749)" />
	<path d="M78 48H144M165.5 21.5L144 48M144 175V48" stroke="#A78BFA" />
	<line x1="144.5" y1="180" x2="144.5" y2="194" stroke="#A78BFA" />
	<line x1="77.5" y1="179" x2="77.5" y2="193" stroke="#A78BFA" />
	<path d="M143.354 186.354C143.549 186.158 143.549 185.842 143.354 185.646L140.172 182.464C139.976 182.269 139.66 182.269 139.464 182.464C139.269 182.66 139.269 182.976 139.464 183.172L142.293 186L139.464 188.828C139.269 189.024 139.269 189.34 139.464 189.536C139.66 189.731 139.976 189.731 140.172 189.536L143.354 186.354ZM78.6464 185.646C78.4512 185.842 78.4512 186.158 78.6464 186.354L81.8284 189.536C82.0237 189.731 82.3403 189.731 82.5355 189.536C82.7308 189.34 82.7308 189.024 82.5355 188.828L79.7071 186L82.5355 183.172C82.7308 182.976 82.7308 182.66 82.5355 182.464C82.3403 182.269 82.0237 182.269 81.8284 182.464L78.6464 185.646ZM143 185.5H79V186.5H143V185.5Z" fill="#A78BFA" />
	<path d="M108.403 198L106.409 191.455H107.466L108.881 196.466H108.949L110.347 191.455H111.42L112.801 196.449H112.869L114.284 191.455H115.341L113.347 198H112.358L110.926 192.972H110.824L109.392 198H108.403Z" fill="#7C3AED" />
	<line x1="166.5" y1="153" x2="166.5" y2="168" stroke="#A78BFA" />
	<path d="M164.496 163.936C164.461 163.663 164.21 163.469 163.936 163.504L159.473 164.076C159.199 164.111 159.005 164.362 159.041 164.636C159.076 164.91 159.326 165.103 159.6 165.068L163.568 164.56L164.076 168.527C164.111 168.801 164.362 168.995 164.636 168.959C164.91 168.924 165.103 168.674 165.068 168.4L164.496 163.936ZM146.504 186.064C146.539 186.337 146.79 186.531 147.064 186.496L151.527 185.924C151.801 185.889 151.995 185.638 151.959 185.364C151.924 185.09 151.674 184.897 151.4 184.932L147.432 185.44L146.924 181.473C146.889 181.199 146.638 181.005 146.364 181.041C146.09 181.076 145.897 181.326 145.932 181.6L146.504 186.064ZM163.604 163.694L146.604 185.694L147.396 186.306L164.396 164.306L163.604 163.694Z" fill="#A78BFA" />
	<path d="M159.926 178.273V187H158.92V178.273H159.926Z" fill="#7C3AED" />
	<line x1="186" y1="21.5" x2="171" y2="21.5" stroke="#A78BFA" />
	<line x1="186" y1="148.5" x2="171" y2="148.5" stroke="#A78BFA" />
	<path d="M178.646 146.354C178.842 146.549 179.158 146.549 179.354 146.354L182.536 143.172C182.731 142.976 182.731 142.66 182.536 142.464C182.34 142.269 182.024 142.269 181.828 142.464L179 145.293L176.172 142.464C175.976 142.269 175.66 142.269 175.464 142.464C175.269 142.66 175.269 142.976 175.464 143.172L178.646 146.354ZM179.354 22.6464C179.158 22.4512 178.842 22.4512 178.646 22.6464L175.464 25.8284C175.269 26.0237 175.269 26.3403 175.464 26.5355C175.66 26.7308 175.976 26.7308 176.172 26.5355L179 23.7071L181.828 26.5355C182.024 26.7308 182.34 26.7308 182.536 26.5355C182.731 26.3403 182.731 26.0237 182.536 25.8284L179.354 22.6464ZM179.5 146L179.5 23L178.5 23L178.5 146L179.5 146Z" fill="#A78BFA" />
	<path d="M186.926 85.0625V89H185.92V80.2727H186.926V83.4773H187.011C187.165 83.1392 187.395 82.8707 187.702 82.6719C188.011 82.4702 188.423 82.3693 188.938 82.3693C189.384 82.3693 189.774 82.4588 190.109 82.6378C190.445 82.8139 190.705 83.0852 190.889 83.4517C191.077 83.8153 191.17 84.2784 191.17 84.8409V89H190.165V84.9091C190.165 84.3892 190.03 83.9872 189.76 83.7031C189.493 83.4162 189.122 83.2727 188.648 83.2727C188.318 83.2727 188.023 83.3423 187.761 83.4815C187.503 83.6207 187.298 83.8239 187.148 84.0909C187 84.358 186.926 84.6818 186.926 85.0625Z" fill="#7C3AED" />
</svg>