<svg width="270" height="222" viewBox="0 0 270 222" fill="none" xmlns="http://www.w3.org/2000/svg" class="tab" data-tab="6">
	<path d="M90 35L26 100V196H155L219 131V99H186V67H154V35H90Z" fill="#F5F3FF" />
	<path fill-rule="evenodd" clip-rule="evenodd" d="M122.5 164.5V131.5H89.5V100.5H27V195H154.5V164.5H122.5ZM155.5 164.205V194.067L218 130.59V100.728L155.5 164.205ZM219 131L155 196H26V100L90 35H154V67H186V99H219V131ZM217.314 100H185.727L124.181 163.5H154.791L217.314 100ZM123.5 162.766V131.205L185 68.7286V99.3133L123.5 162.766ZM184.314 68L122.791 130.5H91.2071L153.707 68H184.314ZM153 67.2929V36.7283L90.5 100.205V129.793L153 67.2929ZM89.7906 99.5L152.314 36H90.4188L27.8957 99.5H89.7906Z" fill="#A78BFA" />
	<line x1="155.5" y1="198" x2="155.5" y2="212" stroke="#A78BFA" />
	<line x1="219.5" y1="136" x2="219.5" y2="151" stroke="#A78BFA" />
	<path d="M216.5 143.992C216.495 143.715 216.268 143.495 215.992 143.5L211.492 143.576C211.216 143.581 210.996 143.809 211.001 144.085C211.005 144.361 211.233 144.581 211.509 144.576L215.509 144.508L215.576 148.508C215.581 148.784 215.809 149.004 216.085 148.999C216.361 148.995 216.581 148.767 216.576 148.491L216.5 143.992ZM157.5 204.008C157.505 204.285 157.732 204.505 158.008 204.5L162.508 204.424C162.784 204.419 163.004 204.191 162.999 203.915C162.995 203.639 162.767 203.419 162.491 203.424L158.491 203.492L158.424 199.492C158.419 199.216 158.191 198.996 157.915 199.001C157.639 199.005 157.419 199.233 157.424 199.509L157.5 204.008ZM215.641 143.652L157.641 203.652L158.359 204.348L216.359 144.348L215.641 143.652Z" fill="#A78BFA" />
	<path d="M195.403 186L193.409 179.455H194.466L195.881 184.466H195.949L197.347 179.455H198.42L199.801 184.449H199.869L201.284 179.455H202.341L200.347 186H199.358L197.926 180.972H197.824L196.392 186H195.403Z" fill="#7C3AED" />
	<line x1="152.5" y1="10" x2="152.5" y2="32" stroke="#A78BFA" />
	<line x1="218.5" y1="42" x2="218.5" y2="98" stroke="#A78BFA" />
	<line x1="90.5" y1="10" x2="90.5" y2="32" stroke="#A78BFA" />
	<line x1="185.5" y1="42" x2="185.5" y2="64" stroke="#A78BFA" />
	<line x1="244" y1="99.5" x2="222" y2="99.5" stroke="#A78BFA" />
	<line x1="244" y1="130.5" x2="222" y2="130.5" stroke="#A78BFA" />
	<path d="M151.354 26.3536C151.549 26.1583 151.549 25.8417 151.354 25.6464L148.172 22.4645C147.976 22.2692 147.66 22.2692 147.464 22.4645C147.269 22.6597 147.269 22.9763 147.464 23.1716L150.293 26L147.464 28.8284C147.269 29.0237 147.269 29.3403 147.464 29.5355C147.66 29.7308 147.976 29.7308 148.172 29.5355L151.354 26.3536ZM92.6464 25.6464C92.4512 25.8417 92.4512 26.1583 92.6464 26.3536L95.8284 29.5355C96.0237 29.7308 96.3403 29.7308 96.5355 29.5355C96.7308 29.3403 96.7308 29.0237 96.5355 28.8284L93.7071 26L96.5355 23.1716C96.7308 22.9763 96.7308 22.6597 96.5355 22.4645C96.3403 22.2692 96.0237 22.2692 95.8284 22.4645L92.6464 25.6464ZM151 25.5L93 25.5V26.5L151 26.5V25.5Z" fill="#A78BFA" />
	<path d="M216.354 58.3536C216.549 58.1583 216.549 57.8417 216.354 57.6464L213.172 54.4645C212.976 54.2692 212.66 54.2692 212.464 54.4645C212.269 54.6597 212.269 54.9763 212.464 55.1716L215.293 58L212.464 60.8284C212.269 61.0237 212.269 61.3403 212.464 61.5355C212.66 61.7308 212.976 61.7308 213.172 61.5355L216.354 58.3536ZM187.646 57.6464C187.451 57.8417 187.451 58.1583 187.646 58.3536L190.828 61.5355C191.024 61.7308 191.34 61.7308 191.536 61.5355C191.731 61.3403 191.731 61.0237 191.536 60.8284L188.707 58L191.536 55.1716C191.731 54.9763 191.731 54.6597 191.536 54.4645C191.34 54.2692 191.024 54.2692 190.828 54.4645L187.646 57.6464ZM216 57.5H188V58.5H216V57.5Z" fill="#A78BFA" />
	<path d="M229.646 129.354C229.842 129.549 230.158 129.549 230.354 129.354L233.536 126.172C233.731 125.976 233.731 125.66 233.536 125.464C233.34 125.269 233.024 125.269 232.828 125.464L230 128.293L227.172 125.464C226.976 125.269 226.66 125.269 226.464 125.464C226.269 125.66 226.269 125.976 226.464 126.172L229.646 129.354ZM230.354 100.646C230.158 100.451 229.842 100.451 229.646 100.646L226.464 103.828C226.269 104.024 226.269 104.34 226.464 104.536C226.66 104.731 226.976 104.731 227.172 104.536L230 101.707L232.828 104.536C233.024 104.731 233.34 104.731 233.536 104.536C233.731 104.34 233.731 104.024 233.536 103.828L230.354 100.646ZM230.5 129L230.5 101L229.5 101L229.5 129L230.5 129Z" fill="#A78BFA" />
	<path d="M120.392 21.1364C119.847 21.1364 119.365 20.9986 118.947 20.723C118.53 20.4446 118.203 20.0526 117.967 19.5469C117.732 19.0384 117.614 18.4375 117.614 17.7443C117.614 17.0568 117.732 16.4602 117.967 15.9545C118.203 15.4489 118.531 15.0582 118.952 14.7827C119.372 14.5071 119.858 14.3693 120.409 14.3693C120.835 14.3693 121.172 14.4403 121.419 14.5824C121.669 14.7216 121.859 14.8807 121.99 15.0597C122.124 15.2358 122.227 15.3807 122.301 15.4943H122.386V12.2727H123.392V21H122.42V19.9943H122.301C122.227 20.1136 122.122 20.2642 121.986 20.446C121.849 20.625 121.655 20.7855 121.402 20.9276C121.149 21.0668 120.813 21.1364 120.392 21.1364ZM120.528 20.233C120.932 20.233 121.273 20.1278 121.551 19.9176C121.83 19.7045 122.041 19.4105 122.186 19.0355C122.331 18.6577 122.403 18.2216 122.403 17.7273C122.403 17.2386 122.332 16.8111 122.19 16.4446C122.048 16.0753 121.838 15.7884 121.56 15.5838C121.281 15.3764 120.938 15.2727 120.528 15.2727C120.102 15.2727 119.747 15.3821 119.463 15.6009C119.182 15.8168 118.97 16.1108 118.828 16.483C118.689 16.8523 118.619 17.267 118.619 17.7273C118.619 18.1932 118.69 18.6165 118.832 18.9972C118.977 19.375 119.19 19.6761 119.472 19.9006C119.756 20.1222 120.108 20.233 120.528 20.233Z" fill="#7C3AED" />
	<path d="M200.92 53V46.4545H201.892V47.4432H201.96C202.08 47.1193 202.295 46.8565 202.608 46.6548C202.92 46.4531 203.273 46.3523 203.665 46.3523C203.739 46.3523 203.831 46.3537 203.942 46.3565C204.053 46.3594 204.136 46.3636 204.193 46.3693V47.392C204.159 47.3835 204.081 47.3707 203.959 47.3537C203.839 47.3338 203.713 47.3239 203.58 47.3239C203.261 47.3239 202.977 47.3906 202.727 47.5241C202.48 47.6548 202.284 47.8366 202.139 48.0696C201.997 48.2997 201.926 48.5625 201.926 48.858V53H200.92Z" fill="#7C3AED" />
	<path d="M237.926 115.062V119H236.92V110.273H237.926V113.477H238.011C238.165 113.139 238.395 112.871 238.702 112.672C239.011 112.47 239.423 112.369 239.938 112.369C240.384 112.369 240.774 112.459 241.109 112.638C241.445 112.814 241.705 113.085 241.889 113.452C242.077 113.815 242.17 114.278 242.17 114.841V119H241.165V114.909C241.165 114.389 241.03 113.987 240.76 113.703C240.493 113.416 240.122 113.273 239.648 113.273C239.318 113.273 239.023 113.342 238.761 113.482C238.503 113.621 238.298 113.824 238.148 114.091C238 114.358 237.926 114.682 237.926 115.062Z" fill="#7C3AED" />
</svg>