<svg width="270" height="222" viewBox="0 0 270 222" fill="none" xmlns="http://www.w3.org/2000/svg" class="tab" data-tab="2">

	<mask id="path-1-inside-1_5994_68715" fill="white">
		<path fill-rule="evenodd" clip-rule="evenodd" d="M193 3H126L52 94V194H119L193 103V3Z" />
	</mask>
	<path fill-rule="evenodd" clip-rule="evenodd" d="M193 3H126L52 94V194H119L193 103V3Z" fill="#F5F3FF" />
	<path d="M126 3V2H125.524L125.224 2.36909L126 3ZM193 3H194V2H193V3ZM52 94L51.2241 93.3691L51 93.6447V94H52ZM52 194H51V195H52V194ZM119 194V195H119.476L119.776 194.631L119 194ZM193 103L193.776 103.631L194 103.355V103H193ZM126 4H193V2H126V4ZM52.7759 94.6309L126.776 3.63091L125.224 2.36909L51.2241 93.3691L52.7759 94.6309ZM53 194V94H51V194H53ZM119 193H52V195H119V193ZM119.776 194.631L193.776 103.631L192.224 102.369L118.224 193.369L119.776 194.631ZM194 103V3H192V103H194Z" fill="#A78BFA" mask="url(#path-1-inside-1_5994_68715)" />
	<path d="M53 94H119M192.5 3.5L119 94M119 193V94" stroke="#A78BFA" />
	<line x1="119.5" y1="197" x2="119.5" y2="211" stroke="#A78BFA" />
	<line x1="52.5" y1="196" x2="52.5" y2="210" stroke="#A78BFA" />
	<path d="M118.354 203.354C118.549 203.158 118.549 202.842 118.354 202.646L115.172 199.464C114.976 199.269 114.66 199.269 114.464 199.464C114.269 199.66 114.269 199.976 114.464 200.172L117.293 203L114.464 205.828C114.269 206.024 114.269 206.34 114.464 206.536C114.66 206.731 114.976 206.731 115.172 206.536L118.354 203.354ZM53.6464 202.646C53.4512 202.842 53.4512 203.158 53.6464 203.354L56.8284 206.536C57.0237 206.731 57.3403 206.731 57.5355 206.536C57.7308 206.34 57.7308 206.024 57.5355 205.828L54.7071 203L57.5355 200.172C57.7308 199.976 57.7308 199.66 57.5355 199.464C57.3403 199.269 57.0237 199.269 56.8284 199.464L53.6464 202.646ZM118 202.5H54V203.5H118V202.5Z" fill="#A78BFA" />
	<path d="M83.4034 215L81.4091 208.455H82.4659L83.8807 213.466H83.9489L85.3466 208.455H86.4205L87.8011 213.449H87.8693L89.2841 208.455H90.3409L88.3466 215H87.358L85.9261 209.972H85.8239L84.392 215H83.4034Z" fill="#7C3AED" />
	<line x1="193.5" y1="106" x2="193.5" y2="121" stroke="#A78BFA" />
	<path d="M190.497 117.947C190.468 117.672 190.222 117.474 189.947 117.503L185.472 117.98C185.198 118.009 184.999 118.256 185.028 118.53C185.057 118.805 185.304 119.004 185.578 118.974L189.556 118.55L189.98 122.528C190.009 122.802 190.256 123.001 190.53 122.972C190.805 122.943 191.004 122.696 190.974 122.422L190.497 117.947ZM122.503 201.053C122.532 201.328 122.778 201.526 123.053 201.497L127.528 201.02C127.802 200.991 128.001 200.744 127.972 200.47C127.943 200.195 127.696 199.996 127.422 200.026L123.444 200.45L123.02 196.472C122.991 196.198 122.744 195.999 122.47 196.028C122.195 196.057 121.996 196.304 122.026 196.578L122.503 201.053ZM189.611 117.686L122.611 200.686L123.389 201.314L190.389 118.314L189.611 117.686Z" fill="#A78BFA" />
	<path d="M164.926 162.273V171H163.92V162.273H164.926Z" fill="#7C3AED" />
	<line x1="211" y1="3.5" x2="196" y2="3.5" stroke="#A78BFA" />
	<line x1="211" y1="102.5" x2="196" y2="102.5" stroke="#A78BFA" />
	<path d="M203.646 100.354C203.842 100.549 204.158 100.549 204.354 100.354L207.536 97.1716C207.731 96.9763 207.731 96.6597 207.536 96.4645C207.34 96.2692 207.024 96.2692 206.828 96.4645L204 99.2929L201.172 96.4645C200.976 96.2692 200.66 96.2692 200.464 96.4645C200.269 96.6597 200.269 96.9763 200.464 97.1716L203.646 100.354ZM204.354 5.64645C204.158 5.45119 203.842 5.45119 203.646 5.64645L200.464 8.82843C200.269 9.02369 200.269 9.34027 200.464 9.53554C200.66 9.7308 200.976 9.7308 201.172 9.53554L204 6.70711L206.828 9.53554C207.024 9.7308 207.34 9.7308 207.536 9.53554C207.731 9.34027 207.731 9.02369 207.536 8.82843L204.354 5.64645ZM204.5 100L204.5 6L203.5 6L203.5 100L204.5 100Z" fill="#A78BFA" />
	<path d="M211.926 67.0625V71H210.92V62.2727H211.926V65.4773H212.011C212.165 65.1392 212.395 64.8707 212.702 64.6719C213.011 64.4702 213.423 64.3693 213.938 64.3693C214.384 64.3693 214.774 64.4588 215.109 64.6378C215.445 64.8139 215.705 65.0852 215.889 65.4517C216.077 65.8153 216.17 66.2784 216.17 66.8409V71H215.165V66.9091C215.165 66.3892 215.03 65.9872 214.76 65.7031C214.493 65.4162 214.122 65.2727 213.648 65.2727C213.318 65.2727 213.023 65.3423 212.761 65.4815C212.503 65.6207 212.298 65.8239 212.148 66.0909C212 66.358 211.926 66.6818 211.926 67.0625Z" fill="#7C3AED" />
</svg>